<svg width="940" height="537" viewBox="0 0 940 537" fill="none" xmlns="http://www.w3.org/2000/svg">
<path d="M713.149 233.719C773.854 205.144 845.96 217.724 893.403 265.167C955.533 327.298 955.532 428.032 893.402 490.162C845.96 537.604 773.855 550.186 713.15 521.615L515.978 428.813L578.776 399.168L735.961 473.149C776.227 492.101 824.056 483.755 855.525 452.286C896.737 411.074 896.738 344.255 855.526 303.043C824.057 271.574 776.228 263.23 735.962 282.183L226.85 521.615C166.145 550.186 94.0397 537.604 46.5984 490.162C-15.5318 428.032 -15.5334 327.298 46.5973 265.167C94.0399 217.724 166.146 205.144 226.851 233.719L424.46 326.736L361.664 356.38L204.038 282.184C163.772 263.23 115.943 271.574 84.4738 303.043C43.2622 344.255 43.2627 411.074 84.4749 452.286C115.944 483.755 163.773 492.101 204.039 473.149L713.149 233.719Z" fill="#BFBFBF"/>
<path d="M380.84 389.997L562.612 304.512L565.946 311.599C568.057 310.723 570.365 310.221 572.789 310.178C583.118 309.996 591.639 318.222 591.821 328.551C591.949 335.841 587.889 342.231 581.858 345.423L585.413 352.982L403.508 438.53L400.458 432.001C397.966 433.302 395.142 434.06 392.14 434.113C381.811 434.294 373.29 426.068 373.108 415.739C372.969 407.834 377.754 400.989 384.638 398.129L380.84 389.997Z" fill="#0055FF"/>
<path fill-rule="evenodd" clip-rule="evenodd" d="M431.83 416.9L451.004 407.946C451.004 407.946 447.991 406.894 444.355 403.674L451.897 400.153C451.175 399.677 450.488 399.185 449.834 398.678L455.456 396.053L445.964 375.83L440.393 378.432C440.424 377.613 440.488 376.779 440.585 375.929L433.043 379.45C432.908 374.596 434.036 371.61 434.036 371.61L414.863 380.564C414.863 380.564 417.876 381.615 421.511 384.835L413.97 388.357C414.685 388.827 415.367 389.313 416.016 389.815L410.198 392.531L419.641 412.752L425.48 410.025C425.452 410.78 425.396 411.547 425.312 412.328C425.307 412.4 425.284 412.47 425.245 412.53C425.206 412.59 425.152 412.639 425.088 412.671L432.823 409.059C432.958 413.914 431.83 416.9 431.83 416.9ZM425.483 409.952C425.77 401.659 422.639 394.965 416.088 389.871C415.842 390.63 414.524 395.323 417.4 401.483C420.306 407.706 424.811 409.686 425.483 409.952ZM432.823 409.059C432.724 405.506 431.948 400.95 429.558 395.831C427.168 390.712 424.173 387.193 421.511 384.835L433.043 379.45C433.142 383.004 433.918 387.56 436.308 392.679C438.699 397.798 441.694 401.317 444.355 403.674L432.823 409.059ZM449.598 398.493C443.229 393.449 440.157 386.865 440.382 378.742C441.573 379.279 445.572 381.436 448.224 387.115C450.883 392.809 449.951 397.254 449.598 398.493Z" fill="white"/>
<path fill-rule="evenodd" clip-rule="evenodd" d="M477.748 364.105C477.406 363.458 477.233 362.735 477.246 362.006C477.259 361.276 477.457 360.564 477.821 359.937C478.641 358.562 479.871 357.486 481.338 356.862C482.76 356.145 484.373 355.892 485.954 356.14C486.669 356.262 487.343 356.566 487.912 357.024C488.482 357.482 488.927 358.078 489.206 358.755L489.24 358.827C489.594 359.49 489.777 360.231 489.771 360.981C489.766 361.73 489.573 362.464 489.21 363.114C488.392 364.491 487.163 365.57 485.698 366.199C484.277 366.926 482.659 367.175 481.077 366.912C480.347 366.772 479.662 366.447 479.085 365.969C478.509 365.491 478.061 364.875 477.782 364.178L477.748 364.105ZM481.988 365.229C483.027 365.454 484.107 365.317 485.052 364.842C486.033 364.437 486.84 363.696 487.33 362.747C487.536 362.291 487.632 361.791 487.612 361.288C487.592 360.785 487.456 360.292 487.215 359.848L487.157 359.724C486.978 359.267 486.692 358.858 486.325 358.533C485.958 358.208 485.519 357.976 485.047 357.857C484.001 357.655 482.923 357.806 481.978 358.285C481.001 358.689 480.192 359.416 479.684 360.349C479.474 360.79 479.372 361.277 479.386 361.768C479.4 362.26 479.531 362.743 479.766 363.176L479.814 363.279C480.01 363.767 480.319 364.201 480.716 364.543C481.114 364.885 481.586 365.126 482.094 365.243L481.988 365.229Z" fill="white"/>
<path fill-rule="evenodd" clip-rule="evenodd" d="M468.098 364.44L470.579 363.282C471.806 362.612 473.206 362.325 474.603 362.458C475.121 362.602 475.602 362.858 476.015 363.208C476.427 363.558 476.759 363.994 476.988 364.486C477.218 364.977 477.339 365.512 477.343 366.052C477.347 366.593 477.234 367.127 477.011 367.617C476.197 368.818 475.034 369.733 473.68 370.24L471.321 371.342L471.875 372.528L469.933 373.435L469.374 372.238L466.996 373.349C465.723 374.091 464.249 374.41 462.778 374.263C462.249 374.145 461.755 373.899 461.34 373.545C460.924 373.191 460.6 372.741 460.395 372.234C460.137 371.743 460.006 371.195 460.014 370.642C460.022 370.089 460.169 369.548 460.441 369.071C461.247 367.894 462.388 366.993 463.716 366.486L466.126 365.361L465.644 364.329L467.616 363.408L468.098 364.44ZM462.349 369.525C462.222 369.816 462.163 370.134 462.179 370.454C462.195 370.774 462.285 371.086 462.441 371.366C462.558 371.665 462.741 371.933 462.975 372.15C463.21 372.367 463.49 372.528 463.794 372.62C464.65 372.715 465.511 372.533 466.252 372.101L468.763 370.928L466.836 366.801L464.325 367.974C463.501 368.257 462.796 368.807 462.319 369.539L462.349 369.525ZM468.788 365.89L470.715 370.017L473.277 368.82C474.092 368.531 474.792 367.984 475.272 367.26C475.393 366.967 475.447 366.65 475.429 366.332C475.412 366.014 475.323 365.703 475.17 365.423C475.055 365.125 474.874 364.856 474.641 364.638C474.408 364.42 474.13 364.258 473.827 364.165C472.963 364.063 472.093 364.249 471.349 364.693L468.788 365.89Z" fill="white"/>
<path fill-rule="evenodd" clip-rule="evenodd" d="M494.183 351.088L488.713 353.642L492.9 362.608L494.842 361.701L493.604 359.049L497.091 357.421C497.77 357.179 498.357 356.729 498.768 356.133C499.179 355.537 499.395 354.825 499.386 354.095C499.377 353.364 499.143 352.653 498.717 352.058C498.291 351.463 497.694 351.014 497.008 350.774C496.538 350.632 496.046 350.586 495.561 350.64C495.075 350.694 494.607 350.846 494.183 351.088ZM496.673 355.817C496.471 356.013 496.229 356.162 495.962 356.251L492.913 357.676L491.279 354.178L494.329 352.754C494.566 352.61 494.831 352.518 495.106 352.482C495.381 352.447 495.662 352.469 495.929 352.547C496.388 352.776 496.748 353.168 496.938 353.647C497.173 354.1 497.241 354.621 497.129 355.116C497.03 355.381 496.875 355.621 496.673 355.817Z" fill="white"/>
<path d="M498.83 348.919L501.016 347.898L507.803 352.382L508.026 352.542L508.14 352.627L508.148 352.485L508.169 352.211L509.067 344.138L511.294 343.099L515.48 352.064L513.579 352.952L510.766 346.927C510.736 346.874 510.71 346.819 510.689 346.762C510.689 346.831 510.685 346.901 510.674 346.969C510.664 347.038 510.659 347.108 510.66 347.177L509.828 354.703L508.638 355.259L502.363 351.102C502.305 351.055 502.243 351.012 502.179 350.974C502.111 350.939 502.05 350.89 502.001 350.831L504.887 357.011L503.027 357.879L498.83 348.919Z" fill="white"/>
<path d="M518.576 348.645L518.078 348.878C517.941 348.947 517.796 349.002 517.647 349.042L518.442 350.744C518.598 350.737 518.752 350.711 518.902 350.667C519.095 350.597 519.283 350.51 519.461 350.406C519.84 350.259 520.186 350.038 520.479 349.755C520.772 349.471 521.005 349.132 521.166 348.755C521.46 347.941 521.658 347.093 521.758 346.23L522.751 337.749L520.779 338.67L520.204 344.493L520.166 344.862C520.159 344.908 520.155 344.97 520.151 345.043C520.147 345.098 520.144 345.16 520.138 345.227L519.86 345.03C519.826 345.002 519.774 344.971 519.705 344.93C519.654 344.9 519.595 344.864 519.527 344.821L514.475 341.613L512.381 342.591L519.632 347.038C519.55 347.383 519.429 347.717 519.269 348.033C519.103 348.302 518.862 348.515 518.576 348.645Z" fill="white"/>
<path d="M532.522 333.186L536.708 342.151L534.766 343.058L531.317 335.671L527.25 337.57L528.814 341.528C529.208 342.465 529.416 343.469 529.426 344.484C529.406 344.916 529.258 345.33 529.001 345.674C528.745 346.018 528.391 346.275 527.986 346.413C527.799 346.515 527.606 346.606 527.407 346.683L526.972 346.786L526.1 344.918C526.199 344.883 526.294 344.839 526.385 344.786L526.69 344.643C526.872 344.579 527.033 344.463 527.152 344.31C527.271 344.156 527.344 343.971 527.362 343.776C527.361 343.195 527.232 342.62 526.985 342.093L524.881 336.792L532.522 333.186Z" fill="white"/>
<path fill-rule="evenodd" clip-rule="evenodd" d="M539.902 329.717L537.94 330.633L537.653 341.713L539.777 340.72L539.778 338.132L544.402 335.972L546.386 337.635L548.592 336.605L539.902 329.717ZM543.151 334.923L540.281 332.518L540.009 332.306L539.791 332.131L539.785 332.41C539.802 332.446 539.796 332.506 539.789 332.582C539.783 332.636 539.777 332.698 539.778 332.766L539.778 336.498L543.151 334.923Z" fill="white"/>
<path fill-rule="evenodd" clip-rule="evenodd" d="M470.624 389.312L471.443 391.066L469.633 391.911L468.077 388.579L469.038 388.13C469.081 387.686 469.065 387.237 468.99 386.795C468.859 386.12 468.662 385.458 468.402 384.82L466.59 380.276L474.855 376.416L478.304 383.803L479.585 383.205L481.141 386.537L479.332 387.382L478.513 385.628L470.624 389.312ZM470.834 386.21C470.888 386.558 470.91 386.909 470.9 387.26L476.332 384.724L473.624 378.926L468.999 381.086L470.209 384.127C470.498 384.795 470.708 385.494 470.834 386.21Z" fill="white"/>
<path d="M485.877 374.536L488.811 380.819L490.742 379.917L486.556 370.952L484.279 372.015L482.548 380.137L482.42 380.473C482.395 380.543 482.383 380.616 482.386 380.691L479.399 374.294L477.457 375.201L481.643 384.166L483.931 383.098L485.637 374.95C485.688 374.833 485.726 374.709 485.75 374.583C485.767 374.5 485.777 374.415 485.781 374.33C485.818 374.396 485.85 374.465 485.877 374.536Z" fill="white"/>
<path fill-rule="evenodd" clip-rule="evenodd" d="M491.985 368.388L493.957 367.467L502.636 374.359L501.785 372.537C501.88 372.504 501.972 372.461 502.059 372.409L502.374 372.262C502.556 372.198 502.715 372.083 502.835 371.932C502.955 371.781 503.03 371.598 503.052 371.405C503.042 370.821 502.908 370.245 502.659 369.716L500.565 364.41L508.129 360.878L512.316 369.844L510.364 370.755L506.919 363.378L502.853 365.277L504.416 369.235C504.824 370.136 505.059 371.106 505.106 372.092C505.081 372.525 504.931 372.939 504.673 373.283C504.415 373.627 504.061 373.885 503.656 374.025C503.472 374.126 503.282 374.215 503.087 374.291C502.945 374.337 502.799 374.371 502.652 374.394L502.636 374.359L500.451 375.38L498.467 373.718L493.843 375.877L493.842 378.466L491.708 379.463L491.985 368.388ZM494.346 370.264L497.216 372.669L493.843 374.244L493.843 370.511L493.856 369.877C493.89 369.907 493.927 369.931 493.961 369.953C494.012 369.986 494.057 370.015 494.074 370.052L494.346 370.264Z" fill="white"/>
<path fill-rule="evenodd" clip-rule="evenodd" d="M511.198 362.453C511.187 363.18 511.359 363.899 511.698 364.544C511.975 365.239 512.421 365.853 512.994 366.331C513.568 366.81 514.252 367.136 514.981 367.278C516.562 367.539 518.179 367.29 519.601 366.565L530.51 361.471C531.617 360.842 532.54 359.93 533.187 358.826C533.55 358.177 533.742 357.443 533.745 356.694C533.749 355.945 533.563 355.205 533.207 354.545L533.173 354.472C532.896 353.795 532.453 353.198 531.885 352.739C531.318 352.28 530.645 351.975 529.931 351.852C528.647 351.644 527.335 351.78 526.127 352.246L515.28 357.311C513.814 357.936 512.584 359.012 511.762 360.386C511.403 361.014 511.209 361.725 511.198 362.453ZM515.94 365.673C516.979 365.898 518.059 365.761 519.004 365.286L529.8 360.244C530.454 359.836 530.983 359.254 531.331 358.562C531.535 358.105 531.631 357.606 531.611 357.103C531.591 356.6 531.455 356.107 531.215 355.663L531.157 355.539C530.979 355.081 530.694 354.672 530.326 354.347C529.959 354.022 529.52 353.79 529.047 353.672C528.301 353.473 527.515 353.515 526.8 353.792C523.2 355.284 516.38 358.393 515.706 358.808C514.879 359.314 514.181 360.01 513.671 360.84C513.46 361.281 513.358 361.767 513.372 362.259C513.387 362.751 513.517 363.233 513.752 363.666L513.801 363.77C513.992 364.231 514.287 364.643 514.662 364.971C515.037 365.3 515.482 365.537 515.961 365.664L515.94 365.673Z" fill="white"/>
<path d="M539.788 346.095L532.672 349.418L536.868 358.378L538.81 357.472L535.366 350.095L540.53 347.684L539.788 346.095Z" fill="white"/>
<path fill-rule="evenodd" clip-rule="evenodd" d="M544.187 344.012L546.149 343.096L554.839 349.983L552.633 351.013L550.65 349.351L546.025 351.51L546.025 354.099L543.9 355.091L544.187 344.012ZM546.529 345.897L549.398 348.302L546.025 349.877L546.025 346.144L546.039 345.51C546.072 345.54 546.109 345.564 546.143 345.586C546.194 345.619 546.239 345.648 546.256 345.685L546.529 345.897Z" fill="white"/>
<mask id="mask0_454_1073" style="mask-type:alpha" maskUnits="userSpaceOnUse" x="3" y="7" width="404" height="477">
<path d="M3.5 7.5H406.745V378.301L407 378.431L204.464 473.944C164.306 492.908 116.605 484.557 85.2216 453.069C64.6457 432.425 54.371 405.359 54.3975 378.301H54L3.5 230.501V7.5Z" fill="#D9D9D9"/>
</mask>
<g mask="url(#mask0_454_1073)">
<path d="M145.962 346.923L131.133 410L300.189 334.143L299.341 320.951L303.154 315.591L329 224.893L322.221 189.438L273.496 176.245L202.314 168L198.077 170.886L185.366 187.376L150.199 200.981L143.42 208.402L93 301.162L96.3896 332.082L145.962 346.923Z" fill="#EEEEEE"/>
<path d="M255.956 150.657L249.442 152.32H249.437L226.715 158.116L224.373 156.275L208.69 143.945L202.431 131.479C191.966 131.16 184.765 119.363 186.719 113.028C187.401 110.813 188.834 109.912 190.41 109.675C193.336 109.238 196.757 111.099 196.757 111.099C198.642 111.075 198.657 107.401 198.657 102.928C198.657 98.4546 213.118 78.5254 213.118 78.5254C213.118 78.5254 235.992 80.1248 245.598 82.897C255.2 85.6644 255.848 95.5758 255.848 95.5758L255.872 108.749L255.956 150.657Z" stroke="black" stroke-width="2.32926" stroke-linecap="round" stroke-linejoin="round"/>
<path d="M255.896 122.886C255.896 122.886 267.245 114.71 258.571 104.6C258.571 104.6 256.823 108.375 255.871 108.748L255.896 122.886Z" stroke="black" stroke-width="2.32926" stroke-linecap="round" stroke-linejoin="round"/>
<path d="M257.652 106.515C257.117 107.315 256.528 108.061 255.875 108.749L255.851 95.5761C255.851 95.5761 255.203 85.6647 245.601 82.8973C235.995 80.1251 213.121 78.5257 213.121 78.5257C213.121 78.5257 198.66 98.4501 198.66 102.928C198.66 107.407 198.615 108.153 198.66 109.815C198.66 109.815 192.916 107.334 189.991 107.77C189.863 107.731 189.392 109.142 189.156 95.2416C188.921 81.3416 198.974 77.1396 198.974 77.1396C202.405 70.364 226.536 55.6449 247.476 70.7711C268.417 85.8974 257.652 106.515 257.652 106.515Z" fill="#0055FC" stroke="#0055FC" stroke-width="2.32926" stroke-miterlimit="10"/>
<path d="M250.506 160.516C248.003 165.155 227.951 179.539 217.456 178.609C206.961 177.683 206.495 160.516 206.495 160.516L206.205 159.179L200.227 131.752L202.431 131.48L208.689 143.946L224.372 156.276L226.714 158.117L250.349 152.476L250.506 160.516Z" stroke="black" stroke-width="2.32926" stroke-linecap="round" stroke-linejoin="round"/>
<path d="M227.208 189.6L220.267 197.451L215.182 199.487L212.05 197.165L208.84 186.851C210.062 184.709 211.196 182.853 212.001 181.811C212.364 181.341 212.659 181.036 212.865 180.948C212.88 180.939 212.899 180.934 212.914 180.929C214.637 180.464 217.455 178.607 217.455 178.607C217.455 178.607 217.769 179.693 221.529 181.394C223.001 182.058 225.146 185.572 227.208 189.6Z" fill="#0055FC" stroke="#0055FC" stroke-width="2.32926" stroke-miterlimit="10"/>
<path d="M217.458 178.608C217.458 178.608 214.641 180.464 212.918 180.929C212.903 180.934 212.884 180.939 212.869 180.949C212.663 181.036 212.368 181.341 212.005 181.811C211.2 182.853 210.066 184.71 208.844 186.852C205.624 192.488 201.795 200.107 201.795 200.107C201.795 200.107 201.397 197.005 200.975 192.833C200.219 185.291 199.39 174.236 200.7 171.648C201.476 170.117 202.119 168.047 202.752 166.026C203.748 162.837 204.73 159.784 206.208 159.178L206.497 160.515C206.497 160.515 206.556 162.73 207.121 165.614C207.985 170.015 210.012 175.962 214.793 177.949C215.048 178.06 215.308 178.157 215.578 178.239C216.163 178.424 216.791 178.55 217.458 178.608Z" stroke="black" stroke-width="2.32926" stroke-linecap="round" stroke-linejoin="round"/>
<path d="M258.184 164.685L238.913 194.797L233.435 203.352C233.435 203.352 230.421 195.854 227.211 189.597C225.149 185.569 223.004 182.056 221.531 181.392C217.771 179.69 217.457 178.605 217.457 178.605C218.611 178.707 219.882 178.624 221.232 178.392C222.14 178.232 223.082 178.009 224.049 177.723C233.813 174.844 246.129 166.009 249.732 161.622C250.07 161.21 250.33 160.837 250.507 160.512L250.35 152.472L226.715 158.113L249.437 152.317H249.442L252.387 151.852L256.515 160.987L258.184 164.685Z" stroke="black" stroke-width="2.32926" stroke-linecap="round" stroke-linejoin="round"/>
<path d="M328.277 223.641L302.948 313.715L302.693 314.621L298.83 320.534L294.024 327.891L285.783 330.247L281.39 330.019L220.046 326.859L202.743 325.967L191.929 324.324L184.355 323.171L176.619 321.998L157.647 319.114C157.647 319.114 156.243 314.616 156.714 308.083C156.866 305.931 157.229 303.561 157.907 301.056C159.821 293.994 164.278 285.871 173.909 278.655L190.186 277.07L192.695 276.827L194.236 276.677L200.008 276.115L204.392 275.688L205.963 275.538L264.307 211.214L255.663 200.387L269.398 203.459L273.025 175.567C273.025 175.567 272.539 174.782 271.788 173.58C274.036 174.293 318.254 187.533 321.415 187.533L328.277 223.641Z" stroke="black" stroke-width="2.32926" stroke-linecap="round" stroke-linejoin="round"/>
<path d="M220.506 233.268L200.007 276.117L194.234 276.679L197.582 234.688L212.053 197.166L215.185 199.488L220.27 197.452L220.506 233.268Z" fill="#0055FC" stroke="#0055FC" stroke-width="2.32926" stroke-miterlimit="10"/>
<path d="M200.973 192.832L200.914 192.89L197.581 234.687L194.234 276.678L192.692 276.829L190.184 277.071L176.754 209.936L189.939 198.861L180.691 192.255L185.835 185.538L198.401 169.132L202.731 166.025H202.75C202.117 168.046 201.474 170.116 200.698 171.647C199.388 174.236 200.217 185.291 200.973 192.832Z" stroke="black" stroke-width="2.32926" stroke-linecap="round" stroke-linejoin="round"/>
<path d="M269.397 203.461L255.662 200.388L264.307 211.216L205.962 275.54L204.391 275.69L200.008 276.117L220.506 233.268L238.914 194.8L258.185 164.688L256.517 160.99H256.571C256.571 160.99 263.05 159.192 264.213 161.238C265.087 162.769 269.574 170.015 271.787 173.582C272.538 174.784 273.024 175.569 273.024 175.569L269.397 203.461Z" stroke="black" stroke-width="2.32926" stroke-linecap="round" stroke-linejoin="round"/>
<path d="M137.406 294.456L132.895 293.002" stroke="black" stroke-width="2.32926" stroke-linecap="round" stroke-linejoin="round"/>
<path d="M205.961 275.54L259.637 270.32L275.183 234.949" stroke="black" stroke-width="2.32926" stroke-linecap="round" stroke-linejoin="round"/>
<path d="M271.79 173.584C271.726 173.559 271.691 173.549 271.691 173.549" stroke="black" stroke-width="2.32926" stroke-linecap="round" stroke-linejoin="round"/>
<path d="M173.903 278.654C164.272 285.871 159.815 293.994 157.901 301.055L137.402 294.454C138.595 292.094 149.06 273.09 173.903 278.654Z" stroke="black" stroke-width="2.32926" stroke-linecap="round" stroke-linejoin="round"/>
<path d="M189.22 336.699C186.526 347.173 183.669 353.561 181.322 357.22C179.202 360.549 177.499 361.62 176.743 361.461C175.888 361.281 175.589 359.919 175.515 358.494C175.51 358.494 175.51 358.48 175.515 358.475C175.53 357.593 175.569 356.459 175.653 355.121V355.102C175.663 355.068 175.663 355.029 175.663 354.99C175.947 350.59 176.718 344.052 178.731 336.995C179.379 336.995 184.464 336.975 189.22 336.699Z" stroke="black" stroke-width="2.32926" stroke-linecap="round" stroke-linejoin="round"/>
<path d="M175.673 354.977C175.673 354.977 175.673 354.982 175.668 354.993" stroke="black" stroke-width="2.32926" stroke-linecap="round" stroke-linejoin="round"/>
<path d="M175.518 358.475C175.449 357.06 175.601 355.582 175.655 355.121" stroke="black" stroke-width="2.32926" stroke-linecap="round" stroke-linejoin="round"/>
<path d="M185.835 185.539L162.789 194.704" stroke="black" stroke-width="2.32926" stroke-linecap="round" stroke-linejoin="round"/>
<path d="M112.367 265.916L93.9642 300.303L93.7188 304.679L96.1829 331.68L146.281 346.641" stroke="black" stroke-width="2.32926" stroke-linecap="round" stroke-linejoin="round"/>
<path d="M220.046 326.862L220.026 327.051C220.026 327.051 200.406 334.205 197.225 335.601C195.939 336.163 192.67 336.502 189.224 336.701C184.468 336.977 179.382 336.996 178.734 336.996C180.025 332.46 181.832 327.705 184.355 323.174L191.929 324.327L202.743 325.97L220.046 326.862Z" stroke="black" stroke-width="2.32926" stroke-linecap="round" stroke-linejoin="round"/>
<path d="M155.188 244.119L155.659 279.538" stroke="black" stroke-width="2.32926" stroke-linecap="round" stroke-linejoin="round"/>
<path d="M306.332 458.551C306.332 458.551 302.807 459.341 297.01 460.31C276.669 463.732 228.333 469.446 205.866 451.519C186.054 435.709 181.882 397.469 181.214 375.025C181.155 373.033 181.126 371.167 181.111 369.451C181.062 362.317 181.342 357.79 181.342 357.79L181.327 357.218C183.674 353.559 186.53 347.171 189.225 336.698C192.671 336.499 195.94 336.16 197.226 335.597C200.407 334.202 220.027 327.048 220.027 327.048L220.047 326.859L281.391 330.019L285.784 330.247L294.026 327.891L298.831 320.539L299.425 331.488L300.461 350.477L302.012 379.086L303.048 398.099L303.897 413.783L306.332 458.551Z" stroke="black" stroke-width="2.32926" stroke-linecap="round" stroke-linejoin="round"/>
<path d="M298.83 320.537L298.816 320.305" stroke="black" stroke-width="2.32926" stroke-linecap="round" stroke-linejoin="round"/>
<path d="M181.112 369.454C181.126 371.169 181.156 373.035 181.215 375.027C171.221 434.292 152.916 445.86 139.81 445.574C130.989 445.39 124.52 439.831 124.52 439.831L140.09 373.156L148.965 373.975C152.131 374.266 155.037 372.211 155.773 369.158L158.105 359.547L143.55 358.345L146.285 346.641L175.521 360.628C175.521 360.628 175.491 359.857 175.521 358.495C175.594 359.92 175.894 361.282 176.748 361.462C177.504 361.621 179.207 360.55 181.328 357.221L181.342 357.793C181.342 357.793 181.063 362.319 181.112 369.454Z" stroke="black" stroke-width="2.32926" stroke-linecap="round" stroke-linejoin="round"/>
<path d="M233.68 361.559L235.324 371.31C235.849 374.407 238.598 376.656 241.779 376.578L283.67 375.609C287.44 375.522 290.316 372.246 289.864 368.548L288.917 360.803L233.68 361.559Z" fill="#0055FC" stroke="#0055FC" stroke-width="2.32926" stroke-miterlimit="10"/>
<path d="M158.097 359.546L155.765 369.157C155.029 372.21 152.123 374.265 148.957 373.974L140.082 373.155L143.543 358.344L158.097 359.546Z" fill="#0055FC" stroke="#0055FC" stroke-width="2.32926" stroke-miterlimit="10"/>
<path d="M136.414 489.686L139.811 445.573C152.917 445.859 171.222 434.29 181.216 375.025C181.883 397.47 186.056 435.71 205.867 451.519C228.334 469.447 276.67 463.733 297.011 460.311L299.8 490.588" stroke="black" stroke-width="2.32926" stroke-linecap="round" stroke-linejoin="round"/>
<path d="M201.061 490.879L188.952 461.126C188.952 461.126 178.835 459.589 171.055 455.746" stroke="black" stroke-width="2.32926" stroke-linecap="round" stroke-linejoin="round"/>
<path d="M250.751 105.779C250.751 105.779 245.042 100.768 237.743 106.564L243.771 127.865L231.082 127.24" stroke="black" stroke-width="2.32926" stroke-linecap="round" stroke-linejoin="round"/>
<path d="M228.229 107.657C228.229 107.657 220.93 104.211 212.684 109.067" stroke="black" stroke-width="2.32926" stroke-linecap="round" stroke-linejoin="round"/>
<path d="M218.707 135.543C218.707 135.543 229.334 138.834 241.233 136.483" stroke="black" stroke-width="2.32926" stroke-linecap="round" stroke-linejoin="round"/>
<g opacity="0.4">
<path d="M131.814 170.488H114.051V225.714H131.814V170.488Z" fill="#354FFF" stroke="#354FFF" stroke-width="2.32926" stroke-linecap="round" stroke-linejoin="round"/>
<path d="M109.509 182.938H91.7461V225.713H109.509V182.938Z" fill="#354FFF" stroke="#354FFF" stroke-width="2.32926" stroke-linecap="round" stroke-linejoin="round"/>
<path d="M87.1076 194.461H69.3398V225.716H87.1076V194.461Z" fill="#354FFF" stroke="#354FFF" stroke-width="2.32926" stroke-linecap="round" stroke-linejoin="round"/>
<path d="M64.564 207.77H46.8008V225.754H64.564V207.77Z" fill="#354FFF" stroke="#354FFF" stroke-width="2.32926" stroke-linecap="round" stroke-linejoin="round"/>
<path d="M64.564 225.711H46.8008V225.751H64.564V225.711Z" fill="#354FFF" stroke="#354FFF" stroke-width="2.32926" stroke-linecap="round" stroke-linejoin="round"/>
<path d="M161.518 137.658H22.3521C17.6134 137.658 13.7695 141.453 13.7695 146.132V240.821C13.7695 245.504 17.6134 249.299 22.3521 249.299H123.207L129.794 236.989H38.5631V225.712H46.7942V207.767H64.5574V225.712H69.3326V194.457H87.1004V225.712H91.7386V182.936H109.502V225.712H114.044V170.486H131.807V225.712H135.829L153.068 193.497L158.108 187.84L170.1 183.071V146.132C170.1 141.453 166.261 137.658 161.518 137.658ZM23.6075 146.434C22.1649 146.551 20.9004 145.488 20.7817 144.063C20.6676 142.634 21.7449 141.386 23.1875 141.273C24.6301 141.161 25.8947 142.22 26.0088 143.649C26.1275 145.073 25.0501 146.322 23.6075 146.434ZM33.4501 146.434C32.0075 146.551 30.743 145.488 30.6288 144.063C30.5101 142.634 31.5875 141.386 33.0301 141.273C34.4773 141.161 35.7419 142.22 35.856 143.649C35.9747 145.073 34.8973 146.322 33.4501 146.434ZM42.6399 141.273C44.0825 141.161 45.347 142.22 45.4612 143.649C45.5799 145.073 44.5025 146.322 43.0599 146.434C41.6127 146.551 40.3481 145.488 40.234 144.063C40.1153 142.634 41.1927 141.386 42.6399 141.273ZM81.8687 179.708L77.7326 173.583L43.384 196.201L39.4671 190.4L73.8111 167.782L69.8485 161.913L87.9632 161.773L81.8687 179.708Z" stroke="black" stroke-width="2.32926" stroke-linecap="round" stroke-linejoin="round"/>
<path d="M26.0089 143.649C26.1276 145.074 25.0502 146.322 23.6076 146.435C22.165 146.552 20.9004 145.488 20.7817 144.064C20.6676 142.635 21.745 141.387 23.1876 141.274C24.6302 141.161 25.8948 142.22 26.0089 143.649Z" stroke="black" stroke-width="2.32926" stroke-linecap="round" stroke-linejoin="round"/>
<path d="M35.8572 143.649C35.9759 145.074 34.8985 146.322 33.4513 146.435C32.0087 146.552 30.7442 145.488 30.63 144.064C30.5113 142.635 31.5887 141.387 33.0313 141.274C34.4785 141.161 35.7431 142.22 35.8572 143.649Z" stroke="black" stroke-width="2.32926" stroke-linecap="round" stroke-linejoin="round"/>
<path d="M40.2394 144.064C40.1207 142.635 41.1981 141.387 42.6453 141.274C44.0879 141.161 45.3524 142.22 45.4666 143.649C45.5853 145.074 44.5079 146.322 43.0653 146.435C41.6181 146.552 40.3535 145.488 40.2394 144.064Z" stroke="black" stroke-width="2.32926" stroke-linecap="round" stroke-linejoin="round"/>
<path d="M43.3857 196.2L39.4688 190.398L73.8128 167.78L69.8502 161.911L87.9649 161.771L81.8704 179.707L77.7343 173.581L43.3857 196.2Z" stroke="black" stroke-width="2.32926" stroke-linecap="round" stroke-linejoin="round"/>
<path d="M64.5562 207.77H46.793V225.754H64.5562V207.77Z" fill="#0055FC" stroke="#0055FC" stroke-width="2.32926" stroke-linecap="round" stroke-linejoin="round"/>
<path d="M87.0998 194.459H69.332V225.714H87.0998V194.459Z" fill="#0055FC" stroke="#0055FC" stroke-width="2.32926" stroke-linecap="round" stroke-linejoin="round"/>
<path d="M109.674 183.055H92.043V225.506H109.674V183.055Z" fill="#0055FC" stroke="#0055FC" stroke-width="2.32926" stroke-linecap="round" stroke-linejoin="round"/>
<path d="M131.814 170.699H114.184V225.506H131.814V170.699Z" fill="#0055FC" stroke="#0055FC" stroke-width="2.32926" stroke-linecap="round" stroke-linejoin="round"/>
<path d="M135.837 225.711L129.801 236.989H38.5703V225.711H46.8014V225.752H64.5646V225.711H135.837Z" stroke="black" stroke-width="2.32926" stroke-linecap="round" stroke-linejoin="round"/>
<path d="M13.5977 149.865H169.682" stroke="black" stroke-width="2.32926" stroke-linecap="round" stroke-linejoin="round"/>
<path d="M87.9649 161.771L81.8704 179.707L77.7343 173.581L43.3857 196.2L39.4688 190.398L73.8128 167.78L69.8502 161.911L87.9649 161.771Z" fill="#0055FC" stroke="#0055FC" stroke-width="2.32926" stroke-linecap="round" stroke-linejoin="round"/>
</g>
<g opacity="0.4">
<path d="M339.226 363.563C339.226 371.608 332.619 378.132 324.47 378.132C316.322 378.132 309.715 371.608 309.715 363.563C309.715 355.518 316.322 348.994 324.47 348.994C327.396 348.994 330.125 349.833 332.417 351.287L323.641 359.952C323.292 360.481 323.091 361.106 323.091 361.789C323.091 363.655 324.627 365.172 326.517 365.172C327.2 365.172 327.843 364.969 328.368 364.629C328.383 364.624 328.397 364.61 328.407 364.605L328.427 364.591L329.354 363.675L329.369 363.655L337.095 356.027C338.45 358.222 339.226 360.8 339.226 363.563Z" stroke="black" stroke-width="2.32926" stroke-linecap="round" stroke-linejoin="round"/>
<path d="M339.226 363.563C339.226 371.608 332.619 378.132 324.47 378.132C316.322 378.132 309.715 371.608 309.715 363.563C309.715 355.518 316.322 348.994 324.47 348.994C327.396 348.994 330.125 349.833 332.417 351.287L323.641 359.952C323.292 360.481 323.091 361.106 323.091 361.789C323.091 363.655 324.627 365.172 326.517 365.172C327.2 365.172 327.843 364.969 328.368 364.629C328.383 364.624 328.397 364.61 328.407 364.605L328.427 364.591L329.354 363.675L329.369 363.655L337.095 356.027C338.45 358.222 339.226 360.8 339.226 363.563Z" stroke="black" stroke-width="2.32926" stroke-linecap="round" stroke-linejoin="round"/>
<path d="M339.226 363.563C339.226 371.608 332.619 378.132 324.47 378.132C316.322 378.132 309.715 371.608 309.715 363.563C309.715 355.518 316.322 348.994 324.47 348.994C327.396 348.994 330.125 349.833 332.417 351.287L323.641 359.952C323.292 360.481 323.091 361.106 323.091 361.789C323.091 363.655 324.627 365.172 326.517 365.172C327.2 365.172 327.843 364.969 328.368 364.629C328.383 364.624 328.397 364.61 328.407 364.605L328.427 364.591L329.354 363.675L329.369 363.655L337.095 356.027C338.45 358.222 339.226 360.8 339.226 363.563Z" stroke="black" stroke-width="2.32926" stroke-linecap="round" stroke-linejoin="round"/>
<path d="M339.226 363.563C339.226 371.608 332.619 378.132 324.47 378.132C316.322 378.132 309.715 371.608 309.715 363.563C309.715 355.518 316.322 348.994 324.47 348.994C327.396 348.994 330.125 349.833 332.417 351.287L323.641 359.952C323.292 360.481 323.091 361.106 323.091 361.789C323.091 363.655 324.627 365.172 326.517 365.172C327.2 365.172 327.843 364.969 328.368 364.629C328.383 364.624 328.397 364.61 328.407 364.605L328.427 364.591L329.354 363.675L329.369 363.655L337.095 356.027C338.45 358.222 339.226 360.8 339.226 363.563Z" stroke="black" stroke-width="2.32926" stroke-linecap="round" stroke-linejoin="round"/>
<path d="M349.353 319.893L351.562 332.388L351.145 332.795C343.968 326.722 334.652 323.063 324.471 323.063C315.041 323.063 306.353 326.204 299.422 331.491L298.828 320.543L302.691 314.625L302.946 313.719C309.554 310.932 316.828 309.391 324.471 309.391C334.647 309.391 344.165 312.129 352.333 316.898L349.353 319.893Z" stroke="black" stroke-width="2.32926" stroke-linecap="round" stroke-linejoin="round"/>
<path d="M351.145 332.794L341.484 342.333C336.806 338.669 330.896 336.488 324.471 336.488C314.133 336.488 305.131 342.139 300.458 350.48L299.422 331.491C306.353 326.203 315.041 323.062 324.471 323.062C334.651 323.062 343.968 326.722 351.145 332.794Z" stroke="black" stroke-width="2.32926" stroke-linecap="round" stroke-linejoin="round"/>
<path d="M351.88 363.561C351.88 378.508 339.609 390.625 324.47 390.625C315.178 390.625 306.971 386.064 302.008 379.09L300.457 350.485C305.13 342.139 314.133 336.488 324.47 336.488C330.896 336.488 336.806 338.669 341.484 342.333L332.417 351.285C330.125 349.831 327.396 348.993 324.47 348.993C316.322 348.993 309.715 355.516 309.715 363.561C309.715 371.607 316.322 378.13 324.47 378.13C332.619 378.13 339.226 371.607 339.226 363.561C339.226 360.799 338.45 358.22 337.095 356.025L346.191 347.044C349.76 351.615 351.88 357.343 351.88 363.561Z" stroke="black" stroke-width="2.32926" stroke-linecap="round" stroke-linejoin="round"/>
<path d="M339.226 363.563C339.226 371.608 332.619 378.132 324.47 378.132C316.322 378.132 309.715 371.608 309.715 363.563C309.715 355.518 316.322 348.994 324.47 348.994C327.396 348.994 330.125 349.833 332.417 351.287L323.641 359.952C323.292 360.481 323.091 361.106 323.091 361.789C323.091 363.655 324.627 365.172 326.517 365.172C327.2 365.172 327.843 364.969 328.368 364.629C328.383 364.624 328.397 364.61 328.407 364.605L328.427 364.591L329.354 363.675L329.369 363.655L337.095 356.027C338.45 358.222 339.226 360.8 339.226 363.563Z" stroke="black" stroke-width="2.32926" stroke-linecap="round" stroke-linejoin="round"/>
<path d="M365.487 363.563C365.487 385.93 347.124 404.061 324.47 404.061C316.616 404.061 309.278 401.885 303.044 398.105L302.008 379.092C306.97 386.066 315.178 390.627 324.47 390.627C339.608 390.627 351.88 378.51 351.88 363.563C351.88 357.345 349.759 351.616 346.191 347.046L355.861 337.498C361.874 344.545 365.487 353.637 365.487 363.563Z" stroke="black" stroke-width="2.32926" stroke-linecap="round" stroke-linejoin="round"/>
<path d="M379.333 363.563C379.333 393.481 354.775 417.729 324.473 417.729C317.194 417.729 310.248 416.328 303.896 413.788L303.047 398.105C309.281 401.885 316.619 404.061 324.473 404.061C347.127 404.061 365.49 385.93 365.49 363.563C365.49 353.637 361.877 344.545 355.864 337.498L356.35 337.018L368.897 339.18L371.881 336.291C376.618 344.302 379.333 353.622 379.333 363.563Z" stroke="black" stroke-width="2.32926" stroke-linecap="round" stroke-linejoin="round"/>
<path d="M339.226 363.563C339.226 371.608 332.619 378.132 324.47 378.132C316.322 378.132 309.715 371.608 309.715 363.563C309.715 355.518 316.322 348.994 324.47 348.994C327.396 348.994 330.125 349.833 332.417 351.287L323.641 359.952C323.292 360.481 323.091 361.106 323.091 361.789C323.091 363.655 324.627 365.172 326.517 365.172C327.2 365.172 327.843 364.969 328.368 364.629C328.383 364.624 328.397 364.61 328.407 364.605L328.427 364.591L329.354 363.675L329.369 363.655L337.095 356.027C338.45 358.222 339.226 360.8 339.226 363.563Z" fill="#0055FC" stroke="#0055FC" stroke-width="2.32926" stroke-linecap="round" stroke-linejoin="round"/>
<path d="M375.548 318.059L371.214 322.343L356.35 337.019L355.864 337.499L346.194 347.046L337.098 356.027L329.372 363.656L329.357 363.675L328.429 364.591L328.41 364.606C328.41 364.606 328.385 364.625 328.371 364.63C327.845 364.969 327.202 365.173 326.52 365.173C324.63 365.173 323.094 363.656 323.094 361.79C323.094 361.106 323.295 360.481 323.644 359.953L332.42 351.287L341.487 342.335L351.147 332.797L351.564 332.39L360.954 323.109L366.423 317.72L370.816 313.387L375.548 318.059Z" stroke="black" stroke-width="2.32926" stroke-linecap="round" stroke-linejoin="round"/>
<path d="M366.419 317.718L360.951 323.108L351.56 332.389L349.352 319.894L352.331 316.899L364.171 304.977L366.419 317.718Z" stroke="black" stroke-width="2.32926" stroke-linecap="round" stroke-linejoin="round"/>
<path d="M383.998 324.548L371.879 336.286L368.894 339.175L356.348 337.013L371.211 322.338L383.998 324.548Z" stroke="black" stroke-width="2.32926" stroke-linecap="round" stroke-linejoin="round"/>
</g>
<path d="M162.793 194.703L149.898 199.831L144.479 205.913L112.371 265.914" stroke="black" stroke-width="2.32926" stroke-linecap="round" stroke-linejoin="round"/>
<g opacity="0.5">
<path d="M137.34 90.2773V116.207H111.574V90.3355H111.653L137.34 90.2773Z" stroke="black" stroke-width="2.32926" stroke-linecap="round" stroke-linejoin="round"/>
<path d="M154.418 64.3438C154.02 64.998 153.598 65.6378 153.156 66.2582L154.418 64.3438Z" stroke="black" stroke-width="2.32926" stroke-linecap="round" stroke-linejoin="round"/>
<path d="M116.132 90.1816C116.132 90.1816 118.439 46.7802 113.015 46.5282C109.176 46.3489 109.279 63.2054 114.478 66.1182C119.612 68.9971 127.648 46.1162 122.219 45.9369C116.79 45.7527 119.038 66.1763 123.598 66.4332C129.115 66.7434 134.446 45.7285 130.706 45.7285C126.965 45.7285 125.827 66.1376 130.814 66.2248C136.861 66.3266 145.874 46.2519 138.982 46.1453C133.46 46.0629 130.014 90.1864 130.014 90.1864" stroke="black" stroke-width="2.32926" stroke-linecap="round" stroke-linejoin="round"/>
<path d="M131.687 116.365H117.23V120.087H131.687V116.365Z" stroke="black" stroke-width="2.32926" stroke-linecap="round" stroke-linejoin="round"/>
<path d="M111.734 96.3398H124.688" stroke="black" stroke-width="2.32926" stroke-linecap="round" stroke-linejoin="round"/>
<path d="M128.715 96.3457H130.595" stroke="black" stroke-width="2.32926" stroke-linecap="round" stroke-linejoin="round"/>
<path d="M136.015 103.354H112.262" stroke="black" stroke-width="2.32926" stroke-linecap="round" stroke-linejoin="round"/>
<path d="M137.52 109.35H111.637" stroke="black" stroke-width="2.32926" stroke-linecap="round" stroke-linejoin="round"/>
<path d="M159.44 46.5224C159.44 52.8714 157.702 58.8182 154.674 63.9265C154.59 64.0671 154.507 64.2076 154.418 64.3434L153.157 66.2578L137.341 90.2775L111.654 90.3357L94.2969 64.0671H94.3509C91.2535 58.9152 89.4766 52.9054 89.4766 46.4836C89.4766 27.4364 105.116 12 124.402 12C128.059 12 131.588 12.5574 134.902 13.5897C135.682 13.8272 136.453 14.0986 137.209 14.3894C137.415 14.4669 137.616 14.5493 137.817 14.6317C150.506 19.7933 159.44 32.1231 159.44 46.5224Z" stroke="black" stroke-width="2.32926" stroke-linecap="round" stroke-linejoin="round"/>
<path d="M154.689 63.9258L154.414 64.3443C154.503 64.208 154.586 64.0669 154.67 63.9258H154.689Z" stroke="black" stroke-width="2.32926" stroke-linecap="round" stroke-linejoin="round"/>
</g>
<g opacity="0.4">
<path d="M100.477 369.764V444.567C100.477 446.898 98.5679 448.788 96.2068 448.788H31.0294C28.6683 448.788 26.7539 446.898 26.7539 444.567V369.764C26.7539 367.433 28.6683 365.543 31.0294 365.543H38.6722V368.591C38.6722 370.739 40.4344 372.478 42.6089 372.478C44.7835 372.478 46.5506 370.739 46.5506 368.591V365.543H60.344V368.591C60.344 370.739 62.1062 372.478 64.2808 372.478C66.4553 372.478 68.2175 370.739 68.2175 368.591V365.543H81.4268V368.591C81.4268 370.739 83.189 372.478 85.3636 372.478C87.5381 372.478 89.3003 370.739 89.3003 368.591V365.543H96.2068C98.5679 365.543 100.477 367.433 100.477 369.764Z" stroke="black" stroke-width="2.32926" stroke-linecap="round" stroke-linejoin="round"/>
<path d="M46.5542 357.696V368.591C46.5542 370.738 44.792 372.478 42.6125 372.478C40.4331 372.478 38.6758 370.738 38.6758 368.591V357.696C38.6758 355.549 40.438 353.809 42.6125 353.809C43.7023 353.809 44.6889 354.245 45.4007 354.948C46.1124 355.65 46.5542 356.624 46.5542 357.696Z" stroke="black" stroke-width="2.32926" stroke-linecap="round" stroke-linejoin="round"/>
<path d="M68.2173 357.696V368.591C68.2173 370.738 66.4551 372.478 64.2805 372.478C62.106 372.478 60.3438 370.738 60.3438 368.591V357.696C60.3438 355.549 62.106 353.809 64.2805 353.809C65.3653 353.809 66.352 354.245 67.0637 354.948C67.7755 355.65 68.2173 356.624 68.2173 357.696Z" stroke="black" stroke-width="2.32926" stroke-linecap="round" stroke-linejoin="round"/>
<path d="M89.2993 357.696V368.591C89.2993 370.738 87.5371 372.478 85.3625 372.478C83.188 372.478 81.4258 370.738 81.4258 368.591V357.696C81.4258 355.549 83.188 353.809 85.3625 353.809C86.4523 353.809 87.434 354.245 88.1458 354.948C88.8575 355.65 89.2993 356.624 89.2993 357.696Z" stroke="black" stroke-width="2.32926" stroke-linecap="round" stroke-linejoin="round"/>
<path d="M88.331 394.232C90.0769 394.232 91.4922 392.835 91.4922 391.113C91.4922 389.39 90.0769 387.994 88.331 387.994H56.8811C55.1352 387.994 53.7199 389.39 53.7199 391.113C53.7199 392.835 55.1352 394.232 56.8811 394.232H88.331Z" stroke="black" stroke-width="2.32926" stroke-linecap="round" stroke-linejoin="round"/>
<path d="M88.331 413.62C90.0769 413.62 91.4922 412.224 91.4922 410.502C91.4922 408.779 90.0769 407.383 88.331 407.383H56.8811C55.1352 407.383 53.7199 408.779 53.7199 410.502C53.7199 412.224 55.1352 413.62 56.8811 413.62H88.331Z" stroke="black" stroke-width="2.32926" stroke-linecap="round" stroke-linejoin="round"/>
<path d="M88.331 432.37C90.0769 432.37 91.4922 430.974 91.4922 429.252C91.4922 427.529 90.0769 426.133 88.331 426.133H56.8811C55.1352 426.133 53.7199 427.529 53.7199 429.252C53.7199 430.974 55.1352 432.37 56.8811 432.37H88.331Z" stroke="black" stroke-width="2.32926" stroke-linecap="round" stroke-linejoin="round"/>
<path d="M36.875 388.578L40.2816 393.754L49.5836 382.631" stroke="#0055FC" stroke-width="2.32926" stroke-linecap="round" stroke-linejoin="round"/>
<path d="M36.875 407.786L40.2816 412.957L49.5836 401.834" stroke="#0055FC" stroke-width="2.32926" stroke-linecap="round" stroke-linejoin="round"/>
<path d="M36.875 426.919L40.2816 432.091L49.5836 420.973" stroke="#0055FC" stroke-width="2.32926" stroke-linecap="round" stroke-linejoin="round"/>
</g>
</g>
<mask id="mask1_454_1073" style="mask-type:alpha" maskUnits="userSpaceOnUse" x="532" y="0" width="355" height="484">
<path d="M886.833 0.5H533.131V378.098L532.875 378.228L735.961 473.684C776.228 492.637 824.057 484.291 855.526 452.822C876.158 432.19 886.461 405.14 886.434 378.098H886.833V0.5Z" fill="#D9D9D9"/>
</mask>
<g mask="url(#mask1_454_1073)">
<path d="M631.599 206.856L652.454 185.064L698.42 170.537L714.168 159L761.836 161.991L770.774 173.1L773.328 180.364L816.314 210.274L824.827 232.493L841 316.241L828.657 343.588L812.484 344.87V385.034L815.889 430.754C786.851 439.28 755.682 436.723 728.421 423.578L652.028 386.744L655.008 334.187C649.049 332.763 636.366 329.402 633.301 327.351C630.237 325.3 619.824 302.568 615 291.459L631.599 206.856Z" fill="#EEEEEE"/>
<path d="M769.42 107.147C763.903 106.243 760.38 115.124 760.38 115.124L756.662 114.496L756.064 110.992L753.717 97.1765C747.677 95.6153 741.637 84.0688 741.637 84.0688C721.653 88.9083 711.587 80.635 711.587 80.635C711.587 80.635 705.99 90.8712 701.261 91.5238C701.076 90.7959 700.987 90.0579 701.002 89.3099C701.41 71.5284 726.657 65.1176 726.657 65.1176C726.657 65.1176 756.827 59.746 768.318 81.0417C773.716 91.0419 772.37 100.224 769.42 107.147Z" fill="#0055FC" stroke="#0055FC" stroke-width="2.32926" stroke-miterlimit="10"/>
<path d="M760.146 115.415C760.146 115.415 763.614 106.586 769.044 107.484C769.844 107.619 770.692 107.968 771.58 108.587C778.443 113.399 768.529 126.896 768.529 126.896L764.414 134.188C764.414 134.188 762.873 135.062 761.186 135.062L761.23 160.737L761.24 165.948L761.25 170.935V171.888L761.265 181.706C761.265 181.706 732.123 209.373 714.366 169.422C714.366 169.422 715.367 167.506 716.137 165.035C716.328 164.426 716.505 163.777 716.647 163.118C716.897 161.97 717.049 160.777 717 159.654C716.99 159.429 716.98 159.215 716.976 159.005L715.013 158.396L710.437 156.974L702.51 154.513L702 119.478C702.937 119.748 703.982 119.903 705.139 119.903C713.905 119.903 715.288 111.188 715.288 111.188H722.249C722.249 111.188 724.461 120.027 733.226 120.027C741.992 120.027 743.37 111.308 743.37 111.308H755.898" stroke="black" stroke-width="2.32926" stroke-linecap="round" stroke-linejoin="round"/>
<path d="M761 134.926C759.938 134.926 758.823 134.666 758 133.826" stroke="black" stroke-width="2.32926" stroke-linecap="round" stroke-linejoin="round"/>
<path d="M717 159.114L720.564 160.231L751.69 151.511L754 141.527" stroke="black" stroke-width="2.32926" stroke-linecap="round" stroke-linejoin="round"/>
<path d="M702 119.524L701 110.779L701.64 90.918" stroke="black" stroke-width="2.32926" stroke-linecap="round" stroke-linejoin="round"/>
<path d="M702 119.522C695.702 117.914 694 111.82 694 111.82H701.975" stroke="black" stroke-width="2.32926" stroke-linecap="round" stroke-linejoin="round"/>
<path d="M762 111.82H756" stroke="black" stroke-width="2.32926" stroke-linecap="round" stroke-linejoin="round"/>
<path d="M715.957 111.82L711 130.795L722 133.825" stroke="black" stroke-width="2.32926" stroke-linecap="round" stroke-linejoin="round"/>
<path d="M726 144.644C726 144.644 733.262 146.165 738 140.426" stroke="black" stroke-width="2.32926" stroke-linecap="round" stroke-linejoin="round"/>
<path d="M706 267.839C703.423 268.688 700.835 269.503 698.318 270.253C693.348 267.699 673.763 264.815 673.763 264.815C674.332 259.618 674.737 254.466 674.912 249.503C676.16 213.661 652 183.656 652 183.656L697.594 170.133L693.083 174.97L684.002 203.491L696.719 209.783L683.653 221.237L706 267.839Z" stroke="black" stroke-width="2.32926" stroke-linecap="round" stroke-linejoin="round"/>
<path d="M641 494.698L645.033 453.112L646.201 441.603L646.3 440.65C649.922 440.2 653.287 439.566 656.399 438.787C693.314 429.531 695.907 399.154 695.907 399.154V377.459L684.749 379.122L681.789 379.566V373.19L678.048 374.014L677.91 380.146L652.332 383.96L654.088 346.164L654.667 333.771C656.107 333.681 663.411 333.282 664.985 333.092L691.147 331.959L718.69 330.766L740.329 332.019L740.799 345.065L745 491.193" stroke="black" stroke-width="2.32926" stroke-linecap="round" stroke-linejoin="round"/>
<path d="M712 165.732L708 166.833" stroke="black" stroke-width="2.32926" stroke-linecap="round" stroke-linejoin="round"/>
<path d="M722 257.301L721.249 262.483C720.854 262.634 720.459 262.784 720.054 262.934C719.566 263.119 719.069 263.31 718.566 263.495C718.108 263.665 717.645 263.84 717.176 264.011C716.84 264.136 716.498 264.261 716.157 264.386C716.025 264.436 715.889 264.486 715.757 264.536C715.118 264.772 714.474 265.007 713.825 265.242C713.786 265.257 713.752 265.267 713.713 265.282C713.094 265.508 712.465 265.733 711.831 265.953C711.762 265.978 711.694 266.003 711.626 266.028C711.606 266.038 711.592 266.043 711.572 266.048C711.489 266.078 711.401 266.108 711.318 266.138C710.836 266.314 710.348 266.484 709.86 266.654C708.524 267.125 707.173 267.595 705.822 268.051L684 221.362L696.759 209.886L684.341 203.582L693.209 175.008L697.613 170.161L714.489 158.029C712.255 160.373 709.138 163.872 708.446 165.86C708.348 166.145 708.246 166.516 708.148 166.957C707.168 171.428 706.417 183.364 708.226 192.667C709.87 201.099 718.893 242.921 722 257.301Z" stroke="black" stroke-width="2.32926" stroke-linecap="round" stroke-linejoin="round"/>
<path d="M767 175.634L764 173.434" stroke="black" stroke-width="2.32926" stroke-linecap="round" stroke-linejoin="round"/>
<path d="M816 209.741L773 180.035" stroke="black" stroke-width="2.32926" stroke-linecap="round" stroke-linejoin="round"/>
<path d="M659 287.856C659 287.856 665.91 281.832 676 276.854" stroke="black" stroke-width="2.32926" stroke-linecap="round" stroke-linejoin="round"/>
<path d="M739.322 326.494C739.477 326.949 739.633 327.384 739.799 327.798C739.638 327.384 739.482 326.949 739.322 326.494ZM735.884 257.049C735.884 257.049 734.442 257.64 732 258.606C732.864 258.363 734.251 257.969 735.93 257.468L735.884 257.049ZM743.92 332.964H744V332.949C743.975 332.954 743.945 332.959 743.92 332.964Z" stroke="black" stroke-width="2.32926" stroke-linecap="round" stroke-linejoin="round"/>
<path d="M676 276.854C675.663 276.854 675.327 276.854 675 276.854" stroke="black" stroke-width="2.32926" stroke-linecap="round" stroke-linejoin="round"/>
<path d="M644 288.956C644 288.956 650.484 284.195 663 280.154" stroke="black" stroke-width="2.32926" stroke-linecap="round" stroke-linejoin="round"/>
<path d="M698 270.22C693.887 271.487 689.958 272.562 686.54 273.281C682.689 274.09 678.989 275.367 675.556 276.865C674.496 277.081 673.465 277.312 672.459 277.548C669.172 278.332 666.167 279.217 663.459 280.132C662.545 280.202 661.392 280.091 661.392 280.091L659.005 275.397H659L659.005 275.392H659.01L674.097 264.752C674.097 264.752 693.162 267.652 698 270.22Z" stroke="black" stroke-width="2.32926" stroke-linecap="round" stroke-linejoin="round"/>
<path d="M738 257.049C737.303 257.049 736.633 257.049 736 257.049C736.378 257.049 736.798 257.049 737.239 257.049C737.489 257.049 737.745 257.049 738 257.049Z" stroke="black" stroke-width="2.32926" stroke-linecap="round" stroke-linejoin="round"/>
<path d="M739 327.463C739 327.114 739 326.747 739 326.363C739 326.747 739 327.114 739 327.463Z" stroke="black" stroke-width="2.32926" stroke-linecap="round" stroke-linejoin="round"/>
<path d="M732 258.15C731.359 258.849 731 259.251 731 259.251" stroke="black" stroke-width="2.32926" stroke-linecap="round" stroke-linejoin="round"/>
<path d="M780 217.54C779.757 217.801 779.52 218.057 779.272 218.303C779.208 218.382 779.134 218.455 779.054 218.529C779.049 218.534 779.045 218.539 779.035 218.549C779 218.583 778.965 218.623 778.931 218.662C778.896 218.692 778.861 218.726 778.827 218.761C778.733 218.854 778.634 218.948 778.54 219.046C777.738 219.849 776.985 220.646 776.292 221.4C775.772 221.966 775.292 222.508 774.856 223.01C774.847 223.02 774.837 223.034 774.827 223.044C774.025 223.896 773.346 224.615 773.02 224.945L747.965 222.153L748.5 218.544L738.084 217.471L730.5 259.336C728.614 260.065 726.322 260.946 723.752 261.902C723.183 262.113 722.599 262.33 722 262.551L722.762 257.46L729.589 211.941L750.545 214.27L751.446 214.369L761.713 215.511L772.287 216.683L779.163 217.446L780 217.54Z" fill="#0055FC" stroke="#0055FC" stroke-width="2.32926" stroke-miterlimit="10"/>
<path d="M772 226.244C771.383 227.319 767.377 234.236 763 240.547C766.292 235.379 771.272 227.402 772 226.244Z" stroke="black" stroke-width="2.32926" stroke-linecap="round" stroke-linejoin="round"/>
<path d="M761.252 213.023H761.257L767.63 178.929L767.061 176.154L766.236 172.125L761 161.332L769.946 172.36L772.332 179.184L772.629 180.034L776.615 191.442L782 206.839L770.969 214.142L761.252 213.023Z" stroke="black" stroke-width="2.32926" stroke-linecap="round" stroke-linejoin="round"/>
<path d="M821 292.834C813.747 290.629 803.27 295.434 803.005 295.557H803" stroke="black" stroke-width="2.32926" stroke-linecap="round" stroke-linejoin="round"/>
<path d="M810 282.355L803.005 295.553L803 295.558" stroke="black" stroke-width="2.32926" stroke-linecap="round" stroke-linejoin="round"/>
<path d="M816 442.986L820 493.596" stroke="black" stroke-width="2.32926" stroke-linecap="round" stroke-linejoin="round"/>
<path d="M812 385.774V345.066" stroke="black" stroke-width="2.32926" stroke-linecap="round" stroke-linejoin="round"/>
<path d="M765.085 183.473C765.085 183.473 756.024 201.144 731.169 195.382C713.798 191.356 709.638 172.119 710.024 168.277L710.583 166.091L714.105 165.161L715.87 164.631C715.094 167.107 714.085 169.027 714.085 169.027C731.99 209.062 761.375 181.337 761.375 181.337L761.36 171.498L765.169 174.089L766 178.446L765.085 183.473Z" fill="#0055FC" stroke="#0055FC" stroke-width="2.32926" stroke-miterlimit="10"/>
<path d="M696 376.975V390.372L650 396.779L652.165 383.466L677.896 379.657L677.707 387.959L681.798 387.3V379.079L684.775 378.635L696 376.975Z" stroke="black" stroke-width="2.32926" stroke-linecap="round" stroke-linejoin="round"/>
<path d="M696 391.275V399.51C696 399.51 693.387 429.725 656.18 438.933C653.042 439.708 649.651 440.338 646 440.785L646.494 435.978V418.585L648.953 403.518L649.91 397.657L696 391.275Z" stroke="black" stroke-width="2.32926" stroke-linecap="round" stroke-linejoin="round"/>
<path d="M814 398.978L780 392.522L780.706 379.174L813.097 385.609L814 398.978Z" stroke="black" stroke-width="2.32926" stroke-linecap="round" stroke-linejoin="round"/>
<path d="M816 442.987C780.988 431.398 780 400.797 780 400.797L780.418 392.377L813.203 398.98L816 442.987Z" stroke="black" stroke-width="2.32926" stroke-linecap="round" stroke-linejoin="round"/>
<path d="M738 257.049C737.303 257.049 736.633 257.049 736 257.049C736.378 257.049 736.798 257.049 737.239 257.049C737.489 257.049 737.745 257.049 738 257.049Z" stroke="black" stroke-width="2.32926" stroke-linecap="round" stroke-linejoin="round"/>
<path d="M763 240.547C761.167 242.866 759.794 244.566 759.65 244.634C759.461 244.725 759.244 244.834 759 244.948C760.322 243.593 761.678 242.093 763 240.547Z" stroke="black" stroke-width="2.32926" stroke-linecap="round" stroke-linejoin="round"/>
<path d="M772 226.244C771.383 227.319 767.377 234.236 763 240.547C766.292 235.379 771.272 227.402 772 226.244Z" stroke="black" stroke-width="2.32926" stroke-linecap="round" stroke-linejoin="round"/>
<path d="M742.995 332.283L739.249 332.092L736.375 331.941L720.677 331.143L718.72 331.042L654.611 334.066L633.562 327.873L626.506 315.75L615 291.533L632.204 206.031L652.51 183.336C652.51 183.336 676.478 213.489 675.239 249.508C675.066 254.495 674.664 259.673 674.099 264.896L658.724 275.523H658.719L658.714 275.528H658.719L661.152 280.223C661.608 280.324 662.326 280.334 663.258 280.263C666.018 279.349 669.08 278.466 672.43 277.682C673.455 277.446 674.506 277.215 675.586 276.999C679.084 275.502 682.855 274.227 686.779 273.418C690.263 272.7 694.267 271.625 698.459 270.36C700.956 269.606 703.523 268.788 706.08 267.934C707.452 267.477 708.825 267.005 710.182 266.533C710.678 266.362 711.173 266.191 711.664 266.016C711.748 265.985 711.837 265.955 711.922 265.925C711.941 265.92 711.956 265.915 711.976 265.905C712.046 265.88 712.115 265.855 712.184 265.83C712.828 265.609 713.468 265.383 714.097 265.157C714.137 265.142 714.171 265.132 714.211 265.117C714.87 264.881 715.524 264.645 716.173 264.409C716.307 264.358 716.446 264.308 716.579 264.258C716.926 264.132 717.273 264.007 717.615 263.881C718.091 263.71 718.561 263.535 719.027 263.364C719.538 263.178 720.043 262.987 720.539 262.801C720.95 262.651 721.351 262.5 721.753 262.349C722.352 262.123 722.937 261.902 723.507 261.687C726.078 260.712 728.373 259.813 730.26 259.07C730.835 258.849 731.375 258.633 731.871 258.437C731.871 258.437 731.874 258.436 731.881 258.432C731.881 258.432 731.886 258.427 731.891 258.427C732.743 258.186 734.111 257.794 735.766 257.297L735.81 257.724C734.081 260.652 733.08 268.406 733.05 278.561C733.045 279.048 733.045 279.545 733.05 280.042C733.05 280.314 733.05 280.585 733.055 280.861C733.065 281.825 733.08 282.81 733.11 283.809C733.129 284.658 733.159 285.527 733.194 286.401C733.238 287.46 733.288 288.54 733.352 289.63C733.382 290.157 733.412 290.689 733.447 291.222C733.481 291.759 733.516 292.307 733.556 292.854C733.561 292.98 733.57 293.105 733.58 293.231C733.62 293.798 733.665 294.371 733.714 294.948C733.739 295.265 733.764 295.576 733.793 295.887C733.873 296.821 733.957 297.746 734.046 298.66C734.046 298.67 734.051 298.685 734.051 298.695C734.076 298.971 734.101 299.242 734.13 299.518C734.294 301.125 734.472 302.692 734.666 304.224C734.73 304.736 734.799 305.244 734.864 305.746C734.874 305.781 734.874 305.811 734.879 305.841C734.993 306.7 735.111 307.549 735.235 308.382C735.359 309.216 735.488 310.035 735.622 310.838C735.686 311.24 735.756 311.637 735.82 312.029C735.87 312.325 735.924 312.616 735.974 312.907C736.127 313.776 736.286 314.625 736.449 315.449C736.578 316.122 736.712 316.78 736.851 317.422C736.866 317.478 736.88 317.538 736.89 317.598C737.074 318.462 737.262 319.291 737.46 320.094C737.475 320.154 737.49 320.215 737.505 320.275C737.559 320.491 737.609 320.702 737.663 320.913C737.857 321.681 738.055 322.419 738.253 323.123C738.307 323.313 738.362 323.499 738.417 323.685C738.526 324.052 738.635 324.413 738.744 324.765C738.798 324.935 738.853 325.111 738.907 325.277C738.967 325.448 739.021 325.613 739.076 325.779C739.085 325.814 739.095 325.85 739.11 325.885C739.264 326.337 739.417 326.769 739.581 327.18C739.635 327.326 739.695 327.472 739.749 327.612C739.918 328.034 740.086 328.436 740.26 328.808C740.359 329.029 740.463 329.245 740.567 329.45C740.755 329.822 740.949 330.164 741.137 330.47C741.246 330.646 741.355 330.806 741.464 330.957C741.538 331.063 741.613 331.163 741.687 331.253C741.786 331.379 741.89 331.494 741.989 331.595C742.103 331.715 742.217 331.821 742.331 331.911C742.44 331.997 742.549 332.072 742.663 332.137C742.772 332.198 742.886 332.248 743 332.283H742.995Z" stroke="black" stroke-width="2.32926" stroke-linecap="round" stroke-linejoin="round"/>
<path d="M736 257.345C734.292 257.699 732.88 257.978 732 258.149C734.486 257.467 735.954 257.049 735.954 257.049L736 257.345Z" stroke="black" stroke-width="2.32926" stroke-linecap="round" stroke-linejoin="round"/>
<path d="M736 257.049C736 257.366 736 257.733 736 258.149V257.307C736 257.217 736 257.138 736 257.049Z" stroke="black" stroke-width="2.32926" stroke-linecap="round" stroke-linejoin="round"/>
<path d="M747.098 324.712C746.373 329.517 745.228 332.534 743.746 332.95C743.72 332.955 743.689 332.96 743.663 332.965L742.989 332.935C742.87 332.899 742.751 332.849 742.637 332.788C742.518 332.722 742.404 332.646 742.29 332.559C742.171 332.468 742.052 332.361 741.932 332.239C741.829 332.138 741.725 332.021 741.616 331.894C741.539 331.802 741.461 331.701 741.383 331.594C741.269 331.442 741.155 331.279 741.041 331.101C740.844 330.792 740.642 330.446 740.445 330.07C740.337 329.862 740.228 329.644 740.124 329.42C739.943 329.044 739.767 328.638 739.59 328.211C739.534 328.069 739.471 327.922 739.414 327.774C739.249 327.358 739.088 326.921 738.922 326.464C738.907 326.428 738.896 326.393 738.886 326.357C738.829 326.19 738.772 326.022 738.71 325.849C738.653 325.682 738.596 325.504 738.539 325.331C738.425 324.976 738.311 324.61 738.197 324.239C738.14 324.051 738.083 323.863 738.026 323.67C737.819 322.959 737.611 322.213 737.409 321.436C737.352 321.222 737.3 321.009 737.243 320.79C737.228 320.729 737.212 320.669 737.197 320.608C736.995 319.795 736.798 318.952 736.601 318.083C736.591 318.022 736.575 317.961 736.559 317.905C736.42 317.255 736.28 316.59 736.14 315.909C735.974 315.076 735.803 314.218 735.642 313.339C735.591 313.045 735.534 312.75 735.482 312.45C735.414 312.054 735.342 311.653 735.275 311.246C735.14 310.434 735.005 309.606 734.87 308.763C734.741 307.92 734.617 307.061 734.497 306.193C734.492 306.162 734.492 306.132 734.482 306.096C734.414 305.588 734.342 305.075 734.275 304.557C734.078 303.008 733.891 301.423 733.72 299.798C733.689 299.523 733.658 299.244 733.632 298.965C733.632 298.955 733.627 298.939 733.627 298.929C733.534 298.005 733.446 297.07 733.363 296.125C733.332 295.81 733.306 295.496 733.28 295.176C733.228 294.591 733.181 294.012 733.14 293.438C733.13 293.311 733.119 293.185 733.114 293.058C733.073 292.504 733.036 291.95 733 291.407L745.984 282.355C746.513 286.033 746.958 289.964 747.3 294.053C747.554 297.065 747.735 299.996 747.849 302.815C748.207 311.607 747.917 319.297 747.098 324.712Z" stroke="black" stroke-width="2.32926" stroke-linecap="round" stroke-linejoin="round"/>
<path d="M734 297.758C734 298.127 734 298.496 734 298.858V298.858C734 298.489 734 298.127 734 297.758Z" stroke="black" stroke-width="2.32926" stroke-linecap="round" stroke-linejoin="round"/>
<path d="M841 315.607L829.322 343.61L808.28 345.069L746.059 328.66C748.195 321.185 748.121 310.966 747.78 302.345C747.671 299.582 747.498 296.708 747.256 293.755C747.241 293.551 747.221 293.352 747.201 293.147C746.885 289.358 746.48 285.707 746 282.286L746.687 281.793L781.394 290.214L789.75 292.241L803.391 295.553C799.218 280.897 797.443 268.566 797.225 258.238L797.848 255.713L798.199 255.673L800.123 253.083L798.98 251.106L799.589 248.631L800.81 248.611C800.81 248.611 802.807 246.38 802.916 244.841C802.975 244.015 802.051 242.326 801.403 241.256L801.655 240.23L803.361 240.215C803.361 240.215 804.834 237.795 804.775 236.619C804.716 235.449 803.949 234.194 803.346 233.372L806.842 219.164C807.647 217.969 808.448 216.903 809.225 215.962C812.893 211.5 815.973 209.742 815.973 209.742L824.156 230.105L824.991 232.182L826.395 239.493L832.857 273.178L833.124 274.572L835.122 284.98L835.206 285.399L841 315.607Z" stroke="black" stroke-width="2.32926" stroke-linecap="round" stroke-linejoin="round"/>
<path d="M794 255.951L789.149 292.258L781 290.224L786.468 256.856L794 255.951Z" fill="#0055FC" stroke="#0055FC" stroke-width="2.32926" stroke-miterlimit="10"/>
<path d="M797 240.547H796.995H787H797Z" stroke="black" stroke-width="2.32926" stroke-linecap="round" stroke-linejoin="round"/>
<path d="M798 232.846H797.995H797.99H786H798Z" stroke="black" stroke-width="2.32926" stroke-linecap="round" stroke-linejoin="round"/>
<path d="M800 219.48L798.966 226.244L787 226.09L790.758 218.543L800 219.48Z" fill="#354FFF" stroke="#354FFF" stroke-width="2.32926" stroke-linecap="round" stroke-linejoin="round"/>
<path d="M772 226.244C771.383 227.319 767.377 234.236 763 240.547C766.292 235.379 771.272 227.402 772 226.244Z" stroke="black" stroke-width="2.32926" stroke-linecap="round" stroke-linejoin="round"/>
<path d="M801.203 232.846H801.208H786H797.454V232.846H801.985H802H801.203Z" stroke="black" stroke-width="2.32926" stroke-linecap="round" stroke-linejoin="round"/>
<path d="M789.942 240.327L787.206 240.347L789.942 240.337L797.07 240.317L800.999 240.302C800.999 240.302 801.263 240.69 801.606 241.258C802.258 242.329 803.188 244.017 803.128 244.843C803.019 246.382 801.009 248.613 801.009 248.613L799.78 248.633L795.911 248.702L788.499 248.827L785.982 248.872L788.494 248.847L795.901 248.772L797.801 248.752L799.169 251.108L800.318 253.084L798.383 255.674L798.03 255.714L794.886 256.077L787.117 256.978L783.61 257.382L775.109 265.927H766.31L746.558 281.792L745.867 282.285L737.844 287.996L733.402 291.158C733.367 290.63 733.337 290.103 733.307 289.58C733.243 288.499 733.193 287.429 733.148 286.378C733.113 285.511 733.083 284.65 733.063 283.808C733.034 282.818 733.019 281.842 733.009 280.885C733.004 280.612 733.004 280.343 733.004 280.074C732.999 279.581 732.999 279.088 733.004 278.605C733.034 268.536 734.038 260.848 735.774 257.945C735.899 257.735 736.028 257.551 736.162 257.392C736.754 257.213 737.381 257.023 738.033 256.824C741.897 255.624 750 250.784 755.417 247.482C757.019 246.511 758.386 245.67 759.336 245.097C759.555 244.968 759.749 244.848 759.918 244.749C760.048 244.674 761.276 242.812 762.918 240.272C762.928 240.257 762.938 240.237 762.953 240.222C767.469 233.789 771.602 226.737 772.239 225.642C772.264 225.597 772.284 225.567 772.299 225.542C772.299 225.537 772.304 225.537 772.304 225.532C772.304 225.532 772.314 225.513 772.319 225.508C772.324 225.498 772.329 225.493 772.329 225.493C772.329 225.493 772.334 225.488 772.339 225.483C772.423 225.373 773.174 224.407 774.348 223.028C774.472 222.883 774.602 222.729 774.741 222.575C774.751 222.565 774.761 222.55 774.771 222.54C775.209 222.032 775.691 221.484 776.213 220.911C776.91 220.15 777.666 219.343 778.472 218.531C778.566 218.432 778.666 218.337 778.76 218.242C778.795 218.207 778.83 218.173 778.865 218.143C778.899 218.103 778.934 218.063 778.969 218.028C778.979 218.018 778.984 218.013 778.989 218.008C779.069 217.934 779.143 217.859 779.208 217.779C779.456 217.53 779.695 217.271 779.939 217.007C780.322 216.589 780.7 216.156 781.068 215.718C783.192 213.213 785.042 210.589 785.724 209.742L796.94 211.286L802.735 212.083L799.641 217.63L794.438 218.013L791.379 218.242L791.359 218.282L787.853 226.06L799.019 226.22L801.223 226.249C801.223 226.249 803.312 228.012 803.272 229.182C803.247 230.009 802.238 231.986 801.999 232.449L791.285 232.429L786.44 232.419L791.28 232.459L798.149 232.519V232.489L802.795 232.519L802.81 232.459C802.81 232.459 803.148 232.818 803.561 233.375C804.168 234.197 804.939 235.452 804.998 236.622C805.058 237.797 803.576 240.217 803.576 240.217L801.86 240.232L797.075 240.267L789.942 240.327Z" stroke="black" stroke-width="2.32926" stroke-linecap="round" stroke-linejoin="round"/>
<path d="M802 232.846V232.846H801.985H797.449H786H801.208H802Z" stroke="black" stroke-width="2.32926" stroke-linecap="round" stroke-linejoin="round"/>
<path d="M779 217.9C778.976 217.926 778.937 217.968 778.883 218.037C778.824 218.1 778.756 218.179 778.668 218.279C778.663 218.285 778.658 218.29 778.648 218.3C778.121 218.912 777.086 220.113 776.011 221.356C775.513 221.936 775.001 222.531 774.527 223.074C774.517 223.084 774.507 223.1 774.497 223.11C773.706 224.022 773.037 224.791 772.715 225.144L748 222.157L748.527 218.295L748.708 216.983L749.157 216.462L751.433 213.827L753.064 211.941L761.122 212.932L761.918 213.032L771.519 214.212L774.024 214.523L778.175 215.029L778.775 217.12L779 217.9Z" stroke="black" stroke-width="2.32926" stroke-linecap="round" stroke-linejoin="round"/>
<path d="M676 271.354L662 280.155" stroke="black" stroke-width="2.32926" stroke-linecap="round" stroke-linejoin="round"/>
<path d="M658 382.475L658.433 374.53L679 371.473" stroke="black" stroke-width="2.32926" stroke-linecap="round" stroke-linejoin="round"/>
<path d="M679 374.021L681.449 373.686L681.431 378.074L684 377.773L683.817 368.172L679.006 368.947L679 374.021Z" fill="#0055FC" stroke="#0055FC" stroke-width="2.32926" stroke-miterlimit="10"/>
<path d="M682 373.672V387.357L678 387.975L678.185 380.187L678.321 374.444L682 373.672Z" stroke="black" stroke-width="2.32926" stroke-linecap="round" stroke-linejoin="round"/>
<path d="M774 223.007C773.862 223.16 773.735 223.312 773.612 223.455C772.452 224.817 771.71 225.771 771.627 225.879C771.622 225.879 771.617 225.889 771.617 225.889C771.617 225.889 771.612 225.894 771.607 225.903C771.602 225.908 771.602 225.913 771.592 225.923C771.592 225.923 771.587 225.933 771.587 225.938C771.572 225.962 771.553 225.992 771.528 226.036C770.786 227.201 765.71 235.231 762.354 240.433C762.339 240.448 762.329 240.467 762.319 240.482C761.15 242.154 759.951 243.776 758.781 245.241C757.843 245.812 756.491 246.643 754.909 247.602C749.558 250.861 741.553 255.641 737.735 256.826C737.499 256.713 737.263 256.663 737.032 256.683C736.624 256.718 736.236 256.958 735.887 257.386C735.74 257.43 735.597 257.47 735.46 257.514L735.415 257.106C735.415 257.106 734.005 257.681 731.617 258.62C731.617 258.62 731.613 258.622 731.607 258.625C731.607 258.625 731.602 258.625 731.597 258.63C731.106 258.822 730.57 259.033 730 259.25L737.528 217.441L747.867 218.513L747.337 222.117L772.206 224.905C772.531 224.576 773.204 223.858 774 223.007Z" stroke="black" stroke-width="2.32926" stroke-linecap="round" stroke-linejoin="round"/>
<path d="M787 257.049L781.298 290.055L746 281.692L765.967 265.936H774.862L783.455 257.449L787 257.049Z" stroke="black" stroke-width="2.32926" stroke-linecap="round" stroke-linejoin="round"/>
<path d="M741 230.645L767 233.945" stroke="black" stroke-width="2.32926" stroke-linecap="round" stroke-linejoin="round"/>
<path d="M740 237.246L763 239.447" stroke="black" stroke-width="2.32926" stroke-linecap="round" stroke-linejoin="round"/>
<path d="M739 243.848L757 246.048" stroke="black" stroke-width="2.32926" stroke-linecap="round" stroke-linejoin="round"/>
<path d="M738 251.549L747 252.649" stroke="black" stroke-width="2.32926" stroke-linecap="round" stroke-linejoin="round"/>
<path opacity="0.4" d="M654 346.168L652.238 384.273L650.08 397.713L646.68 418.925V436.553L646.189 441.425L644.918 453.989H580.489C576.35 453.989 573 450.587 573 446.393V353.769C573 349.571 576.355 346.173 580.489 346.173H654V346.168Z" stroke="black" stroke-width="2.32926" stroke-linecap="round" stroke-linejoin="round"/>
<path opacity="0.51" d="M612 358.27H653" stroke="black" stroke-width="2.32926" stroke-linecap="round" stroke-linejoin="round"/>
<path opacity="0.51" d="M612 369.271H653" stroke="black" stroke-width="2.32926" stroke-linecap="round" stroke-linejoin="round"/>
<path opacity="0.51" d="M613 381.375H653" stroke="black" stroke-width="2.32926" stroke-linecap="round" stroke-linejoin="round"/>
<path opacity="0.51" d="M583 392.377H651" stroke="black" stroke-width="2.32926" stroke-linecap="round" stroke-linejoin="round"/>
<path opacity="0.51" d="M583 404.479H624" stroke="black" stroke-width="2.32926" stroke-linecap="round" stroke-linejoin="round"/>
<path opacity="0.51" d="M583 416.582H625" stroke="black" stroke-width="2.32926" stroke-linecap="round" stroke-linejoin="round"/>
<path opacity="0.51" d="M583 428.684H625" stroke="black" stroke-width="2.32926" stroke-linecap="round" stroke-linejoin="round"/>
<path opacity="0.51" d="M583 440.787H624" stroke="black" stroke-width="2.32926" stroke-linecap="round" stroke-linejoin="round"/>
<path opacity="0.4" d="M648 403.379L645.545 418.562V436.087L645.052 440.931L644.953 441.887H634.028C632.354 441.887 631 440.52 631 438.839V406.426C631 404.745 632.354 403.379 634.028 403.379H648Z" fill="#0055FC" stroke="#0055FC" stroke-width="2.32926" stroke-miterlimit="10"/>
<path opacity="0.4" d="M862 191.542V178.568H848.454C847.628 174.346 845.986 170.417 843.725 166.963L853.393 157.024L844.467 147.853L834.735 157.852C831.467 155.655 827.77 154.065 823.809 153.247V139.328H811.191V153.247C807.215 154.075 803.504 155.671 800.216 157.883L790.454 147.853L781.528 157.024L791.245 167.008C788.989 170.458 787.372 174.361 786.546 178.568H773V179.159L773.295 180.018L774.878 181.134L804.575 202.148L815.674 209.996L823.809 230.646V216.854C827.908 216.011 831.712 214.344 835.065 212.026L844.467 221.687L853.393 212.516L843.941 202.809C846.094 199.436 847.648 195.628 848.454 191.542H862ZM832.981 191.542H832.823C831.172 195.653 828.011 198.951 824.04 200.698C823.961 200.739 823.887 200.769 823.809 200.799C821.862 201.618 819.734 202.077 817.502 202.077C815.271 202.077 813.138 201.618 811.191 200.794C811.098 200.759 811.005 200.724 810.916 200.673C806.969 198.921 803.818 195.628 802.177 191.542H801.941L802.108 191.371C801.341 189.416 800.928 187.28 800.928 185.053C800.928 182.826 801.376 180.568 802.177 178.568C802.201 178.488 802.231 178.417 802.27 178.336C803.971 174.26 807.19 171.003 811.191 169.306V169.16L811.299 169.261C813.211 168.468 815.305 168.023 817.502 168.023C819.7 168.023 821.749 168.448 823.651 169.236L823.809 169.079V169.301C827.795 170.993 831 174.23 832.705 178.286C832.754 178.376 832.789 178.472 832.823 178.568C833.624 180.568 834.072 182.755 834.072 185.053C834.072 187.351 833.639 189.457 832.867 191.421L832.981 191.542Z" fill="#0055FC" stroke="#0055FC" stroke-width="2.32926" stroke-miterlimit="10"/>
<path opacity="0.4" d="M870.367 257.165C870.848 254.2 870.769 251.121 870.08 248.092L879.613 243.848L875.63 235.03L866.096 239.274C864.213 236.663 861.855 234.504 859.204 232.867L862.955 223.08L853.857 219.643L850.077 229.488C847.103 229.021 844.012 229.1 840.974 229.783L836.698 220.321L827.818 224.275L832.095 233.737C829.652 235.468 827.605 237.607 826 240.022L832.476 273.286C832.684 273.434 832.897 273.571 833.11 273.709L832.744 274.663L834.746 284.941L834.83 285.354L838.526 286.756L842.188 277.21C845.27 277.742 848.476 277.683 851.632 276.974L855.914 286.441L864.793 282.487L860.517 273.02C863.143 271.161 865.303 268.835 866.953 266.209L876.536 269.834L880 260.8L870.367 257.165ZM855.715 261.965C855.671 262.014 855.626 262.059 855.582 262.108C854.467 263.273 853.109 264.252 851.538 264.95C849.963 265.649 848.322 266.008 846.702 266.057C846.628 266.062 846.549 266.062 846.469 266.062C843.154 266.101 839.924 264.852 837.516 262.59L837.352 262.664L837.416 262.491C836.277 261.405 835.33 260.087 834.647 258.572C833.938 257.008 833.581 255.38 833.532 253.767C833.522 253.708 833.522 253.649 833.532 253.585C833.472 250.281 834.736 247.054 837.035 244.655L836.985 244.551L837.094 244.586C838.199 243.445 839.532 242.491 841.083 241.802C842.609 241.124 844.2 240.76 845.78 240.701L845.845 240.543L845.909 240.696C849.234 240.597 852.485 241.792 854.932 244.015C854.992 244.064 855.046 244.114 855.101 244.168C856.28 245.279 857.266 246.627 857.97 248.19C858.664 249.72 859.02 251.313 859.08 252.897L859.199 252.941L859.085 252.99C859.189 256.3 857.975 259.531 855.72 261.965H855.715Z" fill="#0055FC" stroke="#0055FC" stroke-width="2.32926" stroke-miterlimit="10"/>
<path d="M586.197 380.324H584.406L584.092 381.054C584.015 381.234 583.976 381.368 583.976 381.457C583.976 381.527 584.009 381.59 584.075 381.644C584.143 381.697 584.289 381.731 584.512 381.747V381.873H583.055V381.747C583.248 381.713 583.373 381.668 583.43 381.614C583.546 381.505 583.674 381.283 583.815 380.948L585.443 377.141H585.562L587.173 380.989C587.303 381.299 587.42 381.5 587.524 381.593C587.631 381.684 587.779 381.735 587.968 381.747V381.873H586.142V381.747C586.327 381.738 586.451 381.707 586.514 381.655C586.58 381.602 586.613 381.539 586.613 381.464C586.613 381.364 586.568 381.205 586.477 380.989L586.197 380.324ZM586.102 380.072L585.317 378.202L584.512 380.072H586.102Z" fill="#0055FC"/>
<path d="M586.197 380.324L586.465 380.211L586.39 380.033H586.197V380.324ZM584.406 380.324V380.033H584.214L584.138 380.209L584.406 380.324ZM584.092 381.054L584.359 381.169L584.359 381.169L584.092 381.054ZM584.075 381.644L583.889 381.869L583.898 381.876L584.075 381.644ZM584.512 381.747H584.803V381.476L584.532 381.456L584.512 381.747ZM584.512 381.873V382.164H584.803V381.873H584.512ZM583.055 381.873H582.763V382.164H583.055V381.873ZM583.055 381.747L583.004 381.46L582.763 381.503V381.747H583.055ZM583.43 381.614L583.23 381.402L583.228 381.404L583.43 381.614ZM583.815 380.948L583.548 380.834L583.547 380.835L583.815 380.948ZM585.443 377.141V376.849H585.251L585.175 377.026L585.443 377.141ZM585.562 377.141L585.831 377.028L585.756 376.849H585.562V377.141ZM587.173 380.989L586.904 381.102L586.904 381.102L587.173 380.989ZM587.524 381.593L587.331 381.811L587.336 381.815L587.524 381.593ZM587.968 381.747H588.259V381.473L587.985 381.456L587.968 381.747ZM587.968 381.873V382.164H588.259V381.873H587.968ZM586.142 381.873H585.851V382.164H586.142V381.873ZM586.142 381.747L586.128 381.456L585.851 381.47V381.747H586.142ZM586.514 381.655L586.333 381.427L586.33 381.43L586.514 381.655ZM586.477 380.989L586.208 381.102L586.208 381.102L586.477 380.989ZM586.102 380.072V380.363H586.539L586.37 379.959L586.102 380.072ZM585.317 378.202L585.585 378.089L585.32 377.458L585.049 378.087L585.317 378.202ZM584.512 380.072L584.244 379.956L584.069 380.363H584.512V380.072ZM586.197 380.033H584.406V380.615H586.197V380.033ZM584.138 380.209L583.824 380.939L584.359 381.169L584.673 380.439L584.138 380.209ZM583.824 380.939C583.746 381.122 583.685 381.304 583.685 381.457H584.267C584.267 381.433 584.283 381.346 584.359 381.169L583.824 380.939ZM583.685 381.457C583.685 381.633 583.772 381.772 583.889 381.869L584.26 381.42C584.251 381.412 584.253 381.412 584.258 381.421C584.261 381.425 584.263 381.431 584.265 381.438C584.266 381.445 584.267 381.451 584.267 381.457H583.685ZM583.898 381.876C583.98 381.939 584.081 381.972 584.169 381.993C584.262 382.015 584.371 382.029 584.491 382.037L584.532 381.456C584.429 381.449 584.354 381.438 584.302 381.426C584.244 381.412 584.237 381.402 584.252 381.413L583.898 381.876ZM584.22 381.747V381.873H584.803V381.747H584.22ZM584.512 381.582H583.055V382.164H584.512V381.582ZM583.346 381.873V381.747H582.763V381.873H583.346ZM583.105 382.034C583.211 382.015 583.308 381.992 583.391 381.962C583.469 381.935 583.56 381.893 583.632 381.824L583.228 381.404C583.243 381.389 583.243 381.397 583.196 381.414C583.154 381.428 583.092 381.445 583.004 381.46L583.105 382.034ZM583.629 381.826C583.794 381.671 583.942 381.397 584.084 381.062L583.547 380.835C583.407 381.168 583.298 381.338 583.23 381.402L583.629 381.826ZM584.083 381.063L585.711 377.255L585.175 377.026L583.548 380.834L584.083 381.063ZM585.443 377.432H585.562V376.849H585.443V377.432ZM585.294 377.253L586.904 381.102L587.441 380.877L585.831 377.028L585.294 377.253ZM586.904 381.102C587.034 381.41 587.172 381.669 587.331 381.811L587.718 381.376C587.668 381.331 587.571 381.187 587.441 380.877L586.904 381.102ZM587.336 381.815C587.505 381.959 587.72 382.024 587.95 382.037L587.985 381.456C587.838 381.447 587.758 381.409 587.713 381.372L587.336 381.815ZM587.677 381.747V381.873H588.259V381.747H587.677ZM587.968 381.582H586.142V382.164H587.968V381.582ZM586.434 381.873V381.747H585.851V381.873H586.434ZM586.157 382.038C586.26 382.032 586.357 382.021 586.444 382C586.527 381.979 586.62 381.944 586.699 381.88L586.33 381.43C586.345 381.417 586.344 381.424 586.304 381.434C586.266 381.444 586.209 381.452 586.128 381.456L586.157 382.038ZM586.695 381.883C586.821 381.783 586.904 381.639 586.904 381.464H586.322C586.322 381.461 586.322 381.456 586.324 381.45C586.325 381.445 586.327 381.439 586.33 381.434C586.335 381.423 586.34 381.422 586.333 381.427L586.695 381.883ZM586.904 381.464C586.904 381.299 586.836 381.093 586.745 380.876L586.208 381.102C586.299 381.318 586.322 381.428 586.322 381.464H586.904ZM586.745 380.876L586.465 380.211L585.929 380.437L586.208 381.102L586.745 380.876ZM586.37 379.959L585.585 378.089L585.048 378.314L585.833 380.184L586.37 379.959ZM585.049 378.087L584.244 379.956L584.779 380.187L585.584 378.317L585.049 378.087ZM584.512 380.363H586.102V379.78H584.512V380.363Z" fill="#0055FC"/>
<path d="M732.5 343.966C733.881 343.966 735 342.734 735 341.215C735 339.696 733.881 338.465 732.5 338.465C731.119 338.465 730 339.696 730 341.215C730 342.734 731.119 343.966 732.5 343.966Z" fill="#0055FC" stroke="#0055FC" stroke-width="2.32926" stroke-miterlimit="10"/>
<path d="M733 390.175C734.657 390.175 736 388.943 736 387.424C736 385.905 734.657 384.674 733 384.674C731.343 384.674 730 385.905 730 387.424C730 388.943 731.343 390.175 733 390.175Z" fill="#0055FC" stroke="#0055FC" stroke-width="2.32926" stroke-miterlimit="10"/>
<path d="M734.5 439.686C735.881 439.686 737 438.701 737 437.486C737 436.27 735.881 435.285 734.5 435.285C733.119 435.285 732 436.27 732 437.486C732 438.701 733.119 439.686 734.5 439.686Z" fill="#0055FC" stroke="#0055FC" stroke-width="2.32926" stroke-miterlimit="10"/>
<path d="M816 209.742L824.119 230.125L826.008 239.583L832.64 272.742L832.964 274.356L835 284.557" stroke="black" stroke-width="2.32926" stroke-linecap="round" stroke-linejoin="round"/>
<path opacity="0.5" d="M791 39.1962C791 19.7604 806.668 4 826 4C845.332 4 861 19.7554 861 39.1962C861 58.637 845.332 74.3924 826 74.3924V97.5185" stroke="black" stroke-width="2.32926" stroke-linecap="round" stroke-linejoin="round"/>
<path opacity="0.5" d="M826 115.123C828.761 115.123 831 112.906 831 110.172C831 107.437 828.761 105.221 826 105.221C823.239 105.221 821 107.437 821 110.172C821 112.906 823.239 115.123 826 115.123Z" stroke="black" stroke-width="2.32926" stroke-linecap="round" stroke-linejoin="round"/>
<g opacity="0.4">
<path d="M885.941 439.067C894.002 400.443 894.722 367.896 887.549 366.37C880.375 364.844 868.025 394.916 859.964 433.539C851.902 472.162 851.182 504.71 858.356 506.236C865.529 507.762 877.879 477.69 885.941 439.067Z" stroke="black" stroke-width="2.32926" stroke-linecap="round" stroke-linejoin="round"/>
<path d="M925.625 484.044C930.521 478.535 910.901 452.7 881.803 426.339C852.705 399.979 825.147 383.076 820.251 388.585C815.356 394.094 834.975 419.93 864.074 446.29C893.172 472.65 920.729 489.553 925.625 484.044Z" stroke="black" stroke-width="2.32926" stroke-linecap="round" stroke-linejoin="round"/>
<path d="M897.636 441.545C893.388 443.245 888.917 444.93 884.273 446.569C881.906 447.399 879.5 448.219 877.054 449.029C874.603 449.839 872.177 450.613 869.776 451.348C865.072 452.803 860.492 454.108 856.066 455.267C840.515 459.366 827.023 461.671 817.893 461.876L816.863 446.264C824.414 441.515 835.296 436.192 848.209 431.038C852.457 429.338 856.937 427.654 861.587 426.014C863.953 425.184 866.35 424.359 868.795 423.554C871.241 422.745 873.667 421.975 876.064 421.235C880.767 419.79 885.357 418.476 889.783 417.316C917.306 410.062 938.373 408.423 940.21 414.082C942.042 419.745 924.084 430.983 897.631 441.545H897.636Z" stroke="black" stroke-width="2.32926" stroke-linecap="round" stroke-linejoin="round"/>
<path d="M870.718 396.495C873.395 396.495 875.565 394.304 875.565 391.601C875.565 388.898 873.395 386.707 870.718 386.707C868.041 386.707 865.871 388.898 865.871 391.601C865.871 394.304 868.041 396.495 870.718 396.495Z" fill="#0055FC" stroke="#0055FC" stroke-width="2.32926" stroke-miterlimit="10"/>
<path d="M872.723 442.542C876.321 442.542 879.238 439.597 879.238 435.963C879.238 432.33 876.321 429.385 872.723 429.385C869.124 429.385 866.207 432.33 866.207 435.963C866.207 439.597 869.124 442.542 872.723 442.542Z" fill="#0055FC" stroke="#0055FC" stroke-width="2.32926" stroke-miterlimit="10"/>
</g>
</g>
</svg>
