<?xml version="1.0" encoding="utf-8"?>
<!-- Generator: Adobe Illustrator 26.0.3, SVG Export Plug-In . SVG Version: 6.00 Build 0)  -->
<svg version="1.1" id="Layer_1" xmlns="http://www.w3.org/2000/svg" xmlns:xlink="http://www.w3.org/1999/xlink" x="0px" y="0px"
	 viewBox="0 0 299 270" style="enable-background:new 0 0 299 270;" xml:space="preserve">
<style type="text/css">
	.st0{fill:#0055FC;}
	.st1{fill:#FFFFFF;}
</style>
<g>
	<g>
		<path class="st0" d="M130.4,148.7h52.4v44c0,2.6-2.1,4.7-4.7,4.7H54.5c-2.6,0-4.7-2.1-4.7-4.7v-65.3c0-0.1,0-0.2,0-0.4v-26.6
			c0-0.9,0.7-1.6,1.6-1.6h41.4c0.9,0,1.6,0.7,1.6,1.6v12.3h31.4v31.4C125.8,146.6,127.9,148.7,130.4,148.7L130.4,148.7z"/>
		<path class="st1" d="M178.1,197.9H54.5c-2.8,0-5.1-2.3-5.1-5.1v-65.2c0-0.1,0-0.3,0-0.4v-26.6c0-1.1,0.9-2.1,2.1-2.1h41.4
			c1.1,0,2.1,0.9,2.1,2.1v11.8h31.4v31.8c0,2.3,1.8,4.1,4.1,4.1h52.9v44.5C183.3,195.5,181,197.8,178.1,197.9L178.1,197.9z
			 M51.4,99.3c-0.6,0-1.2,0.5-1.2,1.2V127c0,0.1,0,0.2,0,0.3l0,0.1v65.4c0,2.3,1.9,4.2,4.2,4.2h123.6c2.3,0,4.2-1.9,4.2-4.2v-43.6
			h-52c-2.8,0-5-2.2-5-5v-31H94v-12.7c0-0.6-0.5-1.2-1.2-1.2L51.4,99.3L51.4,99.3z"/>
	</g>
	<g>
		<path class="st0" d="M189.5,142.7v44c0,2.6-2.1,4.7-4.7,4.7H61.2c-2.6,0-4.7-2.1-4.7-4.7v-65.3c0-0.1,0-0.2,0-0.4V94.4
			c0-0.9,0.7-1.6,1.6-1.6h39.6c1.1,0,2.2,0.6,2.8,1.6l6.4,10.7c0.6,1,1.7,1.6,2.9,1.6h22.8v31.4c0,2.5,2,4.6,4.6,4.6H189.5
			L189.5,142.7z"/>
		<path class="st1" d="M184.8,191.9H61.2c-2.8,0-5.1-2.3-5.1-5.1v-65.2c0-0.1,0-0.3,0-0.4V94.4c0-1.1,0.9-2.1,2.1-2.1h39.6
			c1.3,0,2.5,0.7,3.1,1.8l6.4,10.7c0.5,0.9,1.5,1.4,2.5,1.4h23.3v31.8c0,2.3,1.8,4.1,4.1,4.1h52.9v44.5
			C189.9,189.5,187.6,191.8,184.8,191.9L184.8,191.9z M58,93.3c-0.6,0-1.2,0.5-1.2,1.2V121c0,0.1,0,0.2,0,0.3l0,0.1v65.4
			c0,2.3,1.9,4.2,4.2,4.2h123.6c2.3,0,4.2-1.9,4.2-4.2v-43.6h-52c-2.8,0-5-2.2-5-5v-31h-22.4c-1.3,0-2.6-0.7-3.2-1.8L100,94.6
			c-0.5-0.8-1.4-1.3-2.4-1.3L58,93.3L58,93.3z"/>
	</g>
	<path class="st0" d="M243.1,72.6v66c0,2.5-2,4.6-4.6,4.6H189v-31.3c0-2.6-2.1-4.7-4.7-4.7H132V72.6c0-2.5,2-4.6,4.6-4.6h101.9
		C241,68,243.1,70,243.1,72.6L243.1,72.6z"/>
	<path class="st0" d="M189.5,112.1v4.9h-44.1c-1.4,0-2.4-1.1-2.4-2.4c0-0.7,0.3-1.3,0.7-1.7c0.4-0.4,1.1-0.7,1.7-0.7L189.5,112.1
		L189.5,112.1z"/>
	<path class="st0" d="M189.5,127.1v4.9h-44.1c-1.4,0-2.4-1.1-2.4-2.4c0-0.7,0.3-1.3,0.7-1.7c0.4-0.4,1.1-0.7,1.7-0.7L189.5,127.1
		L189.5,127.1z"/>
	<path class="st1" d="M77.4,140.7c0-3.5,1.7-6.3,5-8.4c3.4-2.2,7.9-3.2,13.5-3.2c5.6,0,9.9,0.9,13.1,2.6c3.2,1.7,4.9,4.3,4.9,7.8
		c0,3-0.7,5.2-2.1,6.8c-1.4,1.5-3.1,3-5.3,4.4c-2.2,1.5-3.9,2.8-5.2,4c-1.3,1.2-1.9,2.7-1.9,4.4v1h-9.1v-1.3c0-2.1,0.6-4,2-5.8
		c1.4-1.8,3.4-3.5,6.1-5.3c2-1.3,3.5-2.5,4.3-3.4c0.9-0.9,1.3-2.1,1.3-3.6c0-1.6-0.7-2.7-2.2-3.5c-1.5-0.8-3.6-1.1-6.3-1.1
		c-3,0-5.5,0.5-7.3,1.4c-1.8,1-2.7,2.4-2.7,4.4v0.9h-8.2L77.4,140.7L77.4,140.7z M90.8,165.8c1-1,2.4-1.4,4.2-1.4s3.2,0.5,4.2,1.4
		c1,1,1.5,2.1,1.5,3.5c0,1.4-0.5,2.6-1.5,3.5c-1,1-2.4,1.4-4.2,1.4s-3.2-0.5-4.2-1.5c-1-1-1.5-2.1-1.5-3.5
		C89.4,167.9,89.9,166.7,90.8,165.8L90.8,165.8z"/>
	<g>
		<path class="st1" d="M144.9,81.2h86.3c1.4,0,2.4,1.1,2.4,2.4v0c0,1.4-1.1,2.4-2.4,2.4h-86.3c-1.4,0-2.4-1.1-2.4-2.4v0
			C142.4,82.3,143.5,81.2,144.9,81.2z"/>
		<path class="st1" d="M144.9,96.8h86.3c1.4,0,2.4,1.1,2.4,2.4v0c0,1.4-1.1,2.4-2.4,2.4h-86.3c-1.4,0-2.4-1.1-2.4-2.4v0
			C142.4,97.9,143.5,96.8,144.9,96.8z"/>
	</g>
	<path class="st1" d="M189,112.1v4.9h42.2c1.3,0,2.3-1.1,2.3-2.4c0-0.7-0.3-1.3-0.7-1.7c-0.4-0.4-1-0.7-1.7-0.7L189,112.1L189,112.1
		z"/>
	<path class="st1" d="M233.5,129.6c0,1.4-1,2.4-2.3,2.4H189v-4.9h42.2c0.6,0,1.2,0.3,1.7,0.7C233.3,128.3,233.5,128.9,233.5,129.6
		L233.5,129.6z"/>
</g>
</svg>
