<?xml version="1.0" encoding="utf-8"?>
<!-- Generator: Adobe Illustrator 26.0.3, SVG Export Plug-In . SVG Version: 6.00 Build 0)  -->
<svg version="1.1" id="Layer_1" xmlns="http://www.w3.org/2000/svg" xmlns:xlink="http://www.w3.org/1999/xlink" x="0px" y="0px"
	 viewBox="0 0 299 270" style="enable-background:new 0 0 299 270;" xml:space="preserve">
<style type="text/css">
	.st0{fill:#0055FC;}
	.st1{fill:#FFFFFF;}
</style>
<g>
	<g>
		<path class="st0" d="M218.6,80.5v52c0,4-3.2,7.2-7.2,7.2h-83.1c0.9-2.8,1.4-5.8,1.4-8.9c0-15.7-12.7-28.4-28.4-28.4
			c-0.8,0-1.6,0-2.4,0.1v-22c0-4,3.2-7.2,7.2-7.2h105.2C215.4,73.3,218.6,76.5,218.6,80.5L218.6,80.5z"/>
		<path class="st1" d="M211.4,140h-83.5l0.1-0.4c0.9-2.8,1.4-5.8,1.4-8.8c0-15.5-12.6-28.1-28.1-28.1c-0.8,0-1.6,0-2.3,0.1l-0.3,0
			V80.5c0-4.1,3.4-7.5,7.5-7.5h105.2c4.1,0,7.5,3.4,7.5,7.5v52C218.9,136.6,215.6,140,211.4,140L211.4,140z M128.8,139.4h82.7
			c3.8,0,6.9-3.1,6.9-6.9v-52c0-3.8-3.1-6.9-6.9-6.9H106.2c-3.8,0-6.9,3.1-6.9,6.9v21.6c0.7,0,1.4-0.1,2.1-0.1
			c15.8,0,28.7,12.9,28.7,28.7C130.1,133.7,129.6,136.6,128.8,139.4z"/>
	</g>
	<path class="st0" d="M242.5,111c0,3.9-1.6,7.4-4.1,9.9c-2.5,2.5-6,4.1-9.9,4.1h-9.9V97h9.9C236.2,97,242.5,103.3,242.5,111
		L242.5,111z"/>
	<path class="st1" d="M218.8,97v28h-69.5c-7.7,0-14-6.3-14-14c0-3.9,1.6-7.4,4.1-9.9c2.5-2.5,6-4.1,9.9-4.1L218.8,97L218.8,97z"/>
	<path class="st1" d="M129.8,130.8c0,3.1-0.5,6.1-1.4,8.9h-22.2c-4,0-7.2-3.2-7.2-7.2v-30c0.8-0.1,1.6-0.1,2.4-0.1
		C117.1,102.4,129.8,115.1,129.8,130.8L129.8,130.8z"/>
	<g>
		<path class="st0" d="M128.3,139.7c-3.7,11.3-14.4,19.5-27,19.5c-15.7,0-28.4-12.7-28.4-28.4s11.4-27.1,26-28.3v30
			c0,4,3.2,7.2,7.2,7.2L128.3,139.7L128.3,139.7z"/>
		<path class="st1" d="M101.4,159.5c-15.8,0-28.7-12.9-28.7-28.7c0-7.2,2.7-14.2,7.6-19.5c4.9-5.3,11.5-8.5,18.7-9.1l0.3,0v30.3
			c0,3.8,3.1,6.9,6.9,6.9h22.6l-0.1,0.4c-1.9,5.7-5.4,10.6-10.3,14.1C113.4,157.5,107.5,159.4,101.4,159.5L101.4,159.5z M98.7,102.8
			c-6.9,0.7-13.2,3.8-17.9,8.9c-4.8,5.2-7.5,12-7.5,19.1c0,15.5,12.6,28.1,28.1,28.1c6,0,11.8-1.9,16.6-5.4c4.6-3.4,8.1-8,9.9-13.4
			h-21.7c-4.1,0-7.5-3.4-7.5-7.5V102.8L98.7,102.8z"/>
	</g>
	<g>
		<path class="st0" d="M82.7,152.3l6.7,4.3c0.9,0.6,1.2,1.8,0.6,2.7l0,0c-0.6,0.9-1.8,1.2-2.7,0.6l-6.7-4.3
			c-0.9-0.6-1.2-1.8-0.6-2.7l0,0C80.5,152,81.8,151.7,82.7,152.3z"/>
		<path class="st1" d="M88.3,160.6c-0.4,0-0.9-0.1-1.2-0.4l-6.7-4.3c-0.5-0.3-0.9-0.8-1-1.4c-0.1-0.6,0-1.2,0.3-1.7
			c0.3-0.5,0.8-0.9,1.4-1c0.6-0.1,1.2,0,1.7,0.3l6.7,4.3c1.1,0.7,1.4,2.1,0.7,3.2c-0.3,0.5-0.8,0.9-1.4,1
			C88.6,160.6,88.5,160.6,88.3,160.6L88.3,160.6z M81.6,152.3c-0.1,0-0.2,0-0.4,0c-0.4,0.1-0.8,0.4-1.1,0.7s-0.3,0.8-0.2,1.3
			c0.1,0.4,0.4,0.8,0.7,1.1l6.7,4.3c0.4,0.2,0.8,0.3,1.3,0.2c0.4-0.1,0.8-0.4,1.1-0.7c0.5-0.8,0.3-1.8-0.5-2.3l-6.7-4.3
			C82.3,152.4,81.9,152.3,81.6,152.3L81.6,152.3z"/>
	</g>
	<g>
		<path class="st0" d="M83.4,157.7L83.4,157.7c2.5,1.6,3.2,4.8,1.6,7.3l-18.4,29.2c-1.6,2.5-4.8,3.2-7.3,1.6l0,0
			c-2.5-1.6-3.2-4.8-1.6-7.3l18.4-29.2C77.7,156.9,80.9,156.2,83.4,157.7z"/>
		<path class="st1" d="M62.1,197c-1,0-2.1-0.3-3-0.9c-1.3-0.8-2.1-2-2.5-3.5c-0.3-1.5-0.1-3,0.7-4.2l18.4-29.2
			c0.8-1.3,2-2.1,3.5-2.5c1.5-0.3,3-0.1,4.2,0.7c1.3,0.8,2.1,2,2.5,3.5c0.3,1.5,0.1,3-0.7,4.2l-18.4,29.2c-0.8,1.3-2,2.1-3.5,2.5
			C62.9,196.9,62.5,197,62.1,197L62.1,197z M80.6,157.2c-0.4,0-0.7,0-1.1,0.1c-1.3,0.3-2.4,1.1-3.1,2.2l-18.4,29.2
			c-0.7,1.1-0.9,2.5-0.7,3.8c0.3,1.3,1.1,2.4,2.2,3.1l0,0c1.1,0.7,2.5,0.9,3.8,0.7c1.3-0.3,2.4-1.1,3.1-2.2l18.4-29.2
			c0.7-1.1,0.9-2.5,0.7-3.8c-0.3-1.3-1.1-2.4-2.2-3.1C82.4,157.5,81.5,157.2,80.6,157.2L80.6,157.2z"/>
	</g>
	<g>
		<circle class="st0" cx="115.8" cy="80.9" r="2.8"/>
		<path class="st1" d="M115.8,84.1c-1.7,0-3.1-1.4-3.1-3.1c0-1.7,1.4-3.1,3.1-3.1c1.7,0,3.1,1.4,3.1,3.1
			C118.9,82.7,117.5,84.1,115.8,84.1z M115.8,78.4c-1.4,0-2.5,1.1-2.5,2.5c0,1.4,1.1,2.5,2.5,2.5s2.5-1.1,2.5-2.5
			C118.3,79.6,117.2,78.4,115.8,78.4z"/>
	</g>
	<g>
		<circle class="st1" cx="106.6" cy="80.9" r="2.8"/>
		<path class="st1" d="M106.6,84.1c-1.7,0-3.1-1.4-3.1-3.1c0-1.7,1.4-3.1,3.1-3.1c1.7,0,3.1,1.4,3.1,3.1
			C109.7,82.7,108.3,84.1,106.6,84.1z M106.6,78.4c-1.4,0-2.5,1.1-2.5,2.5c0,1.4,1.1,2.5,2.5,2.5s2.5-1.1,2.5-2.5
			C109.1,79.6,107.9,78.4,106.6,78.4z"/>
	</g>
	<g>
		<circle class="st0" cx="125.2" cy="80.9" r="2.8"/>
		<path class="st1" d="M125.2,84.1c-1.7,0-3.1-1.4-3.1-3.1c0-1.7,1.4-3.1,3.1-3.1c1.7,0,3.1,1.4,3.1,3.1
			C128.3,82.7,126.9,84.1,125.2,84.1z M125.2,78.4c-1.4,0-2.5,1.1-2.5,2.5c0,1.4,1.1,2.5,2.5,2.5s2.5-1.1,2.5-2.5
			C127.7,79.6,126.6,78.4,125.2,78.4z"/>
	</g>
	<rect x="99" y="87.8" class="st1" width="120.1" height="0.6"/>
	<g>
		<path class="st0" d="M148.9,105.1c0.4-0.4,1-0.6,1.7-0.6c0.7,0,1.3,0.2,1.7,0.6c0.4,0.4,0.6,0.9,0.6,1.5s-0.2,1.1-0.6,1.5
			c-0.4,0.4-1,0.6-1.7,0.6c-0.7,0-1.3-0.2-1.7-0.6c-0.4-0.4-0.6-0.9-0.6-1.5S148.5,105.5,148.9,105.1z M148.9,114.1
			c0.4-0.4,1-0.6,1.7-0.6c0.7,0,1.3,0.2,1.7,0.6c0.4,0.4,0.6,0.9,0.6,1.5s-0.2,1.1-0.6,1.5c-0.4,0.4-1,0.6-1.7,0.6s-1.3-0.2-1.7-0.6
			c-0.4-0.4-0.6-0.9-0.6-1.5S148.5,114.5,148.9,114.1L148.9,114.1z"/>
		<path class="st0" d="M158.2,116.6c-1.2-1.4-1.8-3.2-1.8-5.6V111c0-2.4,0.6-4.2,1.8-5.6s2.6-2.2,4.4-2.6v1.7
			c-0.9,0.3-1.7,1-2.3,1.9s-0.9,2.5-0.9,4.6v0.2c0,2.1,0.3,3.6,0.9,4.6c0.6,1,1.4,1.6,2.3,1.9v1.7
			C160.8,118.9,159.4,118,158.2,116.6L158.2,116.6z"/>
		<path class="st0" d="M168.6,113.8c0.4-0.4,1-0.6,1.8-0.6s1.4,0.2,1.8,0.6c0.4,0.4,0.6,1,0.6,1.6s-0.2,1.2-0.6,1.6
			c-0.4,0.4-1,0.6-1.8,0.6s-1.4-0.2-1.8-0.7c-0.4-0.4-0.6-1-0.6-1.6C167.9,114.8,168.1,114.2,168.6,113.8z"/>
		<path class="st0" d="M176.7,113.8c0.4-0.4,1-0.6,1.8-0.6s1.4,0.2,1.8,0.6c0.4,0.4,0.6,1,0.6,1.6s-0.2,1.2-0.6,1.6
			c-0.4,0.4-1,0.6-1.8,0.6s-1.4-0.2-1.8-0.7c-0.4-0.4-0.6-1-0.6-1.6C176,114.8,176.3,114.2,176.7,113.8z"/>
		<path class="st0" d="M184.8,113.8c0.4-0.4,1-0.6,1.8-0.6c0.8,0,1.4,0.2,1.8,0.6c0.4,0.4,0.6,1,0.6,1.6s-0.2,1.2-0.6,1.6
			c-0.4,0.4-1,0.6-1.8,0.6c-0.8,0-1.4-0.2-1.8-0.7c-0.4-0.4-0.6-1-0.6-1.6C184.1,114.8,184.4,114.2,184.8,113.8z"/>
	</g>
</g>
</svg>
