<?xml version="1.0" encoding="utf-8"?>
<!-- Generator: Adobe Illustrator 26.0.3, SVG Export Plug-In . SVG Version: 6.00 Build 0)  -->
<svg version="1.1" id="Layer_1" xmlns="http://www.w3.org/2000/svg" xmlns:xlink="http://www.w3.org/1999/xlink" x="0px" y="0px"
	 viewBox="0 0 299 270" style="enable-background:new 0 0 299 270;" xml:space="preserve">
<style type="text/css">
	.st0{fill:#0055FC;}
	.st1{fill:#FFFFFF;}
</style>
<path class="st0" d="M194.7,126.9c-0.4,0.4-0.8,0.8-1.2,1.2c-0.1,0.1-0.2,0.2-0.4,0.3l0,0l-3.9,3.9l-42.3-22.9l11.7,53.3l0,0.1
	l-24.4,24.4l-58.8-58.8l0,0c-0.1-0.1-0.2-0.2-0.4-0.3c-0.4-0.4-0.8-0.8-1.2-1.2c-16.3-16.3-16.3-42.6,0-58.9
	c16.3-16.3,42.6-16.3,58.9,0c0.4,0.4,0.8,0.8,1.2,1.2c0.1,0.1,0.2,0.2,0.3,0.4c0,0,0,0,0,0c0,0,0,0,0,0c0.1-0.1,0.2-0.2,0.3-0.3
	c0.4-0.4,0.8-0.9,1.2-1.3c16.3-16.3,42.6-16.3,58.9,0C210.9,84.3,210.9,110.6,194.7,126.9L194.7,126.9z"/>
<path class="st1" d="M134.3,188l-59.5-59.5c0,0,0,0,0,0c-0.4-0.4-0.8-0.7-1.2-1.2c-16.4-16.4-16.4-43.2,0-59.6
	c16.4-16.4,43.2-16.4,59.6,0c0.4,0.4,0.8,0.8,1.2,1.2c0.3-0.4,0.7-0.8,1.2-1.2c16.4-16.4,43.2-16.4,59.6,0
	c16.4,16.4,16.4,43.2,0,59.6c-0.4,0.4-0.9,0.8-1.3,1.2c-0.1,0.1-0.1,0.1-0.2,0.2l-0.2,0.2l-4.1,4.1l-41.6-22.5l11.4,52.2l0.1,0.4
	L134.3,188L134.3,188z M76.1,128.4l58.2,58.2l23.8-23.8l-11.9-54.2l42.9,23.2l3.3-3.3l0,0l0.4-0.4c0.1-0.1,0.2-0.2,0.3-0.3
	c0.4-0.4,0.8-0.7,1.2-1.2c16-16,16-42.1,0-58.2c-16-16-42.1-16-58.2,0c-0.5,0.5-0.9,0.9-1.2,1.3l0,0c-0.1,0.1-0.1,0.1-0.1,0.2v1
	l-0.9-0.9c-0.1-0.1-0.2-0.2-0.3-0.3c-0.4-0.4-0.7-0.8-1.2-1.2c-16-16-42.1-16-58.2,0c-16,16-16,42.1,0,58.2c0.4,0.4,0.8,0.8,1.2,1.2
	c0.1,0.1,0.2,0.2,0.4,0.3L76.1,128.4L76.1,128.4L76.1,128.4z"/>
<path class="st1" d="M189.2,132.3l-30.6,30.6l0-0.1l-11.7-53.3L189.2,132.3z"/>
<path class="st0" d="M158.3,163.9l-0.2-1.1l-11.9-54.4l43.8,23.7L158.3,163.9z M147.7,110.4l11.3,51.5l29.5-29.5L147.7,110.4
	L147.7,110.4z"/>
<path class="st0" d="M215.7,172.6l16.1,21.4l-26.2,19.8L189.3,192l-21,15.4l-9.7-44.5l30.6-30.6l5.6,3l41.3,22.3L215.7,172.6z"/>
<path class="st1" d="M205.6,214.4l-16.4-21.7L168,208.3l-10-45.5l31-31l47.9,25.9l-20.5,15.1l16.1,21.4L205.6,214.4z M189.4,191.3
	l16.4,21.7l25.4-19.2L215,172.5l20.1-14.8l-45.8-24.8l-30.1,30.1l9.5,43.5L189.4,191.3L189.4,191.3z"/>
</svg>
