<svg width="155" height="155" viewBox="0 0 155 155" fill="none" xmlns="http://www.w3.org/2000/svg">
<path d="M58.5516 109.273L52.8887 123.91L55.4801 127.704L70.2628 128.04L76.5504 110.902L58.5516 109.273Z" fill="white"/>
<path d="M89.758 126.104L56.3455 125.995L53.8633 125.987C54.1716 125.211 62.161 104.706 62.6941 103.348L65.9839 104.632L58.0892 124.872L56.543 122.464L89.758 126.101V126.104Z" fill="#0055FF"/>
<path d="M119.587 137.055H133.469C133.98 137.055 134.47 137.258 134.831 137.619C135.193 137.98 135.396 138.47 135.396 138.981V146.748C135.394 148.88 134.547 150.924 133.039 152.431C131.531 153.938 129.487 154.785 127.355 154.785H125.703C123.57 154.785 121.524 153.938 120.016 152.43C118.507 150.921 117.66 148.876 117.66 146.743V138.981C117.66 138.47 117.863 137.98 118.224 137.619C118.586 137.258 119.076 137.055 119.587 137.055Z" fill="white"/>
<path d="M134.786 77.3276C138.918 78.8559 142.584 81.4258 145.43 84.7881C148.276 88.1505 150.205 92.1912 151.03 96.5185C151.854 100.846 151.547 105.313 150.137 109.486C148.727 113.659 146.263 117.398 142.983 120.338C141.624 121.563 140.549 123.07 139.833 124.753C139.117 126.437 138.777 128.256 138.837 130.084C138.837 130.21 138.837 130.335 138.837 130.46C138.837 133.888 137.475 137.175 135.052 139.599C132.628 142.023 129.34 143.385 125.912 143.385C125.813 143.385 125.711 143.385 125.612 143.385C122.304 143.297 119.155 141.949 116.809 139.615C114.463 137.281 113.098 134.138 112.994 130.831C112.985 130.563 112.994 130.296 112.994 130.028C113.112 126.411 111.733 122.885 109.018 120.492C106.41 118.194 104.296 115.39 102.804 112.249H130.048C131.305 112.249 132.51 111.75 133.399 110.862C134.287 109.973 134.786 108.768 134.786 107.511V77.326M131.254 72.2539V107.51C131.254 107.829 131.126 108.136 130.9 108.362C130.674 108.588 130.368 108.715 130.048 108.715H97.2266L99.6205 113.762C101.311 117.337 103.715 120.529 106.685 123.14C108.541 124.776 109.554 127.242 109.466 129.909C109.455 130.243 109.455 130.585 109.466 130.924C109.595 135.138 111.332 139.143 114.321 142.118C117.31 145.092 121.323 146.809 125.538 146.917H125.919C130.281 146.911 134.462 145.175 137.546 142.09C140.63 139.005 142.365 134.822 142.37 130.46C142.37 130.299 142.37 130.139 142.37 129.978C142.325 128.663 142.567 127.354 143.081 126.142C143.594 124.93 144.365 123.845 145.341 122.962C149.07 119.614 151.871 115.36 153.473 110.612C155.075 105.864 155.424 100.783 154.485 95.8605C153.547 90.9382 151.353 86.3415 148.117 82.5157C144.881 78.69 140.712 75.7647 136.013 74.0233L131.254 72.2571V72.2539Z" fill="#0055FF"/>
<path d="M119.752 105.062L114.23 101.118L116.284 98.2435L119.752 100.721L124.246 97.5098L128.74 100.721L133.236 97.5098L138.758 101.455L136.704 104.329L133.236 101.851L128.74 105.062L124.246 101.851L119.752 105.062Z" fill="white"/>
<path d="M91.6189 129.471H55.4801C54.74 129.471 54.0111 129.29 53.3566 128.945C52.7022 128.599 52.1419 128.099 51.7244 127.488C51.3069 126.877 51.0449 126.173 50.961 125.438C50.8771 124.703 50.9739 123.958 51.2429 123.269L57.6653 106.814L60.9552 108.099L54.5328 124.555C54.4727 124.709 54.4512 124.875 54.4699 125.039C54.4886 125.203 54.5471 125.36 54.6402 125.497C54.7334 125.633 54.8584 125.745 55.0045 125.822C55.1505 125.9 55.3132 125.94 55.4785 125.94H91.6189V129.471Z" fill="white"/>
<path d="M134.786 77.3281V107.513C134.786 108.77 134.287 109.975 133.399 110.864C132.51 111.752 131.305 112.251 130.048 112.251H102.812C104.304 115.392 106.418 118.196 109.026 120.495C111.741 122.887 113.12 126.413 113.002 130.03C112.994 130.295 112.992 130.562 113.002 130.833C113.05 134.261 114.458 137.529 116.917 139.919C119.375 142.308 122.682 143.624 126.11 143.575C129.538 143.527 132.806 142.118 135.195 139.66C137.585 137.202 138.9 133.895 138.852 130.467C138.852 130.342 138.852 130.216 138.852 130.091C138.791 128.263 139.131 126.444 139.847 124.76C140.562 123.077 141.637 121.57 142.996 120.345C146.276 117.405 148.74 113.666 150.15 109.493C151.56 105.32 151.867 100.853 151.043 96.5254C150.218 92.1982 148.289 88.1575 145.443 84.7951C142.597 81.4327 138.931 78.8628 134.799 77.3345L134.786 77.3281Z" fill="white"/>
<path d="M125.722 75.7457C128.814 75.7192 131.885 76.2551 134.785 77.3272V52.2269C134.785 50.9495 134.278 49.7243 133.375 48.821C132.471 47.9176 131.246 47.4102 129.969 47.4102H64.6048C64.6128 47.4278 64.6208 47.4471 64.6305 47.4664C62.8804 49.2116 61.1367 50.9264 59.4283 52.6781C59.0887 53.028 58.8305 53.4485 58.6721 53.9096C57.537 57.2171 56.4452 60.5391 55.3341 63.8531C54.178 67.3003 51.5497 69.2318 47.9371 69.1242C45.9156 69.0648 43.899 68.7839 41.8792 68.6024L41.1454 68.535V75.317C41.1454 75.6692 41.0761 76.0178 40.9413 76.3431C40.8066 76.6685 40.6091 76.9641 40.3601 77.213C40.1111 77.462 39.8155 77.6595 39.4902 77.7943C39.1649 77.929 38.8162 77.9984 38.4641 77.9984H26.8652V107.509C26.8657 108.766 27.3652 109.971 28.254 110.86C29.1429 111.748 30.3482 112.247 31.605 112.247H102.812C101.203 108.856 100.364 105.15 100.357 101.397C100.302 87.3767 111.702 75.8517 125.722 75.7457Z" fill="white"/>
<path d="M87.2794 91.7576H74.5068C74.5068 91.7576 78.6429 87.7805 78.6429 79.828C78.6429 71.8755 74.5068 67.8984 74.5068 67.8984H87.2794C87.2794 67.8984 83.145 71.8755 83.145 79.828C83.145 87.7805 87.2794 91.7576 87.2794 91.7576ZM89.76 71.8755H72.0262C75.308 77.1344 75.3343 82.3938 72.1049 87.6537C72.0839 87.6913 72.0535 87.7228 72.0166 87.7451C71.9797 87.7673 71.9376 87.7796 71.8945 87.7806H89.76C86.4525 82.4789 86.4525 77.1772 89.76 71.8755Z" fill="#0055FF"/>
<path d="M92.7568 86.4677H88.8086C88.8086 86.4677 91.1094 84.2536 91.1094 79.8286C91.1094 75.4036 88.8086 73.1895 88.8086 73.1895H92.7568V86.4677Z" fill="#0055FF"/>
<path d="M68.8965 73.1895H72.8463C72.8463 73.1895 70.5454 75.402 70.5454 79.8286C70.5454 84.2552 72.8463 86.4677 72.8463 86.4677H68.8965V73.1895Z" fill="#0055FF"/>
<path d="M31.6823 47.4102H64.6051C64.4735 47.1277 64.3562 46.8708 64.231 46.6187C62.7458 43.6499 61.2703 40.678 59.761 37.7205C59.641 37.5192 59.5783 37.289 59.5797 37.0546C59.5811 36.8203 59.6466 36.5908 59.7691 36.391C61.3345 33.3773 62.2497 30.179 62.3123 26.7719C62.4279 20.6305 60.1512 15.3722 56.1565 10.8396C46.9965 0.422449 30.4059 -3.68788 16.7792 3.89857C6.57081 9.57917 0.883781 18.4164 0.0809824 30.0987C-0.541989 39.1671 2.44121 47.118 8.61794 53.815C8.79386 53.9909 8.93169 54.2011 9.02284 54.4326C9.114 54.6641 9.15653 54.9118 9.14779 55.1605C9.12959 62.4691 9.12584 69.7778 9.13655 77.0865C9.13655 77.39 9.15261 77.695 9.16224 77.9985H26.872V52.227C26.872 50.9507 27.3786 49.7265 28.2805 48.8233C29.1824 47.9202 30.406 47.4119 31.6823 47.4102Z" fill="white"/>
<path d="M31.5835 19.2125C30.5078 18.6521 29.4513 18.1415 28.4237 17.6855C28.1733 17.8247 27.9233 17.9665 27.6739 18.111C25.1228 19.5733 22.6802 21.2174 20.3652 23.0306C21.0508 23.6375 21.8022 24.2589 22.6131 24.8834C24.6769 23.307 26.8422 21.868 29.0949 20.5756C29.9298 20.0923 30.7615 19.638 31.5835 19.2125Z" fill="#0055FF"/>
<path d="M34.0691 29.1906C33.2321 29.6734 32.403 30.1278 31.582 30.5538C32.6562 31.1141 33.7143 31.6247 34.7402 32.0823C34.9907 31.941 35.2412 31.7997 35.4917 31.6552C38.0419 30.1929 40.4839 28.5494 42.7987 26.7373C42.1131 26.1288 41.3537 25.5074 40.5509 24.8828C38.4872 26.4594 36.3219 27.8985 34.0691 29.1906Z" fill="#0055FF"/>
<path d="M44.5106 14.9362C45.8128 14.9362 46.7248 15.2573 47.1101 15.9188C47.9306 17.3414 46.1757 20.0356 42.7991 23.0316C43.581 23.6498 44.3148 24.2696 44.9923 24.8845C45.474 24.4478 45.9284 24.0143 46.3507 23.5856C47.7556 22.1566 48.7799 20.8095 49.4013 19.5812C50.5991 17.2033 50.1575 15.503 49.5763 14.4963C48.9421 13.3997 47.55 12.0879 44.5123 12.0879C42.4908 12.0879 39.9299 12.6434 36.8969 13.7417C35.0863 14.4058 33.3128 15.1669 31.584 16.0216C32.6324 16.537 33.6889 17.0925 34.7422 17.6834C38.7112 15.914 42.2163 14.9362 44.5106 14.9362Z" fill="#0055FF"/>
<path d="M18.6529 34.8311C17.3507 34.8311 16.4371 34.51 16.0518 33.8485C15.2313 32.4259 16.9879 29.7317 20.3628 26.7373C19.5804 26.1175 18.8498 25.4994 18.1712 24.8828C17.6895 25.3195 17.2335 25.753 16.8128 26.1817C15.4079 27.6107 14.382 28.9594 13.7622 30.1861C12.5644 32.564 13.006 34.2643 13.5872 35.271C14.2198 36.3693 15.6135 37.6794 18.6513 37.6794C20.6711 37.6794 23.2336 37.1223 26.265 36.024C28.0761 35.3599 29.8502 34.5988 31.5795 33.7441C30.5311 33.2287 29.473 32.6732 28.4197 32.0839C24.4523 33.8501 20.9473 34.8311 18.6529 34.8311Z" fill="#0055FF"/>
<path d="M46.3542 26.1759C45.932 25.7472 45.476 25.3137 44.9959 24.877C44.3183 25.4919 43.5846 26.1117 42.8026 26.7314C46.1744 29.7259 47.9406 32.42 47.1137 33.8426C46.7283 34.5105 45.8163 34.8252 44.5142 34.8252C42.2198 34.8252 38.7148 33.8442 34.7441 32.0765C33.6909 32.6657 32.6344 33.2212 31.5859 33.7366C33.3148 34.5913 35.0883 35.3524 36.8989 36.0166C39.9318 37.1148 42.4928 37.672 44.5142 37.672C47.552 37.672 48.944 36.3634 49.5783 35.2636C50.1595 34.2569 50.601 32.5565 49.4033 30.1786C48.7787 28.9584 47.7543 27.6097 46.3542 26.1759Z" fill="#0055FF"/>
<path d="M22.6131 24.8828C21.8006 25.5074 21.0492 26.1288 20.3652 26.7373C22.6807 28.5494 25.1232 30.1929 27.6739 31.6552C27.9228 31.7997 28.1733 31.941 28.4237 32.0823C29.4497 31.6247 30.511 31.119 31.5835 30.5538C30.7631 30.1283 29.9314 29.6739 29.0965 29.1906C26.8429 27.8989 24.6771 26.4598 22.6131 24.8828Z" fill="#0055FF"/>
<path d="M16.0521 15.9156C16.4375 15.2493 17.3511 14.933 18.6532 14.933C20.9476 14.933 24.4526 15.914 28.4217 17.6834C29.4749 17.0925 30.533 16.537 31.5815 16.0216C29.8525 15.1672 28.079 14.4061 26.2686 13.7417C23.2356 12.6434 20.673 12.0879 18.6532 12.0879C15.6154 12.0879 14.2218 13.3965 13.5891 14.4963C13.0079 15.503 12.5664 17.2033 13.7642 19.5812C14.3823 20.8095 15.4083 22.1502 16.8148 23.5856C17.2355 24.0143 17.6914 24.4478 18.1731 24.8845C18.8507 24.2701 19.5812 23.6525 20.3648 23.0316C16.9882 20.0324 15.2317 17.3446 16.0521 15.9156Z" fill="#0055FF"/>
<path d="M40.5509 24.8834C41.3537 24.2589 42.1131 23.6375 42.7987 23.0306C40.4843 21.2174 38.0423 19.5733 35.4917 18.111C35.2412 17.9665 34.9907 17.8247 34.7402 17.6855C33.7143 18.1415 32.653 18.6489 31.582 19.2125C32.403 19.6406 33.2321 20.095 34.0691 20.5756C36.3215 21.8684 38.4868 23.3074 40.5509 24.8834Z" fill="#0055FF"/>
<path d="M127.158 57.643C128.698 57.643 129.946 56.3951 129.946 54.8557C129.946 53.3163 128.698 52.0684 127.158 52.0684C125.619 52.0684 124.371 53.3163 124.371 54.8557C124.371 56.3951 125.619 57.643 127.158 57.643Z" fill="#0055FF"/>
<path d="M119.537 57.643C121.077 57.643 122.325 56.3951 122.325 54.8557C122.325 53.3163 121.077 52.0684 119.537 52.0684C117.998 52.0684 116.75 53.3163 116.75 54.8557C116.75 56.3951 117.998 57.643 119.537 57.643Z" fill="#0055FF"/>
<path d="M111.916 57.643C113.456 57.643 114.704 56.3951 114.704 54.8557C114.704 53.3163 113.456 52.0684 111.916 52.0684C110.377 52.0684 109.129 53.3163 109.129 54.8557C109.129 56.3951 110.377 57.643 111.916 57.643Z" fill="#0055FF"/>
<path d="M112.969 55.916H110.75V56.4844H112.969V55.916Z" fill="white"/>
<path d="M128.308 55.5993L126.418 53.709L126.016 54.1109L127.906 56.0012L128.308 55.5993Z" fill="white"/>
<path d="M126.416 56.0036L128.307 54.1133L127.905 53.7114L126.014 55.6017L126.416 56.0036Z" fill="white"/>
<path d="M120.036 54.5656V53.6055H118.117V55.5258H119.077V54.5656H120.036Z" fill="white"/>
<path d="M120.037 54.5645V55.5246H119.078V56.4847H120.997V54.5645H120.037Z" fill="white"/>
<path d="M35.513 93.2177C36.1359 93.5035 36.7653 93.7781 37.3835 94.0767C40.2917 95.4886 43.1979 96.9047 46.1019 98.3251C46.2892 98.4141 46.4645 98.5263 46.6237 98.6591C46.8485 98.8534 46.8196 99.099 46.5482 99.2178C46.3058 99.3176 46.0534 99.3908 45.7952 99.4362C44.8318 99.6289 43.8797 99.8071 42.9228 99.9981C42.2805 100.125 41.8149 100.506 41.4248 101.006C41.1036 101.426 41.0137 101.926 40.9174 102.429C40.7033 103.545 40.4823 104.66 40.2543 105.773C40.2299 105.877 40.1933 105.977 40.1451 106.072C40.0247 106.321 39.8079 106.339 39.6634 106.104C39.5579 105.94 39.4697 105.766 39.4001 105.584C38.288 102.667 37.1806 99.7466 36.0781 96.8223C35.757 95.9777 35.4359 95.1348 35.1148 94.287C35.047 94.1135 34.9981 93.9331 34.9687 93.7492C34.9269 93.4634 35.0184 93.3237 35.2801 93.2129L35.513 93.2177Z" fill="#0055FF"/>
</svg>
