<svg width="151" height="130" viewBox="0 0 151 130" fill="none" xmlns="http://www.w3.org/2000/svg">
<path d="M32.8191 87.0004V19.157L0.679688 30.8603V13.0975L37.0371 0.5625H53.6712V87.0004H32.8191Z" fill="#D8D8D8"/>
<path d="M72.5009 126.883C88.7937 126.883 102.002 113.478 102.002 96.9415C102.002 80.4052 88.7937 67 72.5009 67C56.208 67 43 80.4052 43 96.9415C43 105.351 46.4157 112.95 51.9159 118.389L47.3022 130.002L60.9028 124.48C64.4629 126.027 68.3834 126.883 72.5009 126.883Z" fill="#0055FF"/>
<path d="M102.999 121.003C76.4882 121.003 54.9972 99.5118 54.9972 73.0014C54.9972 46.491 76.4882 25 102.999 25C129.509 25 151 46.491 151 73.0014C151 86.483 145.442 98.6664 136.493 107.386L144 126.003L121.87 117.151C116.077 119.63 109.698 121.003 102.999 121.003Z" fill="black"/>
<path d="M105.813 86.0383H95.4777L95.3879 83.7914C95.3879 80.4361 95.8972 77.68 96.9157 75.5231C97.9942 73.3661 99.8216 71.3589 102.398 69.5015L106.982 66.1762C110.517 63.5998 112.284 61.1133 112.284 58.7167C112.284 56.6197 111.355 54.9121 109.498 53.5939C107.701 52.2758 105.424 51.6167 102.668 51.6167C98.174 51.6167 94.5491 53.2644 91.7929 56.5597C90.7744 57.6382 89.636 58.1775 88.3777 58.1775C87.8385 58.1775 87.2393 58.0576 86.5803 57.818L80.1094 55.1218C82.0866 50.9277 85.0824 47.5724 89.0967 45.0559C93.1111 42.5395 97.7845 41.2812 103.117 41.2812C109.228 41.2812 114.291 42.869 118.306 46.0445C122.32 49.2201 124.327 53.2045 124.327 57.9977C124.327 61.1733 123.488 63.9593 121.811 66.356C120.193 68.7526 117.317 71.3589 113.183 74.175C110.606 75.8526 108.719 77.4104 107.521 78.8484C106.382 80.2264 105.813 82.4433 105.813 85.499V86.0383ZM100.69 105.99C98.7132 105.99 97.0056 105.271 95.5676 103.833C94.1296 102.395 93.4107 100.688 93.4107 98.7104C93.4107 96.6134 94.1296 94.8758 95.5676 93.4978C97.0056 92.0598 98.7132 91.3408 100.69 91.3408C102.787 91.3408 104.525 92.0598 105.903 93.4978C107.281 94.9357 107.97 96.6733 107.97 98.7104C107.97 100.628 107.281 102.335 105.903 103.833C104.525 105.271 102.787 105.99 100.69 105.99Z" fill="#EEEEEE"/>
</svg>
