<svg width="140" height="39" viewBox="0 0 140 39" fill="none" xmlns="http://www.w3.org/2000/svg">
<path fill-rule="evenodd" clip-rule="evenodd" d="M8.72519 38.1796H28.6003C28.6003 38.1796 26.454 36.0871 24.6397 31.9021H32.4573C32.0324 31.2107 31.6427 30.5192 31.288 29.8277H37.1156L37.0734 8.8457H31.2987C31.6505 8.16119 32.0367 7.47667 32.4573 6.79215H24.6397C26.454 2.60715 28.6003 0.514648 28.6003 0.514648H8.72519C8.72519 0.514648 10.8715 2.60715 12.6857 6.79215H4.8682C5.29006 7.47664 5.6774 8.16116 6.03024 8.8457H0V29.8063H6.05314C5.72959 30.4372 5.37677 31.0681 4.99468 31.699C4.96207 31.7585 4.91485 31.8085 4.85762 31.8441C4.80038 31.8797 4.73505 31.8997 4.66797 31.9021H12.6857C10.8715 36.0871 8.72519 38.1796 8.72519 38.1796ZM6.08445 29.7451C9.62475 22.8018 9.61983 15.8609 6.06973 8.92258C5.55829 9.47001 2.57133 12.9406 2.57133 19.326C2.57133 25.7759 5.61887 29.2517 6.08445 29.7451ZM12.6857 31.9021C14.0139 28.8385 15.164 24.6535 15.164 19.3471C15.164 14.0408 14.0139 9.85578 12.6857 6.79215H24.6397C23.3116 9.85578 22.1614 14.0408 22.1614 19.3471C22.1614 24.6535 23.3116 28.8385 24.6397 31.9021H12.6857ZM31.1606 29.5764C27.7448 22.7528 27.7468 15.9292 31.1668 9.10556C31.9662 10.0356 34.5127 13.4602 34.5127 19.3474C34.5127 25.2498 31.953 28.6616 31.1606 29.5764Z" fill="#0055FF"/>
<path fill-rule="evenodd" clip-rule="evenodd" d="M68.7802 11.4986C68.7463 10.812 68.8864 10.1281 69.1871 9.51215C69.4878 8.89619 69.9392 8.36875 70.498 7.9802C71.7425 7.13568 73.217 6.70923 74.7132 6.76106C76.2087 6.71567 77.6813 7.14157 78.9285 7.9802C79.4885 8.36823 79.9414 8.89527 80.2439 9.51114C80.5464 10.127 80.6886 10.8112 80.6568 11.4986V11.5735C80.6946 12.2783 80.5559 12.9814 80.2537 13.6171C79.9515 14.2529 79.4956 14.8007 78.9285 15.2095C77.6846 16.0564 76.2105 16.4865 74.7132 16.4393C73.2152 16.4931 71.7391 16.0625 70.498 15.2095C69.9321 14.8002 69.4777 14.252 69.1773 13.6161C68.8769 12.9802 68.7403 12.2775 68.7802 11.5735V11.4986ZM71.9417 14.1401C72.7367 14.744 73.71 15.0569 74.7027 15.0277C75.6991 15.073 76.6798 14.7627 77.4743 14.1507C77.8304 13.8439 78.1111 13.457 78.2941 13.0207C78.477 12.5844 78.5571 12.1108 78.5281 11.6376V11.5093C78.5573 11.0485 78.4768 10.5874 78.2934 10.1649C78.1099 9.74234 77.829 9.37082 77.4743 9.0817C76.6646 8.4942 75.687 8.19354 74.6922 8.22616C73.7008 8.1813 72.7236 8.47915 71.9207 9.071C71.5664 9.36295 71.286 9.73651 71.1027 10.1606C70.9194 10.5847 70.8385 11.0471 70.8668 11.5093V11.6162C70.8391 12.1091 70.9302 12.6014 71.1322 13.0504C71.3341 13.4995 71.6409 13.8919 72.026 14.1935L71.9417 14.1401Z" fill="#0055FF"/>
<path fill-rule="evenodd" clip-rule="evenodd" d="M60.4387 7.94833H63.01C64.3204 7.86595 65.6256 8.17848 66.7616 8.84664C67.1452 9.1749 67.4536 9.58424 67.6652 10.046C67.8767 10.5078 67.9863 11.0109 67.9863 11.5202C67.9863 12.0294 67.8767 12.5325 67.6652 12.9943C67.4536 13.4561 67.1452 13.8655 66.7616 14.1937C65.5909 14.8921 64.2374 15.2093 62.8835 15.1027H60.4387V16.3326H58.4259V15.092H55.9599C54.5826 15.2176 53.201 14.9035 52.0081 14.1937C51.6046 13.8834 51.2822 13.4774 51.0691 13.0113C50.856 12.5452 50.7586 12.0333 50.7857 11.5202C50.7612 10.9997 50.8673 10.4813 51.094 10.0138C51.3207 9.54617 51.6606 9.1446 52.0819 8.84664C53.2356 8.16476 54.565 7.8517 55.8967 7.94833H58.3943V6.87891H60.4387V7.94833ZM53.5256 9.99092C53.3012 10.1882 53.1252 10.436 53.0118 10.7145C52.8984 10.993 52.8506 11.2945 52.8722 11.595C52.853 11.8953 52.9019 12.1961 53.0152 12.4742C53.1285 12.7523 53.3031 13.0003 53.5256 13.1992C54.216 13.6204 55.0206 13.8077 55.8229 13.7339H58.4259V9.45621H55.8229C55.0098 9.36989 54.1913 9.55781 53.494 9.99092H53.5256ZM60.4492 9.45621V13.7339H63.1048C63.9141 13.8116 64.7266 13.6242 65.4232 13.1992C65.6426 12.9983 65.8144 12.7496 65.9257 12.4718C66.037 12.194 66.085 11.8943 66.0661 11.595C66.0866 11.2956 66.0393 10.9954 65.9279 10.7174C65.8165 10.4393 65.6438 10.1908 65.4232 9.99092C64.7286 9.56086 63.9144 9.37308 63.1048 9.45621H60.4492Z" fill="#0055FF"/>
<path fill-rule="evenodd" clip-rule="evenodd" d="M87.943 6.95165H82.2734V16.2449H84.2863V13.4965H87.9009C88.5755 13.5609 89.2532 13.4109 89.84 13.0671C90.4268 12.7234 90.8938 12.203 91.1763 11.578C91.4588 10.9529 91.5428 10.2543 91.4166 9.57866C91.2905 8.90306 90.9604 8.284 90.4722 7.80718C90.129 7.49921 89.7282 7.2647 89.2936 7.11769C88.859 6.97068 88.3996 6.91421 87.943 6.95165ZM88.1828 11.9653C87.9333 12.0522 87.6679 12.0821 87.4056 12.0528H84.2441V8.42745H87.4056C87.6645 8.39946 87.9262 8.42585 88.1746 8.50496C88.423 8.58407 88.6527 8.71422 88.8493 8.8873C89.1488 9.26418 89.299 9.74079 89.2708 10.2241C89.2906 10.703 89.1411 11.1733 88.8493 11.5502C88.66 11.7367 88.4324 11.8784 88.1828 11.9653Z" fill="#0055FF"/>
<path d="M92.7578 6.95215H95.0236L99.0175 13.4649L99.144 13.6895L99.2072 13.8071L99.2704 13.6895L99.3969 13.4649L103.37 6.95215H105.678V16.2454H103.707V10C103.703 9.94305 103.703 9.88583 103.707 9.82888C103.68 9.88841 103.648 9.94564 103.612 10C103.576 10.0544 103.544 10.1116 103.517 10.1711L99.8184 16.2454H98.5855L94.8971 10.2139C94.8659 10.151 94.8306 10.0903 94.7917 10.0321C94.7473 9.97526 94.715 9.90971 94.6969 9.83958V16.2454H92.7684L92.7578 6.95215Z" fill="#0055FF"/>
<path d="M109.671 14.5664H109.155C109.01 14.5708 108.865 14.5601 108.723 14.5343V16.2989C108.858 16.3548 109 16.3943 109.144 16.4165C109.337 16.434 109.531 16.434 109.724 16.4165C110.105 16.4423 110.487 16.3913 110.849 16.2665C111.211 16.1417 111.545 15.9455 111.831 15.6893C112.405 15.1125 112.911 14.4701 113.338 13.775L117.554 6.95215H115.509L112.706 11.679L112.527 11.9784C112.503 12.0151 112.475 12.0659 112.442 12.1266C112.418 12.172 112.39 12.2231 112.358 12.2779L112.2 11.9998C112.182 11.9629 112.15 11.9153 112.108 11.8531C112.077 11.8072 112.04 11.7532 112 11.6897L108.976 6.95215H106.805L111.208 13.6183C111.002 13.8793 110.765 14.115 110.504 14.3205C110.256 14.4834 109.966 14.569 109.671 14.5664Z" fill="#0055FF"/>
<path d="M127.682 6.95215V16.2454H125.669V8.58836H121.454L121.211 12.5773C121.175 13.5317 120.953 14.4693 120.558 15.3364C120.369 15.6959 120.078 15.9899 119.723 16.1805C119.369 16.371 118.966 16.4495 118.566 16.4058C118.366 16.4188 118.166 16.4188 117.966 16.4058L117.555 16.3203V14.3846C117.653 14.3939 117.752 14.3939 117.85 14.3846H118.166C118.347 14.4025 118.529 14.3678 118.692 14.2844C118.854 14.2011 118.99 14.0727 119.083 13.9141C119.312 13.419 119.431 12.8785 119.43 12.3313L119.747 6.98423L127.682 6.95215Z" fill="#0055FF"/>
<path fill-rule="evenodd" clip-rule="evenodd" d="M135.341 6.93262H133.308L128.66 16.2473H130.863L131.892 14.0443H136.685L137.713 16.2473H139.999L135.341 6.93262ZM136.037 12.654L134.551 9.46715L134.403 9.1784L134.288 8.94312L134.172 9.1784C134.172 9.21588 134.143 9.2643 134.106 9.3258C134.08 9.36959 134.05 9.42001 134.024 9.47783L132.541 12.654H136.037Z" fill="#0055FF"/>
<path fill-rule="evenodd" clip-rule="evenodd" d="M52.7039 30.1185V31.9365H50.8281V28.4823H51.8247C52.0379 28.1217 52.2026 27.7333 52.314 27.3273C52.4707 26.7002 52.566 26.059 52.5985 25.413L52.862 20.8252H61.4296V28.4823H62.7574V31.9365H60.8816V30.1185H52.7039ZM54.116 27.5625C54.0232 27.8798 53.9024 28.1876 53.755 28.4823H59.3851V22.4721H54.5903L54.4111 25.5413C54.3919 26.2246 54.2928 26.903 54.116 27.5625Z" fill="#0055FF"/>
<path d="M71.5544 23.6057V30.1185H73.5567V20.8252H71.1962L66.4961 27.0492L66.2537 27.2845C66.2045 27.3333 66.165 27.3914 66.1378 27.4556V20.8252H64.125V30.1185H66.4961L71.1856 23.8624C71.2759 23.7826 71.3572 23.693 71.428 23.595C71.4752 23.5307 71.5175 23.4628 71.5544 23.3918C71.5597 23.463 71.5597 23.5345 71.5544 23.6057Z" fill="#0055FF"/>
<path fill-rule="evenodd" clip-rule="evenodd" d="M79.1954 20.8008H81.2398L85.8867 30.1145V28.2256C85.9813 28.2359 86.0766 28.2359 86.1712 28.2256H86.4979C86.6778 28.2433 86.8589 28.2096 87.0209 28.1283C87.1829 28.0471 87.3193 27.9215 87.4147 27.7657C87.6382 27.2652 87.7532 26.7218 87.7519 26.1723L88.0786 20.8252H95.9191V30.1185H93.8957V22.4721H89.6805L89.4381 26.461C89.4277 27.3902 89.2417 28.3087 88.8901 29.1667C88.6971 29.5252 88.4042 29.8179 88.048 30.0081C87.6918 30.1984 87.2882 30.2777 86.8878 30.2361C86.6913 30.2488 86.4942 30.2488 86.2977 30.2361C86.1587 30.2181 86.0214 30.1895 85.8867 30.1505V30.1145L83.6214 30.1154L82.5942 27.9124H77.8004L76.7716 30.1154H74.5586L79.1954 20.8008ZM80.46 23.3353L81.9459 26.5222H78.4497L79.9331 23.346L80.1965 22.8113C80.2134 22.8499 80.2355 22.8851 80.2557 22.9176C80.286 22.9659 80.3124 23.0082 80.3124 23.0466L80.46 23.3353Z" fill="#0055FF"/>
<path fill-rule="evenodd" clip-rule="evenodd" d="M97.9044 23.3851C97.6066 23.9989 97.4671 24.6793 97.4991 25.3626C97.4589 26.0641 97.594 26.7644 97.8918 27.3988C98.1903 28.0346 98.6427 28.5833 99.2066 28.9938C100.449 29.8448 101.924 30.2753 103.422 30.2237H114.729C115.922 30.128 117.07 29.7189 118.059 29.0366C118.626 28.628 119.081 28.08 119.381 27.4439C119.682 26.8079 119.818 26.1047 119.777 25.4006V25.3257C119.811 24.6392 119.671 23.9552 119.37 23.3393C119.07 22.7233 118.618 22.1959 118.059 21.8073C117.05 21.1201 115.879 20.7144 114.666 20.631H103.422C101.926 20.5806 100.452 21.0069 99.2066 21.8501C98.6512 22.2413 98.2031 22.7696 97.9044 23.3851ZM100.661 28.01C101.456 28.6139 102.429 28.9268 103.422 28.8976H114.613C115.332 28.8098 116.013 28.5251 116.584 28.0741C116.94 27.7667 117.22 27.3797 117.403 26.9436C117.586 26.5074 117.666 26.0341 117.638 25.561V25.4327C117.668 24.9718 117.588 24.5104 117.404 24.0877C117.221 23.665 116.94 23.2936 116.584 23.0051C116.029 22.5392 115.343 22.2624 114.624 22.2137C110.967 22.0533 103.928 21.9891 103.19 22.0747C102.284 22.1763 101.415 22.4912 100.65 22.9944C100.296 23.2863 100.016 23.6599 99.8324 24.084C99.6491 24.5081 99.5682 24.9705 99.5965 25.4327V25.5396C99.5762 26.0086 99.6638 26.4759 99.8522 26.9047C100.041 27.3334 100.325 27.7118 100.682 28.01H100.661Z" fill="#0055FF"/>
<path d="M128.736 20.8252H121.359L121.37 30.1185H123.383V22.4721H128.736V20.8252Z" fill="#0055FF"/>
<path fill-rule="evenodd" clip-rule="evenodd" d="M133.308 20.8008H135.341L139.999 30.1154H137.713L136.685 27.9124H131.892L130.863 30.1154H128.66L133.308 20.8008ZM134.551 23.3353L136.037 26.5222H132.541L134.024 23.346L134.288 22.8113C134.305 22.8499 134.327 22.8851 134.347 22.9175C134.377 22.9659 134.403 23.0082 134.403 23.0466L134.551 23.3353Z" fill="#0055FF"/>
</svg>
