<?xml version="1.0" encoding="utf-8"?>
<!-- Generator: Adobe Illustrator 26.0.3, SVG Export Plug-In . SVG Version: 6.00 Build 0)  -->
<svg version="1.1" id="Layer_1" xmlns="http://www.w3.org/2000/svg" xmlns:xlink="http://www.w3.org/1999/xlink" x="0px" y="0px"
	 viewBox="0 0 570 650" style="enable-background:new 0 0 570 650;" xml:space="preserve">
<style type="text/css">
	.st0{fill:#002DFF;}
</style>
<path class="st0" d="M65.3,623.2c-0.8-4.7-0.9-9.5-0.5-14.5c0.2-2.4,0.6-4.8,1.1-7.3c0.3-1.3,0.6-2.6,0.9-3.9
	c0.1-0.4,0.2-0.8,0.3-1.3L51,600.8l-2.7,0.8c-0.1,1.3-0.3,2.7-0.3,4c-0.2,4-0.2,8,0.1,12c0.5,5.3,1.4,10.6,2.9,15.7
	c1.7,5.8,4.1,11.4,7,16.7h20.5c-6.7-7.6-11-15.9-12.9-24.9C65.5,624.4,65.4,623.8,65.3,623.2z M460.7,650c0.3-1.3,0.6-2.5,1-3.8
	l-13.3,3.8H460.7z M0,650c0.1,0,0.1,0,0.2,0h0h0L0,649.5V650z M368.6,650c-3.5-1.3-5.5-2.4-5.5-2.4l0.7,2.4H368.6z M570,332.7v-6.4
	c-0.6-0.1-1.3-0.2-2-0.3L570,332.7z M23.3,446.2l-18.9,5.4c-1.1,10.6-0.3,21.4,2.7,31.7s8.1,19.9,14.8,28.3l18.9-5.4
	C22.5,489.8,16.7,469.8,23.3,446.2z M169.9,605.3c-0.4,0.4-0.7,0.8-1.1,1.2c-0.7,0.8-1.3,1.6-1.9,2.3c-0.3,0.4-0.5,0.7-0.8,1
	c-0.7,0.9-1.2,1.8-1.6,2.5c0,0.1-0.1,0.2-0.1,0.2c-0.2,0.4-0.4,0.7-0.5,0.9c-0.3,0.5-0.4,0.8-0.4,0.8
	c-10.2,11.4-21.8,17.8-34.8,19.4c-0.7,0.1-1.4,0.2-2.1,0.2c-1.2,0.1-2.4,0.2-3.6,0.2c-0.9,0-1.7,0-2.6,0c-5.3-0.2-10.9-1.1-16.6-2.8
	c0,0-6.5-3.8-17.8-5.4l6.7,22.9l0.3,1.1h37.7c3.5-0.5,6.9-1.3,10.2-2.3c3.5-1,6.9-2.2,10.3-3.6c4-1.7,7.8-3.8,11.4-6.1
	c1.1-0.7,2.2-1.5,3.3-2.3c1.1-0.8,2.1-1.6,3.2-2.4l2.1,7l2.1,7l0.8,2.8h10.4c1-1,2.1-2.1,3.4-3.2c-0.1,1.1-0.1,2.1-0.1,3.2h17
	c0.4-4,1.2-8.2,2.4-12.4L188,643l-5.4-18.4l-7.2-24.5l0,0C173.3,601.8,171.5,603.6,169.9,605.3z M20.5,227c-0.2,0.1-0.5,0.2-0.7,0.2
	c-1.7,0.5-3.4,1-5.1,1.4c-0.7,0.1-1.4,0.3-2.1,0.4c-4.1,0.7-8.3,0.9-12.6,0.6V261c15.6-15.2,34.2-19.6,56.2-13.3l-11.1-37.8
	C37.7,218.2,29.5,223.9,20.5,227z M0,61.2v34c4,0.4,8.1,1.2,12.4,2.4L1.3,59.8C0.9,60.3,0.4,60.8,0,61.2z M36.5,0H20.1
	c1,7.7,0.4,15.9-2,24.6C18,24.8,18,25,17.8,25.1c-0.1,0.1-0.3,0.2-0.5,0.2l19.4-5.5C37.4,13.2,37.4,6.6,36.5,0z M522.9,206.2
	L522.9,206.2c-3.2-2.9-6-5.9-8.4-8.9c-0.6-0.8-1.2-1.6-1.8-2.4c-0.4-0.6-0.8-1.1-1.2-1.7c-0.9-1.3-1.6-2.6-2.4-3.9
	c-0.6-1-1.1-2-1.6-3.1c-0.3-0.6-0.5-1.2-0.8-1.8c-1-2.4-1.8-4.8-2.4-7.2c0-0.1-0.1-0.2-0.1-0.4c-0.5-1.8-0.8-3.7-1.1-5.6
	c-0.1-0.7-0.2-1.3-0.2-2c-0.2-2-0.3-4-0.2-6c0.1-5.4,1-11.1,2.6-17l-18.9,5.4c-0.7,6.6-0.6,13.4,0.2,20c0.5,4,1.4,7.9,2.5,11.8
	c0.8,2.6,1.6,5.1,2.6,7.6c0.7,1.6,1.4,3.3,2.2,4.9c1.4,2.8,2.9,5.6,4.6,8.3c0.9,1.5,1.9,2.9,2.9,4.4c0.8,1.1,1.6,2.2,2.4,3.2
	L522.9,206.2L522.9,206.2z M492.2,11.2L492.2,11.2c4-4.6,8.2-8.3,12.6-11.2h-32.1l7.3,25.1C488.7,17.8,492.2,11.2,492.2,11.2z
	 M557.8,537.5L557.8,537.5L557.8,537.5l12.2-3.5v-16.3l-7,2C561.5,531.1,557.8,537.5,557.8,537.5z M412.6,74.6
	c-0.1,0.1-0.1,0.3-0.3,0.5c-0.1,0.1-0.3,0.2-0.5,0.2l19.4-5.5c1.1-10.6,0.3-21.4-2.7-31.7c-3-10.3-8-19.9-14.8-28.3l28.8-8.2
	c0.1-0.6,0.2-1.1,0.2-1.6h-39.6c2.6,1.9,6.4,5.1,10.4,9.9l-18.6,5.3C413.1,31.5,419,51.4,412.6,74.6z M518,223.9
	c0,0-0.9-0.5-2.5-1.6c-1-0.7-2.3-1.7-3.8-3c-1.1-1-2.3-2.1-3.6-3.3c-0.9-0.9-1.7-1.8-2.6-2.8c-0.5-0.5-0.9-1-1.4-1.6l-28.8,8.2
	c-1.5,11.3-5.2,17.7-5.2,17.7h0l0,0L518,223.9z M564.9,183.9c-1.3,0.1-2.5,0.2-3.8,0.2c-0.7,0-1.5,0-2.2,0c-5.4-0.1-11.1-1.1-17-2.8
	c0,0-2.1-1.2-5.9-2.5c-0.8-0.3-1.8-0.6-2.8-0.9c-1-0.3-2.1-0.6-3.3-0.9c-1.8-0.4-3.7-0.8-5.8-1.1l12.5,42.6l-18.7,5.3
	c18.2,16.3,24.1,36.2,17.7,59.4c-0.1,0.1-0.1,0.3-0.3,0.5c-0.1,0.1-0.3,0.2-0.5,0.2l-47.6,13.6c0,0,6.6,3.5,14,12.3l-18.6,5.3
	c18.2,16.3,24.1,36.2,17.7,59.4c-0.1,0.1-0.1,0.3-0.3,0.5c-0.1,0.1-0.3,0.2-0.5,0.2l19.4-5.5c1.1-10.6,0.3-21.4-2.7-31.7
	c-3-10.3-8-19.9-14.8-28.3l28.8-8.2c1.5-11.3,5.2-17.7,5.2-17.7l18.7-5.3l-16.7-57.2c11.3,1.6,17.8,5.4,17.8,5.4l11.1,38
	c1.2-1.4,2.5-2.6,3.7-3.9v-31.3c-4.6-0.3-9.3-1.1-14.2-2.5c-0.1-0.1-0.3-0.1-0.5-0.2c-0.1-0.1-0.2-0.3-0.2-0.5l-3.5-12.1l0,0
	l-4.1-14c7.5,1,15.1,0.8,22.5-0.4v-16.6c-1,0.2-2.1,0.4-3.1,0.5C566.3,183.8,565.6,183.9,564.9,183.9z M184.2,0h-10.4l2.8,9.6
	C176.6,9.6,178.8,5.4,184.2,0z M12.4,97.6l8,27.5c-6.8-0.9-13.6-0.8-20.4,0.1v16.6c7.9-1.1,16.4-0.4,25.4,2.1c0.2,0,0.5,0.2,0.6,0.2
	c0,0,6.6,4.3,17.9,5.8l-13.8-47C18.9,101.4,12.4,97.6,12.4,97.6z M549.3,296.2l-18.9,5.4c-1.1,10.6-0.3,21.4,2.7,31.7
	c3,10.3,8.1,19.9,14.8,28.3l18.9-5.4C548.5,339.8,542.6,319.8,549.3,296.2z M547.9,361.6l-28.8,8.2c-1.5,11.3-5.2,17.7-5.2,17.7
	l47.9-13.7h0l0,0c3.1,2.8,5.8,5.7,8.2,8.6v-11l-8.1,2.3C561.9,373.9,555.3,370.3,547.9,361.6z M75.5,187.5l48-13.7
	c0,0-6.6-3.5-14-12.3l-28.8,8.2C79.2,181.1,75.5,187.5,75.5,187.5z M554.2,278.6l13.6,46.5c0.8-0.7,1.5-1.3,2.2-2v-45.8l-3.7-12.7
	C566.3,264.7,562.8,271.3,554.2,278.6z M100.1,397.6l8,27.5c-10.6-1.4-21.4-0.6-31.6,2.6c-10.3,2.8-19.8,7.7-28.1,14.5l-8-27.5
	c0,0-3.5,6.6-12.1,13.9l13.6,46.5c8.7-7.3,12.1-13.9,12.1-13.9l0-0.1c16.1-18,35.8-23.8,59.2-17.2c0.2,0,0.5,0.2,0.6,0.2
	c0,0,6.6,4.3,17.9,5.8l-13.8-47C106.6,401.4,100.1,397.6,100.1,397.6z M458.8,325.1c-10.6-1.4-21.4-0.6-31.6,2.6
	c-10.3,2.8-19.8,7.7-28.1,14.5l-8-27.5c0,0-3.5,6.6-12.1,13.9l13.6,46.5c8.7-7.3,12.1-13.9,12.1-13.9l0-0.1
	c16.1-18,35.8-23.8,59.2-17.2c0.2,0,0.5,0.2,0.6,0.2c0,0,6.6,4.3,17.9,5.8l-13.8-47c-11.3-1.6-17.8-5.4-17.8-5.4L458.8,325.1z
	 M31.4,37.6L12.6,43L0,0v55.4l1.3,4.3c0,0,3.1-6,11-12.8c-0.6,9.3,0.4,18.8,3.2,27.8C18.3,85,23.3,94.6,30.1,103L49,97.6
	C30.7,81.2,24.8,61.2,31.4,37.6z M197.3,461.6l-28.8,8.2c-1.5,11.3-5.2,17.7-5.2,17.7l48-13.7C211.2,473.9,204.6,470.3,197.3,461.6z
	 M373.9,346.2l-18.9,5.4c-1.1,10.6-0.3,21.4,2.7,31.7c3,10.3,8.1,19.9,14.8,28.3l18.9-5.4C373.2,389.8,367.3,369.8,373.9,346.2z
	 M338.6,437.5l48-13.7c0,0-6.6-3.5-14-12.3l-28.8,8.2C342.3,431.1,338.6,437.5,338.6,437.5z M286.2,46.2l-18.9,5.4
	c-1.1,10.6-0.3,21.4,2.7,31.7c3,10.3,8.1,19.9,14.8,28.3l18.9-5.4C285.4,89.8,279.6,69.8,286.2,46.2z M198.6,396.2l-18.9,5.4
	c-1.1,10.6-0.3,21.4,2.7,31.7c3,10.3,8.1,19.9,14.8,28.3l18.9-5.4C197.8,439.8,192,419.8,198.6,396.2z M238.2,59.9l-18.6,5.3
	c18.2,16.3,24.1,36.2,17.7,59.4c-0.1,0.1-0.1,0.3-0.3,0.5c-0.1,0.1-0.3,0.2-0.5,0.2l19.4-5.5c1.1-10.6,0.3-21.4-2.7-31.7
	c-3-10.3-8-19.9-14.8-28.3l28.8-8.2c1.5-11.3,5.2-17.7,5.2-17.7l18.7-5.3L282.7,0h-10.1c3.3,10.2,3.3,21.3,0,33.3
	c-0.1,0.1-0.1,0.3-0.3,0.5c-0.1,0.1-0.3,0.2-0.5,0.2l-47.5,13.6c-15-13.5-21.6-29.3-19.9-47.6h-17c-0.2,8.3,0.9,16.7,3.3,24.7
	c2.9,10.3,7.9,19.9,14.7,28.3l18.8-5.4C224.2,47.6,230.9,51.2,238.2,59.9z M570,55.9V0.5L569.8,0c-8.7,7.3-12,14.3-12,14.3
	c-16.3,18.2-36.2,23.9-59.8,17c0,0-6.5-3.8-17.8-5.4l12.5,42.6l-18.6,5.3c0,0-6.6-3.5-14-12.3l-28.8,8.2
	c-1.5,11.3-5.2,17.7-5.2,17.7l47.9-13.7l0,0h0c4.8,4.3,8.7,8.9,11.8,13.7c0.4,0.6,0.8,1.3,1.2,1.9c0.8,1.4,1.6,2.8,2.2,4.2
	c0.8,1.7,1.5,3.3,2.1,5c1.1,3.2,1.9,6.5,2.4,9.8c1.1,7.8,0.4,16-2,24.7c-0.1,0.1-0.1,0.3-0.3,0.5c-0.1,0.1-0.3,0.2-0.5,0.2
	l-47.5,13.6c-3.4-3.1-6.4-6.3-9-9.6c-1.3-1.7-2.4-3.4-3.5-5.1c-0.4-0.6-0.7-1.2-1-1.7c-3.3-5.8-5.4-12-6.2-18.5
	c-1-7.8-0.3-16.2,2.2-25h0l0,0l-33.8,9.6l3.6,12.4l0,0v0c0,0,1.5-2.8,5-6.8c0.3-0.4,0.6-0.7,1-1.1c1.4-1.5,3.1-3.2,5-4.9
	c-0.4,5.8-0.1,11.7,0.8,17.5c0,0,0,0.1,0,0.1c0.5,3.4,1.3,6.9,2.3,10.2c1.1,3.9,2.5,7.6,4.1,11.3c1.1,2.4,2.3,4.8,3.7,7.1
	c2,3.5,4.3,6.8,6.9,9.9c-7-1-12.2-2.8-15.1-4.1c-0.6-0.2-1.1-0.5-1.5-0.7c-0.8-0.4-1.2-0.6-1.2-0.6l8,27.5
	c-10.6-1.4-21.4-0.6-31.6,2.6c-10.3,2.8-19.8,7.7-28.1,14.5l-6.9-23.6l-1.1-3.9c14.2-15.9,31.2-22.2,51.1-19c2.8,0.5,5.7,1.1,8.7,2
	l-11.1-37.8c-9.1,10.1-19.3,16.4-30.7,18.8c-0.6,0.1-1.3,0.3-1.9,0.4c-4.5,0.8-9.1,0.9-13.9,0.5c-2.7-0.2-5.6-0.7-8.4-1.3
	c-1.4-0.3-2.9-0.7-4.3-1.1c-0.1-0.1-0.3-0.1-0.5-0.2c-0.1-0.1-0.2-0.3-0.2-0.5l-3.5-12.1l-4.1-14c10.6,1.4,21.4,0.6,31.6-2.6
	c10.3-2.8,19.8-7.7,28.1-14.5l4.1,14l14.9-4.3l-12.6-43c-8.7,7.3-12,14.3-12,14.3c-16.3,18.2-36.2,23.9-59.8,17
	c0,0-6.5-3.8-17.8-5.4l12.5,42.6l-18.7,5.3h0l0,0c5.1,4.6,9.2,9.4,12.4,14.6c0.7,1.1,1.4,2.3,2,3.5c0.9,1.8,1.7,3.5,2.4,5.4
	c0.9,2.4,1.7,4.9,2.2,7.4c0.3,1.3,0.5,2.5,0.7,3.8c0.3,1.9,0.4,3.9,0.5,5.9c0.1,2,0,4-0.2,6.1c-0.1,1.4-0.3,2.8-0.5,4.2
	c-0.1,0.7-0.2,1.4-0.3,2.1c-0.3,1.4-0.6,2.8-0.9,4.3c-0.2,0.7-0.4,1.4-0.6,2.2c-0.1,0.1-0.1,0.3-0.3,0.5c-0.1,0.1-0.3,0.2-0.5,0.2
	l-47.5,13.6h0l0,0c-4-3.6-7.4-7.4-10.2-11.3c-0.4-0.6-0.8-1.1-1.2-1.7c-1.1-1.7-2.2-3.4-3.1-5.2c-0.3-0.6-0.6-1.2-0.9-1.8
	c-0.8-1.8-1.6-3.6-2.2-5.5c-1-3.1-1.8-6.3-2.2-9.5c-0.8-5.9-0.6-12,0.6-18.5c0.4-2.1,0.9-4.3,1.5-6.5l-18.9,5.4l-12.6-43
	c-8.7,7.3-12,14.3-12,14.3c-16.3,18.2-36.2,23.9-59.8,17c0,0-6.5-3.8-17.8-5.4l12.5,42.6l-18.7,5.3c8.4,7.5,14.2,15.8,17.3,24.9
	c0.3,0.8,0.5,1.6,0.8,2.5c0.3,1.1,0.6,2.2,0.9,3.4c0.2,0.7,0.3,1.4,0.4,2.1c0.2,1.3,0.4,2.6,0.5,3.9c0.3,2.8,0.3,5.6,0.2,8.4
	c-0.1,1.8-0.3,3.5-0.5,5.3c-0.1,0.4-0.1,0.8-0.2,1.1c-0.3,1.7-0.6,3.4-1,5.1c-0.1,0.5-0.2,1-0.4,1.5c-0.1,0.4-0.2,0.8-0.3,1.3
	c0,0,0,0.1,0,0.1c-0.1,0.1-0.1,0.3-0.2,0.4c-0.1,0.1-0.3,0.2-0.5,0.2l-47.5,13.6c-11.4-10.3-18-21.9-19.7-35c-0.1-0.7-0.2-1.3-0.2-2
	c-0.4-4-0.3-8,0.2-12.2c0.1-0.7,0.2-1.4,0.3-2.1c0.4-2.8,1.1-5.7,1.9-8.7l0,0l0,0L56.4,193l-12.6-43c-8.7,7.3-12,14.3-12,14.3
	c-9.4,10.5-20,16.8-31.8,19v16.6c3.1-0.5,6.2-1.2,9.2-2.1c10.3-2.8,19.8-7.7,28.1-14.5l4.1,14l3.6,12.4v0c0,0,3.1-6,11-12.8
	c-0.4,7,0,14,1.4,20.9c0.5,2.3,1.1,4.7,1.8,7C62.2,235,67.2,244.6,74,253c-2.1-0.3-4.1-0.7-5.8-1.1c-2.9-0.7-5.4-1.5-7.3-2.2
	c-3-1.1-4.7-2.1-4.7-2.1l8,27.5c-10.6-1.4-21.4-0.6-31.6,2.6c-7.7,2.1-15,5.4-21.7,9.8c-1.1,0.7-2.2,1.5-3.3,2.3
	c-1.1,0.8-2.1,1.6-3.2,2.4L0,276.8v46.4c1-1,2-1.9,2.9-2.8c0.6-0.6,1.2-1.2,1.7-1.8c0.7-0.8,1.3-1.6,1.9-2.3
	c2.5-3.1,3.6-5.2,3.6-5.2l0-0.1l0,0c16.1-18,35.8-23.8,59.2-17.2c0.2,0,0.5,0.2,0.6,0.2c0,0,6.6,4.3,17.9,5.8
	c-2.2,1.8-4,3.6-5.5,5.3c-0.4,0.4-0.7,0.8-1.1,1.2c-0.7,0.8-1.3,1.6-1.9,2.3c-0.3,0.4-0.5,0.7-0.8,1c-0.7,0.9-1.2,1.8-1.6,2.5
	c0,0.1-0.1,0.2-0.1,0.2c-0.2,0.4-0.4,0.7-0.5,0.9c-0.3,0.5-0.4,0.8-0.4,0.8c-10.2,11.4-21.8,17.8-34.8,19.4
	c-0.7,0.1-1.4,0.2-2.1,0.2c-1.2,0.1-2.4,0.2-3.6,0.2c-0.9,0-1.7,0-2.6,0c-5.3-0.2-10.9-1.1-16.6-2.8c0,0-5.8-3.4-15.9-5.1v5.9
	l4.9,16.7l5.8,19.7h0v0l-10.6,3v10.7c11.7,14.6,15,31.6,9.6,51c-0.1,0.1-0.1,0.3-0.3,0.5c-0.1,0.1-0.3,0.2-0.5,0.2L0,436.6v16.3
	l4.3-1.2c1.5-11.3,5.2-17.7,5.2-17.7l18.7-5.3l-16.7-57.2c11.3,1.6,17.8,5.4,17.8,5.4l11.1,38c16.3-18.2,36.1-23.8,59.8-17L89,359.8
	c-16.1,18-35.9,23.8-59.2,17.2c-0.1-0.1-0.3-0.1-0.5-0.2c-0.1-0.1-0.2-0.3-0.2-0.5l-3.5-12.1v0l-4.1-14c2.6,0.3,5.3,0.5,8,0.6
	c2.7,0.1,5.3,0,8-0.2c1.3-0.1,2.7-0.2,4-0.4c4-0.5,7.9-1.4,11.7-2.5c3.5-1,6.9-2.2,10.3-3.6c4-1.7,7.8-3.8,11.4-6.1
	c1.1-0.7,2.2-1.5,3.3-2.3c1.1-0.8,2.1-1.6,3.2-2.4l2.1,7l2.1,7l3.6,12.4c0,0,3.1-6,11-12.8c-0.6,9.3,0.4,18.8,3.2,27.8
	c2.9,10.3,7.9,19.9,14.7,28.3l18.8-5.4c0,0,6.6,3.5,14,12.3l-18.6,5.3c18.2,16.3,24.1,36.2,17.7,59.4c-0.1,0.1-0.1,0.3-0.3,0.5
	c-0.1,0.1-0.3,0.2-0.5,0.2l19.4-5.5c1.1-10.6,0.3-21.4-2.7-31.7c-3-10.3-8-19.9-14.8-28.3l28.8-8.2c1.5-11.3,5.2-17.7,5.2-17.7
	l18.7-5.3l-16.7-57.2c11.3,1.6,17.8,5.4,17.8,5.4l11.1,38c16.3-18.2,36.1-23.8,59.8-17l-11.1-37.8c-16.1,18-35.9,23.8-59.2,17.2
	c-0.1-0.1-0.3-0.1-0.5-0.2c-0.1-0.1-0.2-0.3-0.2-0.5l-3.5-12.1l-4.1-14c10.6,1.4,21.4,0.6,31.6-2.6c10.3-2.8,19.8-7.7,28.1-14.5
	l4.1,14h0v0l14.9-4.3l-12.6-43c0,0,0,0,0,0v0c-8.7,7.3-12,14.3-12,14.3c-9.2,10.2-19.5,16.5-30.9,18.8c-0.6,0.1-1.3,0.2-1.9,0.3
	c-8.4,1.4-17.4,0.7-26.9-2.1c0,0-2.1-1.2-5.9-2.5c-1.7-0.6-3.7-1.2-6.1-1.8c-1.8-0.4-3.7-0.8-5.8-1.1v0l12.5,42.6l-18.6,5.3
	c0,0-1.3-0.7-3.3-2.1c-0.3-0.2-0.6-0.5-1-0.7c-0.3-0.3-0.7-0.6-1.1-0.9c-0.6-0.5-1.3-1.1-2-1.7c-0.4-0.4-0.9-0.8-1.4-1.2
	c-1.7-1.6-3.4-3.4-5.3-5.6l16.2-4.6l2.7-0.8c-14.2-12.8-20.9-27.7-20.1-44.7c0.2-3.5,0.7-7.2,1.5-10.9c0.2-0.7,0.3-1.4,0.5-2.2
	c0.2-0.7,0.4-1.5,0.6-2.2l-18.9,5.4c-1.1,10.6-0.3,21.4,2.7,31.7c2.1,7.2,5.2,14,9.2,20.3c1.7,2.8,3.6,5.5,5.7,8l-28.8,8.2v0
	c-0.4,3.2-1,6-1.7,8.4c-1.6,6-3.5,9.3-3.5,9.3h0l0,0l47.9-13.7c18.2,16.3,24.1,36.2,17.7,59.4c-0.1,0.1-0.1,0.3-0.3,0.5
	c-0.1,0.1-0.3,0.2-0.5,0.2l-47.5,13.6c-18.3-16.4-24.2-36.4-17.5-60l-18.9,5.4l-5.4-18.4L87.7,300L74,253l18.8-5.4
	c0,0,1.6,0.9,4.2,2.8c0,0,0,0,0,0c0.5,0.4,1.1,0.9,1.7,1.4c1,0.8,2,1.8,3.2,2.8c1.5,1.5,3.2,3.2,4.9,5.2l-18.6,5.3v0
	c11.3,10.2,17.9,21.8,19.7,34.7c0.1,0.7,0.2,1.4,0.2,2.1c0.2,2.6,0.3,5.2,0.2,7.9c-0.2,4.8-1,9.7-2.4,14.8c0,0.1-0.1,0.1-0.1,0.2
	c0,0.1-0.1,0.2-0.2,0.3c-0.1,0.1-0.2,0.2-0.4,0.2c0,0,0,0-0.1,0l2.1-0.6l17.2-4.9c1.1-10.6,0.3-21.4-2.7-31.7
	c-0.3-1.1-0.7-2.1-1-3.2c-1-3.1-2.2-6-3.6-9c-0.8-1.8-1.8-3.5-2.7-5.3c-0.4-0.7-0.8-1.3-1.2-2c-1.9-3.1-3.9-6.1-6.2-8.9l25.6-7.3
	l3.2-0.9c0.1-0.5,0.2-1.1,0.2-1.6c0.1-0.3,0.1-0.6,0.2-1c0.2-1,0.3-1.9,0.5-2.8c1.7-7.9,4.3-12.4,4.3-12.4l18.7-5.3l13.6,46.5l0,0v0
	c3.3-2.7,5.8-5.4,7.6-7.6c0.3-0.4,0.6-0.7,0.9-1.1c0.6-0.7,1-1.3,1.5-1.9c0.2-0.3,0.4-0.6,0.6-0.8c1.1-1.5,1.6-2.5,1.6-2.5l0-0.1
	c6.4-7.2,13.4-12.4,21-15.7c0.3-0.1,0.5-0.2,0.8-0.3c11.2-4.6,23.7-5,37.4-1.2c0.2,0,0.5,0.2,0.6,0.2c0,0,0.8,0.5,2.2,1.2
	c2.2,1.1,5.9,2.6,11,3.8c0.5,0.1,1.1,0.2,1.7,0.3c1,0.2,2,0.4,3.1,0.5v0c0,0,0,0,0,0l-13.8-47l18.8-5.4l0,0c0,0,1,0.5,2.5,1.6
	c1.4,1,3.4,2.5,5.6,4.6c0.6,0.5,1.2,1.1,1.8,1.7c0.9,0.9,1.7,1.8,2.6,2.8c0.5,0.5,0.9,1,1.4,1.6l-18.6,5.3c2.8,2.5,5.4,5.2,7.6,7.9
	c0.4,0.5,0.9,1.1,1.3,1.6c2.5,3.3,4.7,6.7,6.3,10.3c0.3,0.6,0.5,1.2,0.8,1.8c2.1,4.8,3.3,9.8,3.9,15c0.1,0.7,0.1,1.3,0.2,2
	c0.1,2.1,0.1,4.3,0,6.5c-0.2,3.8-0.8,7.6-1.7,11.6c-0.1,0.5-0.2,1-0.4,1.5c-0.1,0.4-0.2,0.8-0.3,1.3c0,0.1-0.1,0.2-0.1,0.3
	c0,0.1-0.1,0.2-0.2,0.2c-0.1,0.1-0.3,0.2-0.5,0.2l0,0c0,0,0,0,0,0l19.4-5.5c0.3-2.7,0.4-5.3,0.5-8c0.1-8-1-16-3.2-23.7
	c-0.4-1.3-0.8-2.6-1.2-3.8c-2.6-7.6-6.4-14.8-11.1-21.3c-0.8-1.1-1.6-2.2-2.5-3.2l28.8-8.2c0.6-4.9,1.7-8.9,2.7-11.9
	c1.3-3.8,2.5-5.8,2.5-5.8l18.7-5.3l1.7,5.8l11.9,40.7l0,0v0c8.7-7.3,12.1-13.9,12.1-13.9v0l0-0.1c9.6-10.7,20.4-17.1,32.5-19.1
	c1.3-0.2,2.6-0.4,3.9-0.5c2.6-0.2,5.3-0.3,8-0.1c4.8,0.3,9.7,1.1,14.8,2.5c0.2,0,0.5,0.2,0.6,0.2c0,0,0.6,0.4,1.9,1
	c2.7,1.4,8.3,3.7,16,4.8c-4.9,4.1-8.1,8.1-9.9,10.8c-1.4,2.1-2.1,3.5-2.1,3.5c-2,2.3-4.1,4.4-6.3,6.2c-2.1,1.9-4.4,3.6-6.6,5.1
	c-0.6,0.4-1.1,0.7-1.7,1.1c-13.2,8-28.2,9.6-45.2,4.7c0,0-6.5-3.8-17.8-5.4l0,0l12.5,42.6l-18.6,5.3l0,0h0c0,0-5.8-3.1-12.6-10.7
	c-0.5-0.5-0.9-1-1.4-1.6l18.9-5.4l0,0h0c-2.6-2.4-5-4.8-7.2-7.4c-0.4-0.4-0.7-0.9-1.1-1.3c-0.5-0.6-1-1.2-1.4-1.9
	c-0.4-0.5-0.8-1.1-1.2-1.6c-0.7-1.1-1.4-2.2-2.1-3.3c-0.4-0.7-0.8-1.4-1.2-2.1c-0.2-0.4-0.4-0.8-0.6-1.2c-0.4-0.8-0.8-1.7-1.2-2.5
	c-0.4-0.9-0.8-1.8-1.1-2.7c-0.4-1-0.7-2-1-3c-0.1-0.2-0.1-0.4-0.2-0.5c-0.3-1.1-0.6-2.3-0.9-3.4c-0.1-0.7-0.3-1.4-0.4-2.1
	c-1.4-8.4-0.8-17.4,1.9-26.9v0l-18.9,5.4c-0.1,1.3-0.3,2.7-0.3,4c-0.4,6.6,0,13.3,1.2,19.9c0.5,2.6,1.1,5.3,1.9,7.9
	c0.8,2.8,1.8,5.6,3,8.4c0.9,2.2,1.9,4.4,3,6.5c0.8,1.5,1.7,3.1,2.6,4.5c1.9,3.1,3.9,6.1,6.2,8.9l-28.8,8.2c-0.9,7-2.7,12.2-3.9,15.1
	c-0.2,0.6-0.5,1.1-0.6,1.5c-0.4,0.8-0.6,1.2-0.6,1.2l47.9-13.7c18.2,16.3,24.1,36.2,17.7,59.4c-0.1,0.1-0.1,0.3-0.3,0.5
	c-0.1,0.1-0.3,0.2-0.5,0.2l-47.5,13.6c-18.3-16.4-24.2-36.4-17.5-60l-33.8,9.6l3.6,12.4c0,0,3.1-6,11-12.8
	c-0.6,9.3,0.4,18.8,3.2,27.8c2.9,10.3,7.9,19.9,14.7,28.3l18.8-5.4c0,0,6.6,3.5,14,12.3l-18.6,5.3c18.2,16.3,24.1,36.2,17.7,59.4
	c-0.1,0.1-0.1,0.3-0.3,0.5c-0.1,0.1-0.3,0.2-0.5,0.2l19.4-5.5c1.1-10.6,0.3-21.4-2.7-31.7c-3-10.3-8-19.9-14.8-28.3l28.8-8.2
	c1.5-11.3,5.2-17.7,5.2-17.7l18.7-5.3l-16.7-57.2c11.3,1.6,17.8,5.4,17.8,5.4l11.1,38c16.3-18.2,36.1-23.8,59.8-17l-11.1-37.8
	c-16.1,18-35.9,23.8-59.2,17.2c-0.1-0.1-0.3-0.1-0.5-0.2c-0.1-0.1-0.2-0.3-0.2-0.5l-3.5-12.1v0l-4.1-14c10.6,1.4,21.4,0.6,31.6-2.6
	c2.6-0.7,5.1-1.5,7.6-2.5c7.4-2.9,14.4-6.9,20.6-12l4.1,14l3.6,12.4c0,0,3.1-6,11-12.8c-0.6,9.3,0.4,18.8,3.2,27.8
	c2.9,10.3,7.9,19.9,14.7,28.3l18.9-5.4c-18.3-16.4-24.2-36.4-17.5-60L451,243v0l-12.6-43l-13.8-47l18.8-5.4l0,0h0
	c0,0,6.6,3.5,14,12.3l-18.6,5.3l0,0h0c5.1,4.6,9.2,9.4,12.4,14.6c0.7,1.1,1.4,2.3,2,3.5c0.9,1.8,1.7,3.5,2.4,5.4
	c0.9,2.4,1.7,4.9,2.2,7.4c0.3,1.3,0.5,2.5,0.7,3.8c0.3,1.9,0.4,3.9,0.5,5.9c0.1,2,0,4-0.2,6.1c-0.1,1.4-0.3,2.8-0.5,4.2
	c-0.1,0.7-0.2,1.4-0.3,2.1c-0.3,1.4-0.6,2.8-0.9,4.3c-0.2,0.7-0.4,1.4-0.6,2.2c-0.1,0.1-0.1,0.3-0.3,0.5c0,0.1-0.1,0.1-0.2,0.1
	c-0.1,0-0.2,0.1-0.3,0.1l0,0c0,0,0,0,0,0l19.4-5.5c0.1-1.3,0.3-2.7,0.3-4c0.3-5.3,0.1-10.7-0.6-16c-0.5-4-1.4-7.9-2.5-11.8
	c-0.1-0.2-0.1-0.4-0.2-0.6c-0.6-2.1-1.3-4.1-2.1-6.1c-0.2-0.6-0.5-1.2-0.7-1.8c-0.7-1.7-1.5-3.4-2.3-5.1c-1.1-2.1-2.2-4.2-3.5-6.2
	c-1.8-2.9-3.8-5.7-5.9-8.4l28.8-8.2c0.3-2.1,0.6-4.1,1-5.8c0.3-1.2,0.5-2.3,0.8-3.3c0.1-0.5,0.3-1,0.4-1.5c1.4-4.6,2.9-7.2,2.9-7.2
	l18.7-5.3l11.9,40.7l1.7,5.8c2.7-2.3,4.9-4.5,6.7-6.4c3.8-4.3,5.5-7.4,5.5-7.4l0-0.1c2-2.3,4.1-4.3,6.2-6.2c0.5-0.5,1.1-0.9,1.6-1.4
	c1.1-0.9,2.2-1.7,3.3-2.5c1.1-0.8,2.2-1.5,3.4-2.2c3.4-2.1,6.9-3.7,10.6-5c0.6-0.2,1.2-0.4,1.8-0.6c2.3-0.7,4.7-1.2,7.1-1.5v-16.6
	c-3.9,0.5-7.7,1.4-11.4,2.5c-3.9,1.1-7.6,2.4-11.2,4c-3.6,1.6-7.1,3.5-10.5,5.7c-2.2,1.5-4.4,3-6.5,4.7l-8-27.5
	c2.5-2.8,5.2-5.4,7.9-7.6c2.2-1.8,4.4-3.4,6.7-4.8c1.1-0.7,2.3-1.3,3.5-1.9c2.9-1.5,5.9-2.7,9.1-3.6c5-1.4,10.2-2.1,15.6-1.9
	c1.6,0,3.2,0.2,4.8,0.3V61.1c-2.7,2.9-5.4,5.4-8.3,7.6c-14.2,10.9-30.8,13.7-49.8,8.4c-0.1,0-0.1-0.1-0.2-0.1
	c-0.1,0-0.2-0.1-0.2-0.1c-0.1-0.1-0.2-0.3-0.2-0.5l-3.5-12.1l-4.1-14c10.6,1.4,21.4,0.6,31.6-2.6c10.3-2.8,19.8-7.7,28.1-14.5
	l4.1,14v0L570,55.9z M248.7,202.9c-10.9-1.6-17.1-5.3-17.1-5.3l8,27.5c-1.3-0.2-2.6-0.3-4-0.4c-2.7-0.2-5.3-0.3-8-0.2
	c-2.7,0.1-5.3,0.3-8,0.6c0,0-0.1,0-0.1,0c-2.5,0.3-5,0.8-7.5,1.4c-1.4,0.3-2.8,0.7-4.2,1.1c-1.3,0.4-2.6,0.7-3.8,1.2
	c-1.3,0.4-2.5,0.9-3.7,1.4c-7.4,2.9-14.4,6.9-20.6,12l-8-27.5c0,0-0.5,0.9-1.6,2.5c-0.9,1.3-2.2,3-3.9,5c-1.7,2-3.9,4.2-6.7,6.4
	l-8.2-28l-8.5-29.2c11.3,1.6,17.8,5.4,17.8,5.4l5.9,20.2l5.2,17.7c1.5-1.7,3.1-3.3,4.7-4.8c0.5-0.5,1.1-1,1.6-1.4
	c1.1-0.9,2.2-1.8,3.3-2.7c3.3-2.5,6.7-4.6,10.3-6.3c3.6-1.6,7.2-2.9,11.1-3.6c1.3-0.3,2.6-0.5,3.9-0.6c0,0,0,0,0,0
	c3.9-0.5,7.9-0.5,12.1-0.1c0.7,0.1,1.4,0.1,2.1,0.2c3.5,0.5,7.1,1.2,10.8,2.3l-11.1-37.8c-1,1.1-2,2.2-3.1,3.2c-0.5,0.5-1,1-1.6,1.5
	c-2.1,2-4.3,3.7-6.5,5.3c-2.2,1.6-4.5,3-6.8,4.2c-1.2,0.6-2.3,1.1-3.5,1.7c-0.6,0.3-1.2,0.5-1.8,0.7c-3.6,1.4-7.4,2.3-11.2,2.8
	c-1.3,0.2-2.6,0.3-3.9,0.4c-2.1,0.1-4.3,0.1-6.5,0c-3.8-0.2-7.6-0.8-11.6-1.8c-0.5-0.1-1-0.3-1.5-0.4c-0.4-0.1-0.8-0.2-1.3-0.3
	c-0.1,0-0.1-0.1-0.2-0.1c-0.1,0-0.2-0.1-0.2-0.1c-0.1,0-0.1-0.2-0.2-0.3c0-0.1,0-0.1-0.1-0.2l-0.9-3l-2.7-9.1h0l-4.1-14
	c10.6,1.4,21.4,0.6,31.6-2.6c10.3-2.8,19.8-7.7,28.1-14.5l4.1,14l1.7,5.7l2,6.7c0,0,0.2-0.4,0.6-1c0.2-0.3,0.5-0.7,0.8-1.2
	c0.5-0.7,1.1-1.6,1.9-2.5c1.8-2.2,4.3-5.1,7.7-8.1c-0.2,3.6-0.2,7.2,0,10.7c0.2,2.3,0.4,4.5,0.8,6.8c0,0,0,0,0,0
	c0.5,3.5,1.3,6.9,2.4,10.3c2.7,9.5,7.1,18.4,13.1,26.3c0.5,0.7,1,1.4,1.6,2C249.1,203,248.9,202.9,248.7,202.9z M335,178.6
	l-16.7-57.2c2.1,0.3,4.1,0.7,5.8,1.1c1.2,0.3,2.3,0.6,3.3,0.9c1,0.3,1.9,0.6,2.8,0.9c3.8,1.3,5.9,2.5,5.9,2.5l11.1,38
	C347.1,164.7,343.6,171.3,335,178.6z M508.7,75.4c0.6,0.2,1.1,0.5,1.5,0.7c0.8,0.4,1.2,0.6,1.2,0.6l11.1,38c0,0-3.5,6.6-12.1,13.9
	L494.9,76l-2-6.8l0.6,2.1C500.6,72.3,505.8,74.2,508.7,75.4z M229.3,411.2L229.3,411.2c16.1-18.1,35.8-23.9,59.2-17.3
	c0.2,0,0.5,0.2,0.6,0.2c0,0,6.6,4.3,17.9,5.8l-13.8-47c-11.3-1.6-17.8-5.4-17.8-5.4l8,27.5c-10.6-1.4-21.4-0.6-31.6,2.6
	c-10.3,2.8-19.8,7.7-28.1,14.5l-8-27.5c0,0-3.5,6.6-12.1,13.9l13.6,46.5C225.8,417.8,229.3,411.2,229.3,411.2z M284.9,111.6
	l-28.8,8.2c-1.5,11.3-5.2,17.7-5.2,17.7l48-13.7C298.8,123.9,292.2,120.3,284.9,111.6z M316.8,61.2L316.8,61.2
	c16.1-18.1,35.8-23.9,59.2-17.3c0.2,0,0.5,0.2,0.6,0.2c0,0,6.6,4.3,17.9,5.8L380.8,3c-5.2-0.7-9.3-1.9-12.3-3h-4.8l7.3,25.1
	c-10.6-1.4-21.4-0.6-31.6,2.6c-10.3,2.8-19.8,7.7-28.1,14.5l-8-27.5c0,0-3.5,6.6-12.1,13.9l13.6,46.5
	C313.4,67.8,316.8,61.2,316.8,61.2z M116.8,26.7l11.1,38c16.3-18.2,36.1-23.8,59.8-17L176.6,9.8c-16.1,18-35.9,23.8-59.2,17.2
	c-0.1-0.1-0.3-0.1-0.5-0.2c-0.1-0.1-0.2-0.3-0.2-0.5l-3.5-12.1l-4.1-14c7.1,0.9,14.3,0.8,21.4-0.3H92.8l5.4,18.6l-18.6,5.3
	c0,0-6.6-3.5-14-12.3l-28.8,8.2c-1.5,11.3-5.2,17.7-5.2,17.7l47.9-13.7C97.7,40.2,103.6,60,97.2,83.3c-0.1,0.1-0.1,0.3-0.3,0.5
	c-0.1,0.1-0.3,0.2-0.5,0.2L48.9,97.6c0,0,6.6,3.5,14,12.3l-18.6,5.3c18.2,16.3,24.1,36.2,17.7,59.4c-0.1,0.1-0.1,0.3-0.3,0.5
	c-0.1,0.1-0.3,0.2-0.5,0.2l19.4-5.5c1.1-10.6,0.3-21.4-2.7-31.7c-3-10.3-8-19.9-14.8-28.3l28.8-8.2c1.5-11.3,5.2-17.7,5.2-17.7
	l18.7-5.3L99,21.3C110.3,22.9,116.8,26.7,116.8,26.7z M187.7,47.6l8,27.5c-10.6-1.4-21.4-0.6-31.6,2.6c-10.3,2.8-19.8,7.7-28.1,14.5
	l-8-27.5c0,0-3.5,6.6-12.1,13.9l13.6,46.5c8.7-7.3,12.1-13.9,12.1-13.9l0-0.1c16.1-18,35.8-23.8,59.2-17.2c0.2,0,0.5,0.2,0.6,0.2
	c0,0,6.6,4.3,17.9,5.8l-13.8-47C194.2,51.4,187.7,47.6,187.7,47.6z M350.8,550C350.8,550,350.8,550,350.8,550L350.8,550
	c-8.7,7.3-12,14.3-12,14.3c-9.2,10.2-19.5,16.5-30.9,18.8c-0.6,0.1-1.3,0.2-1.9,0.3c-8.4,1.4-17.4,0.7-26.9-2.1c0,0-2.1-1.2-5.9-2.5
	c-1.7-0.6-3.7-1.2-6.1-1.8c-1.8-0.4-3.7-0.8-5.8-1.1v0h0l12.5,42.6l-18.7,5.3c8.8,7.9,14.7,16.6,17.7,26.1h10.1l-8.4-28.7
	c11.3,1.6,17.8,5.4,17.8,5.4l6.8,23.3h23.1c12.1-5.9,25.8-6.7,41-2.4l-11.1-37.8c-16.1,18-35.9,23.8-59.2,17.2
	c-0.1-0.1-0.3-0.1-0.5-0.2c-0.1-0.1-0.2-0.3-0.2-0.5l-3.5-12.1l-4.1-14c10.6,1.4,21.4,0.6,31.6-2.6c10.3-2.8,19.8-7.7,28.1-14.5
	l4.1,14h0v0l14.9-4.3L350.8,550z M110.9,96.2L92,101.6c-1.1,10.6-0.3,21.4,2.7,31.7s8.1,19.9,14.8,28.3l18.9-5.4
	C110.1,139.8,104.3,119.8,110.9,96.2z M78.4,0H57.9c2.3,4.1,4.9,7.9,7.8,11.6l18.9-5.4C82.3,4.2,80.2,2.1,78.4,0z M210.6,628.2
	c-1.6,6-3.5,9.3-3.5,9.3v0l48-13.7c0,0-1.3-0.7-3.3-2.1c-0.3-0.2-0.6-0.5-1-0.7c-0.3-0.3-0.7-0.6-1.1-0.9c-0.6-0.5-1.3-1.1-2-1.7
	c-0.4-0.4-0.9-0.8-1.4-1.2c-1.7-1.6-3.4-3.4-5.3-5.6l16.2-4.6l2.7-0.8c-14.2-12.8-20.9-27.7-20.1-44.7c0.2-3.5,0.7-7.2,1.5-10.9
	c0.2-0.7,0.3-1.4,0.5-2.2c0.2-0.7,0.4-1.5,0.6-2.2l-18.9,5.4c-1.1,10.6-0.3,21.4,2.7,31.7c2.1,7.2,5.2,14,9.2,20.3
	c1.7,2.8,3.6,5.5,5.7,8l-28.8,8.2l0,0h0C211.9,623,211.3,625.8,210.6,628.2z M322,0h-23.1l4.3,14.7C309,8.2,315.3,3.3,322,0z
	 M546.5,625.1c-10.6-1.4-21.4-0.6-31.6,2.6c-10.3,2.8-19.8,7.7-28.1,14.5l-8-27.5c0,0-3.5,6.6-12.1,13.9l6.3,21.4h32.1
	c13.5-9,29-11,46.6-6.1c0.2,0,0.5,0.2,0.6,0.2c0,0,6.6,4.3,17.9,5.8l-13.8-47c-11.3-1.6-17.8-5.4-17.8-5.4L546.5,625.1z
	 M470.2,364.3c-16.3,18.2-36.2,23.9-59.8,17c0,0-6.5-3.8-17.8-5.4l12.5,42.6l-18.7,5.3l0,0h0c5.1,4.6,9.2,9.4,12.4,14.6
	c0.7,1.1,1.4,2.3,2,3.5c0.9,1.8,1.7,3.5,2.4,5.4c0.9,2.4,1.7,4.9,2.2,7.4c0.3,1.3,0.5,2.5,0.7,3.8c0.3,1.9,0.4,3.9,0.5,5.9
	c0.1,2,0,4-0.2,6.1c-0.1,1.4-0.3,2.8-0.5,4.2c-0.1,0.7-0.2,1.4-0.3,2.1c-0.3,1.4-0.6,2.8-0.9,4.3c-0.2,0.7-0.4,1.4-0.6,2.2
	c-0.1,0.1-0.1,0.3-0.3,0.5c-0.1,0.1-0.3,0.2-0.5,0.2l-47.5,13.6l0,0h0c-4-3.6-7.4-7.4-10.2-11.3c-0.4-0.6-0.8-1.1-1.2-1.7
	c-1.1-1.7-2.2-3.4-3.1-5.2c-0.3-0.6-0.6-1.2-0.9-1.8c-0.8-1.8-1.6-3.6-2.2-5.5c-1-3.1-1.8-6.3-2.2-9.5c-0.8-5.9-0.6-12,0.6-18.5
	c0.4-2.1,0.9-4.3,1.5-6.5l-18.9,5.4l-12.6-43c-8.7,7.3-12,14.3-12,14.3c-16.3,18.2-36.2,23.9-59.8,17c0,0-6.5-3.8-17.8-5.4
	l12.5,42.6l-18.7,5.3c8.4,7.5,14.2,15.8,17.3,24.9c0.3,0.8,0.5,1.6,0.8,2.5c0.3,1.1,0.6,2.2,0.9,3.4c0.2,0.7,0.3,1.4,0.4,2.1
	c0.2,1.3,0.4,2.6,0.5,3.9c0.3,2.8,0.3,5.6,0.2,8.4c-0.1,1.8-0.3,3.5-0.5,5.3c-0.1,0.4-0.1,0.8-0.2,1.1c-0.3,1.7-0.6,3.4-1,5.1
	c-0.1,0.5-0.2,1-0.4,1.5c-0.1,0.4-0.2,0.8-0.3,1.3c0,0,0,0.1,0,0.1c-0.1,0.1-0.1,0.3-0.2,0.4c-0.1,0.1-0.3,0.2-0.5,0.2l-47.5,13.6
	c-11.4-10.3-18-21.9-19.7-35c-0.1-0.7-0.2-1.3-0.2-2c-0.4-4-0.3-8,0.2-12.2c0.1-0.7,0.2-1.4,0.3-2.1c0.4-2.8,1.1-5.7,1.9-8.7l0,0v0
	l-18.9,5.4l-12.6-43c-8.7,7.3-12,14.3-12,14.3c-16.3,18.2-36.2,23.9-59.8,17c0,0-6.5-3.8-17.8-5.4l12.5,42.6h0l-3.2,0.9l-15.4,4.4
	c0,0-6.6-3.5-14-12.3l-22,6.3v16.3l35.8-10.2v0C54,540.2,59.9,560,53.5,583.3c-0.1,0.1-0.1,0.3-0.3,0.5c-0.1,0.1-0.2,0.2-0.4,0.2
	c0,0,0,0,0,0l-8.1,2.3L5.3,597.6c-0.6-0.5-1.1-1-1.7-1.6c-0.5-0.5-1.1-1-1.6-1.6c-0.7-0.7-1.3-1.4-2-2.1v6.7l5.2-1.5v0h0
	c0,0,6.6,3.5,14,12.3l-18.6,5.3C11.9,625.4,18.5,637,20.3,650h16.4c0,0,0-0.1,0-0.1c-0.5-4-1.4-7.9-2.5-11.8
	c-1.4-4.7-3.2-9.3-5.4-13.7c-2.6-5.2-5.7-10.1-9.4-14.6l28.8-8.2c0.3-2.1,0.6-4.1,1-5.8c0.8-3.5,1.7-6.3,2.5-8.3
	c0.9-2.3,1.6-3.6,1.6-3.6l18.7-5.3v0h0l-9.6-32.7l-7.2-24.5c2.1,0.3,4.1,0.7,5.8,1.1c2.4,0.5,4.4,1.2,6.1,1.8
	c3.8,1.3,5.9,2.5,5.9,2.5l5.2,17.7l5.9,20.2c0,0-0.1,0.3-0.4,0.7c-0.2,0.3-0.3,0.6-0.6,0.9c0,0-0.1,0.1-0.1,0.2
	c-1.6,2.5-5.1,7.1-11,12.1l0,0l7.3,24.8l6.4,21.7c1.9-1.6,3.5-3.1,4.9-4.6c0.6-0.6,1.2-1.2,1.7-1.8c0.7-0.8,1.3-1.6,1.9-2.3
	c2.5-3.1,3.6-5.2,3.6-5.2l0-0.1l0,0c16.1-18,35.8-23.8,59.2-17.2c0.2,0,0.5,0.2,0.6,0.2c0,0,6.6,4.3,17.9,5.8v0h0l-13.8-47l18.8-5.4
	c0,0,1.6,0.9,4.2,2.8c0,0,0,0,0,0c0.5,0.4,1.1,0.9,1.7,1.4c1,0.8,2,1.8,3.2,2.8c1.5,1.5,3.2,3.2,4.9,5.2l-18.6,5.3v0h0
	c11.3,10.2,17.9,21.8,19.7,34.7c0.1,0.7,0.2,1.4,0.2,2.1c0.2,2.6,0.3,5.2,0.2,7.9c-0.2,4.8-1,9.7-2.4,14.8c0,0.1-0.1,0.1-0.1,0.2
	c0,0.1-0.1,0.2-0.2,0.3c-0.1,0.1-0.2,0.2-0.4,0.2c0,0,0,0-0.1,0v0l2.1-0.6l17.2-4.9c1.1-10.6,0.3-21.4-2.7-31.7
	c-0.3-1.1-0.7-2.1-1-3.2c-1-3.1-2.2-6-3.6-9c-0.8-1.8-1.8-3.5-2.7-5.3c-0.4-0.7-0.8-1.3-1.2-2c-1.9-3.1-3.9-6.1-6.2-8.9l25.6-7.3
	l3.2-0.9c0.1-0.5,0.2-1.1,0.2-1.6c0.1-0.3,0.1-0.6,0.2-1c0.2-1,0.3-1.9,0.5-2.8c1.7-7.9,4.3-12.4,4.3-12.4l18.7-5.3l13.6,46.5l0,0v0
	c3.3-2.7,5.8-5.4,7.6-7.6c0.3-0.4,0.6-0.7,0.9-1.1c0.6-0.7,1-1.3,1.5-1.9c0.2-0.3,0.4-0.6,0.6-0.8c1.1-1.5,1.6-2.5,1.6-2.5l0-0.1
	c6.4-7.2,13.4-12.4,21-15.7c0.3-0.1,0.5-0.2,0.8-0.3c11.2-4.6,23.7-5,37.4-1.2c0.2,0,0.5,0.2,0.6,0.2c0,0,0.8,0.5,2.2,1.2
	c2.2,1.1,5.9,2.6,11,3.8c0.5,0.1,1.1,0.2,1.7,0.3c1,0.2,2,0.4,3.1,0.5v0c0,0,0,0,0,0l-13.8-47l18.8-5.4l0,0c0,0,1,0.5,2.5,1.6
	c1.4,1,3.4,2.5,5.6,4.6c0.6,0.5,1.2,1.1,1.8,1.7c0.9,0.9,1.7,1.8,2.6,2.8c0.5,0.5,0.9,1,1.4,1.6l-18.6,5.3c2.8,2.5,5.4,5.2,7.6,7.9
	c0.4,0.5,0.9,1.1,1.3,1.6c2.5,3.3,4.7,6.7,6.3,10.3c0.3,0.6,0.5,1.2,0.8,1.8c2.1,4.8,3.3,9.8,3.9,15c0.1,0.7,0.1,1.3,0.2,2
	c0.1,2.1,0.1,4.3,0,6.5c-0.2,3.8-0.8,7.6-1.7,11.6c-0.1,0.5-0.2,1-0.4,1.5c-0.1,0.4-0.2,0.8-0.3,1.3c0,0.1-0.1,0.2-0.1,0.3
	c0,0.1-0.1,0.2-0.2,0.2c-0.1,0.1-0.3,0.2-0.5,0.2l0,0c0,0,0,0,0,0l19.4-5.5c0.3-2.7,0.4-5.3,0.5-8c0.1-8-1-16-3.2-23.7
	c-0.4-1.3-0.8-2.6-1.2-3.8c-2.6-7.6-6.4-14.8-11.1-21.3c-0.8-1.1-1.6-2.2-2.5-3.2l28.8-8.2c0.6-4.9,1.7-8.9,2.7-11.9
	c1.3-3.8,2.5-5.8,2.5-5.8l18.7-5.3l1.7,5.8l11.9,40.7l0,0v0c8.7-7.3,12.1-13.9,12.1-13.9v0l0-0.1c9.6-10.7,20.4-17.1,32.5-19.1
	c1.3-0.2,2.6-0.4,3.9-0.5c2.6-0.2,5.3-0.3,8-0.1c4.8,0.3,9.7,1.1,14.8,2.5c0.2,0,0.5,0.2,0.6,0.2c0,0,0.6,0.4,1.9,1
	c2.7,1.4,8.3,3.7,16,4.8c-4.9,4.1-8.1,8.1-9.9,10.8c-1.4,2.1-2.1,3.5-2.1,3.5c-2,2.3-4.1,4.4-6.3,6.2c-2.1,1.9-4.4,3.6-6.6,5.1
	c-0.6,0.4-1.1,0.7-1.7,1.1c-13.2,8-28.2,9.6-45.2,4.7c0,0-6.5-3.8-17.8-5.4v0l12.5,42.6l-18.6,5.3l0,0h0c0,0-5.8-3.1-12.6-10.7
	c-0.5-0.5-0.9-1-1.4-1.6l18.9-5.4h0l0,0c-2.6-2.4-5-4.8-7.2-7.4c-0.4-0.4-0.7-0.9-1.1-1.3c-0.5-0.6-1-1.2-1.4-1.9
	c-0.4-0.5-0.8-1.1-1.2-1.6c-0.7-1.1-1.4-2.2-2.1-3.3c-0.4-0.7-0.8-1.4-1.2-2.1c-0.2-0.4-0.4-0.8-0.6-1.2c-0.4-0.8-0.8-1.7-1.2-2.5
	c-0.4-0.9-0.8-1.8-1.1-2.7c-0.4-1-0.7-2-1-3c-0.1-0.2-0.1-0.4-0.2-0.5c-0.3-1.1-0.6-2.3-0.9-3.4c-0.1-0.7-0.3-1.4-0.4-2.1
	c-1.4-8.4-0.8-17.4,1.9-26.9l0,0l-18.9,5.4c-0.1,1.3-0.3,2.7-0.3,4c-0.4,6.6,0,13.3,1.2,19.9c0.5,2.6,1.1,5.3,1.9,7.9
	c0.8,2.8,1.8,5.6,3,8.4c0.9,2.2,1.9,4.4,3,6.5c0.8,1.5,1.7,3.1,2.6,4.5c1.9,3.1,3.9,6.1,6.2,8.9l-28.8,8.2c-0.9,7-2.7,12.2-3.9,15.1
	c-0.2,0.6-0.5,1.1-0.6,1.5c-0.4,0.8-0.6,1.2-0.6,1.2l47.9-13.7c18.2,16.3,24.1,36.2,17.7,59.4c-0.1,0.1-0.1,0.3-0.3,0.5
	c-0.1,0.1-0.3,0.2-0.5,0.2l-47.5,13.6c-18.3-16.4-24.2-36.4-17.5-60l-33.8,9.6l3.6,12.4c0,0,3.1-6,11-12.8
	c-0.6,9.3,0.4,18.8,3.2,27.8c2.6,9.1,6.8,17.7,12.4,25.3h12.8l8.3-2.4c0,0,1.4,0.7,3.6,2.4h39.6c1.6-10.3,5-16.1,5-16.1l18.7-5.3
	l-16.7-57.2c11.3,1.6,17.8,5.4,17.8,5.4l11.1,38c16.3-18.2,36.1-23.8,59.8-17l-11.1-37.8c-16.1,18-35.9,23.8-59.2,17.2
	c-0.1-0.1-0.3-0.1-0.5-0.2c-0.1-0.1-0.2-0.3-0.2-0.5l-3.5-12.1v0l-4.1-14c10.6,1.4,21.4,0.6,31.6-2.6c2.6-0.7,5.1-1.5,7.6-2.5
	c7.4-2.9,14.4-6.9,20.6-12l4.1,14l3.6,12.4c0,0,3.1-6,11-12.8c-0.6,9.3,0.4,18.8,3.2,27.8c2.9,10.3,7.9,19.9,14.7,28.3l13.8-3.9
	v-6.5c-14.2-15.4-18.4-33.8-12.4-54.9l-18.9,5.4v0l-12.6-43l-13.8-47l18.8-5.4h0l0,0c0,0,6.6,3.5,14,12.3l-18.6,5.3l0,0h0
	c5.1,4.6,9.2,9.4,12.4,14.6c0.7,1.1,1.4,2.3,2,3.5c0.9,1.8,1.7,3.5,2.4,5.4c0.9,2.4,1.7,4.9,2.2,7.4c0.3,1.3,0.5,2.5,0.7,3.8
	c0.3,1.9,0.4,3.9,0.5,5.9c0.1,2,0,4-0.2,6.1c-0.1,1.4-0.3,2.8-0.5,4.2c-0.1,0.7-0.2,1.4-0.3,2.1c-0.3,1.4-0.6,2.8-0.9,4.3
	c-0.2,0.7-0.4,1.4-0.6,2.2c-0.1,0.1-0.1,0.3-0.3,0.5c0,0.1-0.1,0.1-0.2,0.1c-0.1,0-0.2,0.1-0.3,0.1l0,0c0,0,0,0,0,0l19.4-5.5
	c0.1-1.3,0.3-2.7,0.3-4c0.3-5.3,0.1-10.7-0.6-16c-0.5-4-1.4-7.9-2.5-11.8c-0.1-0.2-0.1-0.4-0.2-0.6c-0.6-2.1-1.3-4.1-2.1-6.1
	c-0.2-0.6-0.5-1.2-0.7-1.8c-0.7-1.7-1.5-3.4-2.3-5.1c-1.1-2.1-2.2-4.2-3.5-6.2c-1.8-2.9-3.8-5.7-5.9-8.4l24.7-7v-16.3l-38.7,11.1
	c-3.4-3.1-6.4-6.3-9-9.6c-1.3-1.7-2.4-3.4-3.5-5.1c-0.4-0.6-0.7-1.2-1-1.7c-3.3-5.8-5.4-12-6.2-18.5c-1-7.8-0.3-16.2,2.2-25h0v0
	l-33.8,9.6l3.6,12.4l0,0v0c0,0,1.5-2.8,5-6.8c0.3-0.4,0.6-0.7,1-1.1c1.4-1.5,3.1-3.2,5-4.9c-0.4,5.8-0.1,11.7,0.8,17.5
	c0,0,0,0.1,0,0.1c0.5,3.4,1.3,6.9,2.3,10.2c1.1,3.9,2.5,7.6,4.1,11.3c1.1,2.4,2.3,4.8,3.7,7.1c2,3.5,4.3,6.8,6.9,9.9
	c-7-1-12.2-2.8-15.1-4.1c-0.6-0.2-1.1-0.5-1.5-0.7c-0.8-0.4-1.2-0.6-1.2-0.6l8,27.5c-10.6-1.4-21.4-0.6-31.6,2.6
	c-10.3,2.8-19.8,7.7-28.1,14.5l-6.9-23.6l-1.1-3.9c14.2-15.9,31.2-22.2,51.1-19c2.8,0.5,5.7,1.1,8.7,2l-11.1-37.8
	c-9.1,10.1-19.3,16.4-30.7,18.8c-0.6,0.1-1.3,0.3-1.9,0.4c-4.5,0.8-9.1,0.9-13.9,0.5c-2.7-0.2-5.6-0.7-8.4-1.3
	c-1.4-0.3-2.9-0.7-4.3-1.1c-0.1-0.1-0.3-0.1-0.5-0.2c-0.1-0.1-0.2-0.3-0.2-0.5l-3.5-12.1l-4.1-14c10.6,1.4,21.4,0.6,31.6-2.6
	c10.3-2.8,19.8-7.7,28.1-14.5l4.1,14l14.9-4.3l-12.6-43C473.6,357.3,470.2,364.3,470.2,364.3z M155.9,551.9
	c-2.9-0.7-5.4-1.5-7.3-2.2c-3-1.1-4.7-2.1-4.7-2.1v0l0,0l8,27.5c-10.6-1.4-21.4-0.6-31.6,2.6c-7.7,2.1-15,5.4-21.7,9.8
	c-1.1,0.7-2.2,1.5-3.3,2.3c-1.1,0.8-2.1,1.6-3.2,2.4l-8-27.5c16.3-18.2,36.1-23.8,59.8-17h0l-11.1-37.8c-7.4,8.3-15.7,14-24.7,17.1
	c-0.2,0.1-0.5,0.2-0.7,0.2c-1.7,0.5-3.4,1-5.1,1.4c-0.7,0.1-1.4,0.3-2.1,0.4c-4.5,0.8-9.1,0.9-13.9,0.5c-1.4-0.1-2.8-0.3-4.2-0.5
	c-1.4-0.2-2.8-0.5-4.2-0.8c-1.1-0.2-2.3-0.5-3.4-0.8c-0.3-0.1-0.6-0.2-0.9-0.2c0,0-0.1,0-0.1,0c-0.1,0-0.2-0.1-0.3-0.1
	c0,0,0,0,0-0.1c-0.1-0.1-0.1-0.2-0.2-0.3c0,0,0-0.1,0-0.1l-1.5-5.2l-2-6.9l-4.1-14c10.6,1.4,21.4,0.6,31.6-2.6
	c10.3-2.8,19.8-7.7,28.1-14.5l4.1,14l3.6,12.4l0,0v0c0,0,3.1-6,11-12.8c-0.4,7,0,14,1.4,20.9c0.5,2.3,1.1,4.7,1.8,7
	c2.9,10.3,7.9,19.9,14.7,28.3C159.6,552.7,157.7,552.3,155.9,551.9z M323.4,524.7c-2.7-0.2-5.3-0.3-8-0.2c-2.7,0.1-5.3,0.3-8,0.6
	c0,0-0.1,0-0.1,0c-2.5,0.3-5,0.8-7.5,1.4c-1.4,0.3-2.8,0.7-4.2,1.1c-1.3,0.4-2.6,0.7-3.8,1.2c-1.3,0.4-2.5,0.9-3.7,1.4
	c-7.4,2.9-14.4,6.9-20.6,12l-8-27.5c0,0-0.5,0.9-1.6,2.5c-0.9,1.3-2.2,3-3.9,5c-1.7,2-3.9,4.2-6.7,6.4l-8.2-28l-8.5-29.2
	c11.3,1.6,17.8,5.4,17.8,5.4l5.9,20.2l5.2,17.7c1.5-1.7,3.1-3.3,4.7-4.8c0.5-0.5,1.1-1,1.6-1.4c1.1-0.9,2.2-1.8,3.3-2.7
	c3.3-2.5,6.7-4.6,10.3-6.3c3.6-1.6,7.2-2.9,11.1-3.6c1.3-0.3,2.6-0.5,3.9-0.6c0,0,0,0,0,0c3.9-0.5,7.9-0.5,12.1-0.1
	c0.7,0.1,1.4,0.1,2.1,0.2c3.5,0.5,7.1,1.2,10.8,2.3l8,27.5C326,525,324.7,524.8,323.4,524.7z M336.4,502.9
	c-10.9-1.6-17.1-5.3-17.1-5.3l-11.1-37.8v0l0,0c-1,1.1-2,2.2-3.1,3.2c-0.5,0.5-1,1-1.6,1.5c-2.1,2-4.3,3.7-6.5,5.3
	c-2.2,1.6-4.5,3-6.8,4.2c-1.2,0.6-2.3,1.1-3.5,1.7c-0.6,0.3-1.2,0.5-1.8,0.7c-3.6,1.4-7.4,2.3-11.2,2.8c-1.3,0.2-2.6,0.3-3.9,0.4
	c-2.1,0.1-4.3,0.1-6.5,0c-3.8-0.2-7.6-0.8-11.6-1.8c-0.5-0.1-1-0.3-1.5-0.4c-0.4-0.1-0.8-0.2-1.3-0.3c-0.1,0-0.1-0.1-0.2-0.1
	c-0.1,0-0.2-0.1-0.2-0.1c-0.1,0-0.1-0.2-0.2-0.3c0-0.1,0-0.1-0.1-0.2l-0.9-3l-2.7-9.1h0l-4.1-14c10.6,1.4,21.4,0.6,31.6-2.6
	c10.3-2.8,19.8-7.7,28.1-14.5l4.1,14l1.7,5.7l2,6.7l0,0v0c0,0,0.2-0.4,0.6-1c0.2-0.3,0.5-0.7,0.8-1.2c0.5-0.7,1.1-1.6,1.9-2.5
	c1.8-2.2,4.3-5.1,7.7-8.1c-0.2,3.6-0.2,7.2,0,10.7c0.2,2.3,0.4,4.5,0.8,6.8c0,0,0,0,0,0c0.5,3.5,1.3,6.9,2.4,10.3
	c2.7,9.5,7.1,18.4,13.1,26.3c0.5,0.7,1,1.4,1.6,2C336.8,503,336.6,502.9,336.4,502.9z M417.9,424.2c3.8,1.3,5.9,2.5,5.9,2.5l11.1,38
	c0,0-3.5,6.6-12.1,13.9L406,421.3c2.1,0.3,4.1,0.7,5.8,1.1c1.2,0.3,2.3,0.6,3.3,0.9C416.1,423.6,417,423.9,417.9,424.2z M460.6,0
	h-12.4l-5.6,1.6c-1.1,10.6-0.3,21.4,2.7,31.7c3,10.3,8.1,19.9,14.8,28.3l18.9-5.4C461.7,40.6,455.6,21.9,460.6,0z M378.5,0
	c0.7,1,1.5,2,2.3,3l10.5-3H378.5z"/>
</svg>
