<svg width="936" height="579" viewBox="0 0 936 579" fill="none" xmlns="http://www.w3.org/2000/svg">
<path d="M437.058 2H162.473C154.482 2 148.004 8.47815 148.004 16.4694V291.055C148.004 299.046 154.482 305.524 162.473 305.524H437.058C445.05 305.524 451.528 299.046 451.528 291.055V16.4694C451.528 8.47815 445.05 2 437.058 2Z" fill="#0055FC"/>
<mask id="mask0_424_4" style="mask-type:luminance" maskUnits="userSpaceOnUse" x="148" y="2" width="304" height="304">
<path d="M437.055 2H162.469C154.478 2 148 8.47815 148 16.4694V291.055C148 299.046 154.478 305.524 162.469 305.524H437.055C445.046 305.524 451.524 299.046 451.524 291.055V16.4694C451.524 8.47815 445.046 2 437.055 2Z" fill="white"/>
</mask>
<g mask="url(#mask0_424_4)">
<path d="M311.072 155.553L301.276 158.083H301.27L267.098 166.913L263.576 164.105L239.988 145.326L230.573 126.337C214.836 125.851 204.005 107.878 206.942 98.2295C207.97 94.8554 210.125 93.4823 212.496 93.119C216.898 92.4541 222.04 95.2925 222.04 95.2925C224.872 95.2556 224.896 89.6587 224.896 82.8427C224.896 76.0267 246.644 45.6719 246.644 45.6719C246.644 45.6719 281.044 48.1101 295.495 52.3339C309.933 56.5516 310.912 71.649 310.912 71.649L310.949 91.7152L311.072 155.553Z" fill="#0055FC" stroke="white" stroke-width="2.46287" stroke-miterlimit="10"/>
<path d="M310.986 113.246C310.986 113.246 328.06 100.796 315.007 85.3906C315.007 85.3906 312.378 91.1414 310.949 91.714L310.986 113.246Z" fill="#0055FC" stroke="white" stroke-width="2.46287" stroke-miterlimit="10"/>
<path d="M313.599 88.6981C312.792 89.9233 311.9 91.0686 310.908 92.1215L310.871 71.9321C310.871 71.9321 309.892 56.7423 295.362 52.5062C280.824 48.2578 246.215 45.8072 246.215 45.8072C246.215 45.8072 224.332 76.3406 224.332 83.1997C224.332 87.0664 224.314 89.1168 224.308 90.6253C224.302 92.1338 222.849 93.1251 221.463 92.6202C218.532 91.5612 214.019 90.1943 211.218 90.6129C211.027 90.5514 210.313 92.7125 209.955 71.4149C209.598 50.1172 224.807 43.6768 224.807 43.6768C229.997 33.2958 266.509 10.736 298.194 33.9177C329.879 57.0995 313.593 88.6919 313.593 88.6919L313.599 88.6981Z" fill="white" stroke="white" stroke-width="2.46287" stroke-miterlimit="10"/>
<path d="M302.878 170.565C299.11 177.627 268.952 199.54 253.171 198.124C237.384 196.714 236.688 170.565 236.688 170.565L236.251 168.527L227.262 126.75L230.574 126.338L239.989 145.327L263.577 164.106L267.099 166.914L302.644 158.318L302.878 170.565Z" fill="#0055FC" stroke="white" stroke-width="2.46287" stroke-miterlimit="10"/>
<path d="M267.844 214.87L257.407 226.827L249.76 229.931L245.05 226.396L240.223 210.683C242.064 207.42 243.769 204.594 244.976 203.005C245.524 202.291 245.967 201.823 246.275 201.694C246.3 201.682 246.324 201.669 246.349 201.663C248.941 200.955 253.177 198.129 253.177 198.129C253.177 198.129 253.651 199.785 259.304 202.371C261.52 203.381 264.747 208.738 267.844 214.87Z" fill="white" stroke="white" stroke-width="2.46287" stroke-miterlimit="10"/>
<path d="M253.171 198.123C253.171 198.123 248.935 200.949 246.343 201.657C246.318 201.664 246.293 201.67 246.269 201.688C245.961 201.824 245.517 202.285 244.969 203C243.757 204.588 242.051 207.414 240.216 210.678C235.37 219.261 229.613 230.867 229.613 230.867C229.613 230.867 229.016 226.144 228.382 219.784C227.243 208.295 225.999 191.455 227.97 187.514C229.133 185.181 230.106 182.028 231.054 178.95C232.55 174.092 234.028 169.443 236.251 168.52L236.688 170.558C236.688 170.558 236.774 173.932 237.624 178.322C238.923 185.027 241.971 194.084 249.163 197.113C249.544 197.286 249.938 197.434 250.345 197.557C251.225 197.84 252.167 198.031 253.171 198.117V198.123Z" fill="#0055FC" stroke="white" stroke-width="2.46287" stroke-miterlimit="10"/>
<path d="M314.429 176.924L285.447 222.795L277.209 235.823C277.209 235.823 272.677 224.402 267.85 214.87C264.747 208.738 261.52 203.381 259.31 202.371C253.658 199.779 253.184 198.129 253.184 198.129C254.92 198.283 256.829 198.16 258.86 197.803C260.227 197.556 261.644 197.218 263.097 196.787C277.781 192.403 296.302 178.943 301.721 172.263C302.232 171.635 302.619 171.068 302.884 170.57L302.65 158.323L267.105 166.918L301.277 158.089H301.283L305.71 157.381L311.917 171.296L314.429 176.93V176.924Z" fill="#0055FC" stroke="white" stroke-width="2.46287" stroke-miterlimit="10"/>
<path d="M419.846 266.727L381.751 403.933L381.369 405.313L375.557 414.32L368.329 425.527L355.934 429.116L349.328 428.771L257.069 423.956L231.042 422.596L214.781 420.096L203.39 418.341L191.753 416.556L163.221 412.165C163.221 412.165 161.109 405.313 161.817 395.363C162.045 392.087 162.593 388.473 163.609 384.655C166.49 373.899 173.189 361.523 187.677 350.532L212.158 348.119L215.932 347.749L218.248 347.521L226.929 346.666L233.523 346.013L235.888 345.785L323.64 247.806L310.642 231.311L331.299 235.99L336.755 193.506C336.755 193.506 336.022 192.311 334.895 190.477C338.275 191.56 404.779 211.731 409.532 211.731L419.858 266.733L419.846 266.727Z" fill="#0055FC" stroke="white" stroke-width="2.46287" stroke-miterlimit="10"/>
<path d="M257.403 281.627L226.852 346.659L218.25 347.515L223.237 283.782L244.806 226.828L249.473 230.35L257.053 227.265L257.403 281.627Z" fill="white" stroke="white" stroke-width="2.46287" stroke-miterlimit="10"/>
<path d="M228.383 219.79L228.297 219.876L223.285 283.541L218.248 347.502L215.933 347.73L212.159 348.099L191.957 245.835L211.789 228.964L197.88 218.903L205.62 208.67L224.522 183.678L231.037 178.943H231.067C230.113 182.022 229.146 185.174 227.983 187.508C226.012 191.449 227.256 208.288 228.395 219.778L228.383 219.79Z" fill="#0055FC" stroke="white" stroke-width="2.46287" stroke-miterlimit="10"/>
<path d="M331.284 235.983L310.627 231.304L323.625 247.799L235.873 345.778L233.508 346.006L226.914 346.658L257.743 281.386L285.426 222.788L314.407 176.917L311.895 171.284H311.975C311.975 171.284 321.722 168.544 323.471 171.659C324.782 173.993 331.531 185.026 334.862 190.463C335.988 192.292 336.721 193.493 336.721 193.493L331.266 235.977L331.284 235.983Z" fill="#0055FC" stroke="white" stroke-width="2.46287" stroke-miterlimit="10"/>
<path d="M235.883 345.778L316.616 337.829L339.994 283.947" fill="#0055FC"/>
<path d="M235.883 345.778L316.616 337.829L339.994 283.947" stroke="white" stroke-width="2.46287" stroke-miterlimit="10"/>
<path d="M334.882 190.471C334.784 190.434 334.734 190.422 334.734 190.422L334.882 190.471Z" fill="#0055FC"/>
<path d="M334.882 190.471C334.784 190.434 334.734 190.422 334.734 190.422" stroke="white" stroke-width="2.46287" stroke-miterlimit="10"/>
<path d="M205.612 208.682L139.902 235.225" stroke="white" stroke-width="2.46287" stroke-miterlimit="10"/>
<path d="M159.512 297.918L160.22 351.867" stroke="white" stroke-width="2.46287" stroke-miterlimit="10"/>
<path d="M303.245 87.1902C303.245 87.1902 294.656 79.5553 283.684 88.3847L292.747 120.833L273.66 119.879" fill="#0055FC"/>
<path d="M303.245 87.1902C303.245 87.1902 294.656 79.5553 283.684 88.3847L292.747 120.833L273.66 119.879" stroke="white" stroke-width="2.46287" stroke-miterlimit="10"/>
<path d="M269.363 90.053C269.363 90.053 258.391 84.8071 245.984 92.2019L269.363 90.053Z" fill="#0055FC"/>
<path d="M269.363 90.053C269.363 90.053 258.391 84.8071 245.984 92.2019" stroke="white" stroke-width="2.46287" stroke-miterlimit="10"/>
<path d="M255.051 132.518C255.051 132.518 271.035 137.53 288.928 133.946L255.051 132.518Z" fill="#0055FC"/>
<path d="M255.051 132.518C255.051 132.518 271.035 137.53 288.928 133.946" stroke="white" stroke-width="2.46287" stroke-miterlimit="10"/>
</g>
<path d="M437.058 2H162.473C154.482 2 148.004 8.47815 148.004 16.4694V291.055C148.004 299.046 154.482 305.524 162.473 305.524H437.058C445.05 305.524 451.528 299.046 451.528 291.055V16.4694C451.528 8.47815 445.05 2 437.058 2Z" stroke="white" stroke-width="2.46287" stroke-miterlimit="10"/>
<path d="M769.859 273.475H495.274C487.283 273.475 480.805 279.953 480.805 287.944V562.529C480.805 570.52 487.283 576.999 495.274 576.999H769.859C777.85 576.999 784.329 570.52 784.329 562.529V287.944C784.329 279.953 777.85 273.475 769.859 273.475Z" fill="#0055FC"/>
<mask id="mask1_424_4" style="mask-type:luminance" maskUnits="userSpaceOnUse" x="480" y="273" width="305" height="304">
<path d="M769.859 273.473H495.274C487.283 273.473 480.805 279.951 480.805 287.942V562.527C480.805 570.518 487.283 576.997 495.274 576.997H769.859C777.85 576.997 784.329 570.518 784.329 562.527V287.942C784.329 279.951 777.85 273.473 769.859 273.473Z" fill="white"/>
</mask>
<g mask="url(#mask1_424_4)">
<path d="M721.037 366.024C712.891 364.7 707.682 377.722 707.682 377.722L702.19 376.805L701.309 371.67L697.843 351.413C688.921 349.122 680 332.196 680 332.196C650.482 339.289 635.612 327.16 635.612 327.16C635.612 327.16 627.35 342.171 620.361 343.125C620.09 342.06 619.955 340.976 619.979 339.88C620.583 313.811 657.871 304.409 657.871 304.409C657.871 304.409 702.43 296.534 719.405 327.757C727.379 342.417 725.39 355.883 721.031 366.03L721.037 366.024Z" fill="white" stroke="white" stroke-width="2.46287" stroke-miterlimit="10"/>
<path d="M707.691 377.721C707.691 377.721 712.894 364.698 721.046 366.022C722.246 366.219 723.521 366.736 724.851 367.648C735.146 374.741 720.27 394.647 720.27 394.647L714.094 405.403C714.094 405.403 711.785 406.69 709.249 406.69L709.316 444.551L709.329 452.235L709.341 459.587V460.99L709.366 475.466C709.366 475.466 665.637 516.263 638.989 457.352C638.989 457.352 640.491 454.525 641.649 450.88C641.938 449.981 642.203 449.027 642.412 448.054C642.788 446.361 643.016 444.6 642.942 442.944C642.93 442.611 642.911 442.297 642.905 441.989L639.962 441.09L633.097 438.991L621.201 435.364L620.438 383.699C621.841 384.1 623.411 384.327 625.148 384.327C638.299 384.327 640.374 371.477 640.374 371.477H650.817C650.817 371.477 654.136 384.512 667.287 384.512C680.439 384.512 682.508 371.656 682.508 371.656H701.306" fill="#0055FC"/>
<path d="M707.691 377.721C707.691 377.721 712.894 364.698 721.046 366.022C722.246 366.219 723.521 366.736 724.851 367.648C735.146 374.741 720.27 394.647 720.27 394.647L714.094 405.403C714.094 405.403 711.785 406.69 709.249 406.69L709.316 444.551L709.329 452.235L709.341 459.587V460.99L709.366 475.466C709.366 475.466 665.637 516.263 638.989 457.352C638.989 457.352 640.491 454.525 641.649 450.88C641.938 449.981 642.203 449.027 642.412 448.054C642.788 446.361 643.016 444.6 642.942 442.944C642.93 442.611 642.911 442.297 642.905 441.989L639.962 441.09L633.097 438.991L621.201 435.364L620.438 383.699C621.841 384.1 623.411 384.327 625.148 384.327C638.299 384.327 640.374 371.477 640.374 371.477H650.817C650.817 371.477 654.136 384.512 667.287 384.512C680.439 384.512 682.508 371.656 682.508 371.656H701.306" stroke="white" stroke-width="2.46287" stroke-miterlimit="10"/>
<path d="M709.247 406.693C707.639 406.693 705.959 406.169 704.715 404.482L709.247 406.693Z" fill="#0055FC"/>
<path d="M709.247 406.693C707.639 406.693 705.959 406.169 704.715 404.482" stroke="white" stroke-width="2.46287" stroke-miterlimit="10"/>
<path d="M642.91 441.997L648.199 443.611L694.415 431.025L697.844 416.611" fill="#0055FC"/>
<path d="M642.91 441.997L648.199 443.611L694.415 431.025L697.844 416.611" stroke="white" stroke-width="2.46287" stroke-miterlimit="10"/>
<path d="M620.435 383.713L620.25 371.3L620.367 343.119" fill="#0055FC"/>
<path d="M620.435 383.713L620.25 371.3L620.367 343.119" stroke="white" stroke-width="2.46287" stroke-miterlimit="10"/>
<path d="M620.436 383.714C611.176 381.121 608.676 371.301 608.676 371.301H620.399" fill="#0055FC"/>
<path d="M620.436 383.714C611.176 381.121 608.676 371.301 608.676 371.301H620.399" stroke="white" stroke-width="2.46287" stroke-miterlimit="10"/>
<path d="M710.663 371.662H701.316" stroke="white" stroke-width="2.46287" stroke-miterlimit="10"/>
<path d="M642.012 371.387L634.531 400.424L651.143 405.06" fill="#0055FC"/>
<path d="M642.012 371.387L634.531 400.424L651.143 405.06" stroke="white" stroke-width="2.46287" stroke-miterlimit="10"/>
<path d="M657.359 420.483C657.359 420.483 667.457 422.558 674.045 414.732L657.359 420.483Z" fill="#0055FC"/>
<path d="M657.359 420.483C657.359 420.483 667.457 422.558 674.045 414.732" stroke="white" stroke-width="2.46287" stroke-miterlimit="10"/>
<path d="M626.888 602.847C623.089 604.097 619.278 605.298 615.565 606.4C608.244 602.638 579.379 598.389 579.379 598.389C580.216 590.736 580.814 583.144 581.072 575.836C582.913 523.044 547.312 478.854 547.312 478.854L614.5 458.936L607.856 466.059L594.476 508.064L613.219 517.33L593.965 534.201L626.894 602.841L626.888 602.847Z" fill="#0055FC" stroke="white" stroke-width="2.46287" stroke-miterlimit="10"/>
<path d="M636.195 452.508L630.395 454.226" stroke="white" stroke-width="2.46287" stroke-miterlimit="10"/>
<path d="M651.304 587.042L650.171 594.659C649.574 594.88 648.977 595.102 648.367 595.323C647.628 595.594 646.884 595.878 646.12 596.149C645.43 596.401 644.728 596.653 644.02 596.906C643.516 597.091 642.998 597.275 642.481 597.46C642.284 597.534 642.075 597.608 641.878 597.682C640.911 598.027 639.944 598.371 638.965 598.722C638.904 598.747 638.855 598.759 638.799 598.784C637.863 599.116 636.915 599.449 635.961 599.769C635.856 599.806 635.758 599.843 635.653 599.88C635.622 599.892 635.604 599.904 635.573 599.911C635.45 599.954 635.314 599.997 635.191 600.046C634.465 600.305 633.726 600.551 632.993 600.803C630.973 601.493 628.935 602.189 626.897 602.86L593.969 534.22L613.222 517.349L594.48 508.083L607.859 466.078L614.503 458.955L639.969 441.117C636.595 444.565 631.897 449.706 630.85 452.631C630.702 453.05 630.549 453.598 630.401 454.244C628.923 460.82 627.79 478.362 630.518 492.043C632.999 504.438 646.613 565.923 651.304 587.061V587.042Z" fill="#0055FC" stroke="white" stroke-width="2.46287" stroke-miterlimit="10"/>
<path d="M718.393 467.229L713.609 463.941" stroke="white" stroke-width="2.46287" stroke-miterlimit="10"/>
<path d="M790.157 516.635L726.695 472.943" stroke="white" stroke-width="2.46287" stroke-miterlimit="10"/>
<path d="M736.399 527.372C736.036 527.76 735.685 528.148 735.316 528.511C735.217 528.628 735.112 528.739 734.989 528.85C734.983 528.856 734.977 528.862 734.958 528.881C734.909 528.93 734.854 528.991 734.804 529.047C734.755 529.09 734.7 529.145 734.65 529.195C734.509 529.336 734.361 529.472 734.226 529.619C733.031 530.82 731.917 532.015 730.882 533.135C730.106 533.979 729.398 534.791 728.746 535.543C728.733 535.555 728.715 535.58 728.703 535.592C727.508 536.866 726.505 537.938 726.018 538.43L688.767 534.256L689.562 528.862L674.076 527.255L662.802 589.843C660.001 590.933 656.59 592.25 652.772 593.679C651.929 593.993 651.055 594.319 650.168 594.652L651.301 587.041L661.454 518.992L692.609 522.471L693.952 522.619L709.215 524.324L724.934 526.079L735.155 527.218L736.399 527.36V527.372Z" fill="white" stroke="white" stroke-width="2.46287" stroke-miterlimit="10"/>
<path d="M725.008 540.131C724.066 541.75 717.952 552.174 711.266 561.681C716.29 553.892 723.894 541.873 725.008 540.131Z" fill="#0055FC" stroke="white" stroke-width="2.46287" stroke-miterlimit="10"/>
<path d="M709.739 521.517H709.751L719.245 471.318L718.396 467.235L717.171 461.3L709.363 445.408L722.694 461.645L726.252 471.693L726.696 472.943L732.631 489.74L740.654 512.411L724.221 523.167L709.739 521.517Z" fill="#0055FC" stroke="white" stroke-width="2.46287" stroke-miterlimit="10"/>
<path d="M714.88 478.621C714.88 478.621 701.396 504.622 664.409 496.144C638.555 490.215 632.368 461.916 632.946 456.252L633.778 453.038L639.023 451.671L641.653 450.889C640.495 454.534 638.993 457.36 638.993 457.36C665.641 516.272 709.369 475.474 709.369 475.474L709.344 460.999L715.009 464.81L716.247 471.22L714.886 478.621H714.88Z" fill="white" stroke="white" stroke-width="2.46287" stroke-miterlimit="10"/>
<path d="M711.215 561.76C708.783 565.516 706.967 568.268 706.776 568.379C706.524 568.526 706.24 568.705 705.914 568.884C707.669 566.692 709.461 564.26 711.215 561.76Z" fill="#0055FC" stroke="white" stroke-width="2.46287" stroke-miterlimit="10"/>
<path d="M725.008 540.131C724.066 541.75 717.952 552.174 711.266 561.681C716.29 553.892 723.894 541.873 725.008 540.131Z" fill="#0055FC" stroke="white" stroke-width="2.46287" stroke-miterlimit="10"/>
<path d="M681.731 697.156L676.165 696.879L671.898 696.657L648.581 695.487L645.669 695.34L550.436 699.773L519.169 690.697L508.69 672.927L491.598 637.431L517.15 512.115L547.314 478.854C547.314 478.854 582.915 523.043 581.08 575.835C580.821 583.144 580.224 590.735 579.387 598.389L556.55 613.966H556.543L556.537 613.973H556.543L560.158 620.856C560.835 621.004 561.9 621.016 563.286 620.918C567.386 619.576 571.936 618.283 576.911 617.137C578.432 616.793 579.996 616.454 581.597 616.134C586.794 613.942 592.397 612.07 598.228 610.888C603.4 609.835 609.347 608.259 615.578 606.405C619.285 605.303 623.103 604.103 626.901 602.853C628.939 602.182 630.978 601.492 632.997 600.796C633.736 600.544 634.469 600.298 635.195 600.039C635.318 599.996 635.454 599.953 635.577 599.903C635.608 599.897 635.626 599.891 635.657 599.873C635.762 599.836 635.86 599.799 635.965 599.762C636.919 599.436 637.874 599.109 638.803 598.777C638.865 598.752 638.914 598.74 638.97 598.715C639.949 598.37 640.921 598.026 641.882 597.675C642.079 597.601 642.288 597.527 642.485 597.453C643.003 597.268 643.514 597.083 644.025 596.899C644.733 596.646 645.428 596.394 646.124 596.141C646.881 595.871 647.633 595.587 648.372 595.316C648.981 595.095 649.578 594.873 650.176 594.651C651.068 594.319 651.937 593.999 652.78 593.679C656.598 592.25 660.009 590.932 662.81 589.843C663.666 589.516 664.466 589.202 665.205 588.913C665.205 588.913 665.209 588.911 665.218 588.907C665.218 588.907 665.224 588.901 665.23 588.901C666.498 588.55 668.53 587.971 670.987 587.244L671.055 587.872C668.487 592.164 666.997 603.53 666.954 618.412C666.948 619.126 666.948 619.853 666.954 620.585C666.954 620.986 666.954 621.38 666.96 621.786C666.972 623.202 666.997 624.643 667.04 626.108C667.071 627.352 667.114 628.627 667.163 629.907C667.231 631.459 667.305 633.041 667.397 634.642C667.44 635.418 667.483 636.194 667.539 636.976C667.588 637.764 667.643 638.564 667.699 639.371C667.705 639.556 667.724 639.74 667.736 639.925C667.797 640.756 667.859 641.594 667.933 642.443C667.97 642.905 668.007 643.361 668.05 643.823C668.167 645.189 668.29 646.544 668.425 647.886C668.425 647.899 668.432 647.923 668.432 647.936C668.469 648.342 668.505 648.736 668.549 649.142C668.789 651.501 669.053 653.797 669.343 656.038C669.441 656.79 669.54 657.535 669.638 658.267C669.651 658.317 669.651 658.366 669.663 658.409C669.829 659.665 670.008 660.909 670.193 662.134C670.377 663.353 670.568 664.554 670.765 665.736C670.864 666.327 670.962 666.906 671.061 667.478C671.135 667.916 671.215 668.34 671.289 668.765C671.516 670.04 671.75 671.284 671.997 672.49C672.187 673.475 672.385 674.442 672.594 675.384C672.619 675.464 672.637 675.55 672.655 675.643C672.926 676.911 673.21 678.124 673.499 679.3C673.524 679.386 673.542 679.479 673.567 679.565C673.647 679.879 673.721 680.193 673.801 680.501C674.09 681.628 674.379 682.711 674.675 683.74C674.755 684.017 674.835 684.294 674.915 684.565C675.075 685.1 675.241 685.63 675.402 686.147C675.482 686.399 675.562 686.652 675.642 686.898C675.728 687.151 675.808 687.391 675.894 687.637C675.906 687.686 675.925 687.742 675.943 687.791C676.171 688.456 676.399 689.084 676.645 689.687C676.725 689.903 676.818 690.112 676.898 690.321C677.15 690.937 677.396 691.528 677.655 692.076C677.803 692.403 677.957 692.717 678.111 693.018C678.388 693.56 678.677 694.065 678.954 694.515C679.114 694.773 679.281 695.007 679.441 695.229C679.551 695.383 679.662 695.53 679.773 695.666C679.921 695.851 680.075 696.017 680.223 696.165C680.389 696.343 680.561 696.497 680.727 696.626C680.888 696.75 681.054 696.86 681.22 696.959C681.38 697.045 681.553 697.119 681.719 697.174L681.731 697.156Z" fill="#0055FC" stroke="white" stroke-width="2.46287" stroke-miterlimit="10"/>
<path d="M827.413 673.105L810.025 714.493L778.697 716.648L686.063 692.401C689.24 681.355 689.135 666.246 688.624 653.506C688.464 649.424 688.205 645.176 687.842 640.81C687.817 640.509 687.793 640.213 687.762 639.911C687.294 634.308 686.685 628.915 685.977 623.86L686.999 623.133L738.67 635.583L751.107 638.581L771.413 643.476C765.201 621.815 762.559 603.59 762.233 588.327L763.163 584.595L763.686 584.534L766.549 580.704L764.85 577.779L765.755 574.122L767.571 574.091C767.571 574.091 770.545 570.791 770.705 568.519C770.792 567.3 769.419 564.8 768.452 563.218L768.827 561.703L771.364 561.678C771.364 561.678 773.556 558.101 773.47 556.365C773.384 554.635 772.238 552.781 771.346 551.568L776.549 530.566C777.749 528.799 778.944 527.223 780.095 525.831C785.556 519.237 790.144 516.639 790.144 516.639L802.322 546.735L803.566 549.801L805.66 560.607L815.277 610.394L815.677 612.457L818.651 627.837L818.774 628.453L827.401 673.105H827.413Z" fill="#0055FC" stroke="white" stroke-width="2.46287" stroke-miterlimit="10"/>
<path d="M761.761 561.754L761.755 561.822L747.156 561.871L761.761 561.754Z" fill="#0055FC" stroke="white" stroke-width="2.46287" stroke-miterlimit="10"/>
<path d="M763.368 550.198L763.356 550.253L763.35 550.296L746.023 550.148L763.368 550.198Z" fill="#0055FC" stroke="white" stroke-width="2.46287" stroke-miterlimit="10"/>
<path d="M766.065 530.684L764.637 540.985L748.117 540.751L753.302 529.256L766.065 530.684Z" fill="white" stroke="white" stroke-width="2.46287" stroke-miterlimit="10"/>
<path d="M725.008 540.131C724.066 541.75 717.952 552.174 711.266 561.681C716.29 553.892 723.894 541.873 725.008 540.131Z" fill="#0055FC" stroke="white" stroke-width="2.46287" stroke-miterlimit="10"/>
<path d="M769.039 550.21C769.039 550.21 769.045 550.204 769.045 550.197L746.023 550.154L763.362 550.197V550.259L770.221 550.302L770.246 550.216H769.039V550.21Z" fill="#0055FC" stroke="white" stroke-width="2.46287" stroke-miterlimit="10"/>
<path d="M751.202 561.839L747.157 561.87L751.202 561.858L761.75 561.827L767.562 561.802C767.562 561.802 767.95 562.375 768.461 563.218C769.428 564.801 770.801 567.294 770.714 568.52C770.554 570.792 767.58 574.092 767.58 574.092L765.764 574.123L760.038 574.227L749.072 574.412L745.347 574.48L749.066 574.443L760.026 574.332L762.839 574.301L764.865 577.78L766.565 580.705L763.701 584.534L763.178 584.596L758.523 585.132L747.028 586.462L741.837 587.059L729.258 599.687H716.236L687.008 623.14L685.986 623.866L674.115 632.308L667.539 636.981C667.489 636.199 667.44 635.423 667.397 634.648C667.299 633.053 667.231 631.47 667.163 629.913C667.114 628.632 667.065 627.357 667.04 626.114C666.997 624.648 666.972 623.208 666.96 621.791C666.954 621.385 666.954 620.991 666.954 620.591C666.948 619.864 666.948 619.131 666.954 618.417C666.997 603.535 668.487 592.169 671.055 587.878C671.239 587.57 671.43 587.299 671.627 587.059C672.501 586.794 673.431 586.517 674.392 586.221C680.112 584.448 692.1 577.294 700.116 572.411C702.487 570.976 704.513 569.733 705.916 568.883C706.243 568.692 706.526 568.513 706.778 568.366C706.969 568.255 708.786 565.503 711.218 561.747C711.23 561.722 711.249 561.697 711.267 561.673C717.948 552.16 724.068 541.742 725.01 540.123C725.047 540.055 725.077 540.012 725.096 539.975C725.096 539.969 725.102 539.969 725.102 539.963C725.102 539.963 725.114 539.932 725.127 539.926C725.133 539.913 725.139 539.901 725.139 539.901C725.139 539.901 725.145 539.895 725.151 539.889C725.275 539.729 726.389 538.3 728.125 536.262C728.31 536.047 728.501 535.819 728.704 535.591C728.716 535.579 728.735 535.554 728.747 535.542C729.394 534.791 730.108 533.984 730.884 533.134C731.912 532.008 733.033 530.813 734.227 529.619C734.369 529.471 734.516 529.329 734.652 529.194C734.701 529.144 734.757 529.089 734.806 529.046C734.855 528.984 734.91 528.929 734.96 528.88C734.972 528.867 734.984 528.855 734.991 528.849C735.108 528.738 735.218 528.627 735.317 528.51C735.686 528.141 736.037 527.759 736.401 527.371C736.967 526.756 737.527 526.115 738.069 525.462C741.209 521.762 743.949 517.883 744.959 516.627L761.559 518.911L770.136 520.087L765.555 528.289L757.858 528.855L753.333 529.194L753.302 529.255L748.111 540.751L764.637 540.985L767.901 541.028C767.901 541.028 770.992 543.632 770.936 545.362C770.899 546.582 769.403 549.506 769.052 550.19L753.197 550.159L746.03 550.147L753.191 550.208L763.357 550.294V550.251L770.234 550.294L770.259 550.208C770.259 550.208 770.758 550.738 771.373 551.563C772.272 552.776 773.411 554.629 773.498 556.359C773.584 558.095 771.392 561.673 771.392 561.673L768.855 561.697L761.774 561.747L751.221 561.833L751.202 561.839Z" fill="#0055FC" stroke="white" stroke-width="2.46287" stroke-miterlimit="10"/>
<path d="M770.246 550.198V550.21L770.227 550.296L763.356 550.253L746.023 550.148L769.045 550.198H770.246Z" fill="#0055FC" stroke="white" stroke-width="2.46287" stroke-miterlimit="10"/>
<path d="M735.496 528.321C735.459 528.358 735.398 528.419 735.318 528.512C735.232 528.598 735.127 528.709 734.991 528.85C734.985 528.857 734.979 528.863 734.961 528.881C734.166 529.737 732.602 531.412 730.983 533.148C730.232 533.961 729.462 534.792 728.748 535.549C728.736 535.562 728.717 535.586 728.705 535.599C727.511 536.873 726.507 537.945 726.02 538.437L688.77 534.263L689.564 528.869L689.835 527.034L690.512 526.307L693.942 522.625L696.398 519.99L708.54 521.376L709.741 521.517L724.21 523.167L727.985 523.604L734.24 524.313L735.145 527.237L735.484 528.327L735.496 528.321Z" fill="#0055FC" stroke="white" stroke-width="2.46287" stroke-miterlimit="10"/>
<path d="M728.713 535.598C728.509 535.826 728.312 536.054 728.134 536.269C726.398 538.307 725.283 539.736 725.16 539.896C725.154 539.902 725.148 539.908 725.148 539.908C725.148 539.908 725.142 539.914 725.135 539.933C725.129 539.939 725.129 539.945 725.111 539.964C725.111 539.964 725.105 539.976 725.105 539.988C725.08 540.025 725.055 540.068 725.018 540.136C723.904 541.879 716.306 553.897 711.276 561.686C711.251 561.711 711.239 561.735 711.226 561.76C709.472 564.26 707.68 566.692 705.925 568.884C704.521 569.74 702.495 570.983 700.125 572.418C692.108 577.301 680.12 584.455 674.4 586.229C674.049 586.056 673.692 585.988 673.347 586.013C672.738 586.062 672.153 586.426 671.63 587.066C671.408 587.134 671.192 587.189 670.989 587.257L670.921 586.647C670.921 586.647 668.81 587.509 665.232 588.913C665.232 588.913 665.228 588.915 665.22 588.919C665.22 588.919 665.214 588.919 665.208 588.926C664.469 589.215 663.668 589.529 662.812 589.855L674.086 527.268L689.572 528.875L688.777 534.268L726.028 538.443C726.515 537.95 727.524 536.873 728.713 535.604V535.598Z" fill="#0055FC" stroke="white" stroke-width="2.46287" stroke-miterlimit="10"/>
<path d="M679.359 546.908L717.829 551.397" stroke="white" stroke-width="2.46287" stroke-miterlimit="10"/>
<path d="M678.207 556.822L711.129 560.664" stroke="white" stroke-width="2.46287" stroke-miterlimit="10"/>
<path d="M676.293 567.209L702.812 570.411" stroke="white" stroke-width="2.46287" stroke-miterlimit="10"/>
<path d="M674.258 577.979L687.717 579.549" stroke="white" stroke-width="2.46287" stroke-miterlimit="10"/>
</g>
<path d="M769.859 273.475H495.274C487.283 273.475 480.805 279.953 480.805 287.944V562.529C480.805 570.52 487.283 576.999 495.274 576.999H769.859C777.85 576.999 784.329 570.52 784.329 562.529V287.944C784.329 279.953 777.85 273.475 769.859 273.475Z" stroke="white" stroke-width="2.46287" stroke-miterlimit="10"/>
<path d="M770.884 197.465H502.555C492.717 197.465 484.742 205.438 484.742 215.274C484.742 225.11 492.717 233.084 502.555 233.084H770.884C780.722 233.084 788.697 225.11 788.697 215.274C788.697 205.438 780.722 197.465 770.884 197.465Z" fill="white"/>
<path d="M770.884 115.422H502.555C492.717 115.422 484.742 123.396 484.742 133.232C484.742 143.067 492.717 151.041 502.555 151.041H770.884C780.722 151.041 788.697 143.067 788.697 133.232C788.697 123.396 780.722 115.422 770.884 115.422Z" fill="white"/>
<path d="M770.884 29.2266H502.555C492.717 29.2266 484.742 37.2002 484.742 47.0362C484.742 56.8722 492.717 64.8458 502.555 64.8458H770.884C780.722 64.8458 788.697 56.8722 788.697 47.0362C788.697 37.2002 780.722 29.2266 770.884 29.2266Z" fill="white"/>
<path d="M435.841 515.852H167.512C157.674 515.852 149.699 523.825 149.699 533.661C149.699 543.497 157.674 551.471 167.512 551.471H435.841C445.679 551.471 453.654 543.497 453.654 533.661C453.654 523.825 445.679 515.852 435.841 515.852Z" fill="white"/>
<path d="M435.841 433.807H167.512C157.674 433.807 149.699 441.78 149.699 451.616C149.699 461.452 157.674 469.426 167.512 469.426H435.841C445.679 469.426 453.654 461.452 453.654 451.616C453.654 441.78 445.679 433.807 435.841 433.807Z" fill="white"/>
<path d="M435.841 347.613H167.512C157.674 347.613 149.699 355.587 149.699 365.423C149.699 375.259 157.674 383.232 167.512 383.232H435.841C445.679 383.232 453.654 375.259 453.654 365.423C453.654 355.587 445.679 347.613 435.841 347.613Z" fill="white"/>
<path d="M544.028 335.541C542.569 336.391 541.079 337.191 539.57 337.93L544.028 335.541Z" stroke="white" stroke-width="2.46287" stroke-linecap="round" stroke-linejoin="round"/>
<path d="M572.656 306.244C565.89 318.564 556.217 328.274 544.968 335.004C544.654 335.189 544.346 335.373 544.032 335.54L539.568 337.929L483.648 367.889H483.655L463.317 404.9L456.003 418.212L444.938 412.129L441.256 418.828L413.567 403.613L417.249 396.914L406.641 391.083L434.225 340.878L434.373 340.958L429.127 271.702L429.231 271.764C428.794 258.501 431.793 244.968 438.646 232.506C458.958 195.544 505.383 182.054 542.332 202.354C549.345 206.208 555.509 211.005 560.755 216.491C561.998 217.778 563.181 219.12 564.326 220.474C564.64 220.838 564.935 221.213 565.231 221.583C584.041 244.962 588.012 278.29 572.656 306.244Z" fill="#0055FC"/>
<path d="M545.004 335.023L544.031 335.54C544.345 335.367 544.653 335.183 544.967 334.998L545.004 335.016V335.023Z" stroke="white" stroke-width="2.46287" stroke-linecap="round" stroke-linejoin="round"/>
<path d="M483.541 366.85L455.896 417.166L406.527 390.044L434.111 339.832L434.265 339.918L483.541 366.85Z" stroke="white" stroke-width="2.46287" stroke-linecap="round" stroke-linejoin="round"/>
<path d="M543.915 334.494C542.456 335.344 540.966 336.144 539.457 336.883L543.915 334.494Z" stroke="white" stroke-width="2.46287" stroke-linecap="round" stroke-linejoin="round"/>
<path d="M443.008 344.333C443.008 344.333 493.706 262.535 483.59 256.335C476.423 251.945 458.653 284.763 465.506 295.889C472.273 306.873 512.067 270.946 501.864 264.875C491.662 258.804 474.194 300.802 482.654 306.104C492.887 312.519 525.52 277.35 518.347 273.409C511.174 269.468 487.235 307.877 496.692 313.295C508.163 319.865 546.855 290.39 533.752 282.928C523.254 276.949 469.607 358.95 469.607 358.95" stroke="white" stroke-width="2.46287" stroke-linecap="round" stroke-linejoin="round"/>
<path d="M444.861 411.53L417.168 396.312L413.197 403.538L440.89 418.756L444.861 411.53Z" stroke="white" stroke-width="2.46287" stroke-linecap="round" stroke-linejoin="round"/>
<path d="M428.012 351.654L452.831 365.292" stroke="white" stroke-width="2.46287" stroke-linecap="round" stroke-linejoin="round"/>
<path d="M460.547 369.535L464.155 371.518" stroke="white" stroke-width="2.46287" stroke-linecap="round" stroke-linejoin="round"/>
<path d="M467.063 390.833L421.543 365.822" stroke="white" stroke-width="2.46287" stroke-linecap="round" stroke-linejoin="round"/>
<path d="M463.553 404.052L413.957 376.801" stroke="white" stroke-width="2.46287" stroke-linecap="round" stroke-linejoin="round"/>
<path d="M572.545 305.199C565.773 317.519 556.106 327.229 544.857 333.953C544.549 334.138 544.235 334.322 543.921 334.495L539.463 336.884L483.544 366.844L434.262 339.913L429.016 270.663L429.12 270.719C428.677 257.462 431.682 243.929 438.528 231.461C458.841 194.499 505.266 181.009 542.221 201.315C549.228 205.163 555.398 209.966 560.644 215.452C561.887 216.733 563.076 218.075 564.209 219.436C564.523 219.805 564.818 220.175 565.114 220.544C583.924 243.923 587.895 277.251 572.539 305.199H572.545Z" stroke="white" stroke-width="2.46287" stroke-linecap="round" stroke-linejoin="round"/>
<path d="M544.891 333.978L543.918 334.495C544.232 334.323 544.54 334.138 544.854 333.953L544.891 333.972V333.978Z" stroke="white" stroke-width="2.46287" stroke-linecap="round" stroke-linejoin="round"/>
<path d="M490.357 223.02C501.189 220.087 509.137 214.637 508.111 210.845C507.084 207.054 497.472 206.359 486.64 209.291C475.808 212.224 467.859 217.675 468.886 221.466C469.912 225.257 479.525 225.953 490.357 223.02Z" fill="white" stroke="#354FFF" stroke-width="2.46287" stroke-linecap="round" stroke-linejoin="round"/>
</svg>
