<svg width="936" height="579" viewBox="0 0 936 579" fill="none" xmlns="http://www.w3.org/2000/svg">
<path d="M796.132 74.7637H180.259C168.335 74.7637 158.668 84.4304 158.668 96.355V555.878C158.668 567.802 168.335 577.469 180.259 577.469H796.132C808.057 577.469 817.724 567.802 817.724 555.878V96.355C817.724 84.4304 808.057 74.7637 796.132 74.7637Z" fill="white" stroke="#0055FC" stroke-width="2.57346" stroke-miterlimit="10"/>
<path d="M782.081 117.4H194.065C188.465 117.4 183.926 121.94 183.926 127.54V506.584C183.926 512.184 188.465 516.724 194.065 516.724H782.081C787.68 516.724 792.22 512.184 792.22 506.584V127.54C792.22 121.94 787.68 117.4 782.081 117.4Z" fill="#0055FC"/>
<path d="M329.848 222.898C329.848 222.898 299.764 211.44 323.041 185.294C346.324 159.147 325.55 152.701 325.55 134.075C325.55 121.041 344.529 111.867 344.529 102.917C344.529 93.9681 337.89 87.4637 338.894 76.385C339.724 67.2685 345.823 27.5215 381.902 25.7072C389.816 25.3083 393.316 16.2305 397.112 13.3096C445.28 -23.7739 503.884 40.4467 504.959 61.2209C505.654 74.6286 495.302 95.0104 506.284 111.223C516.649 126.535 513.091 140.593 505.924 148.114C498.763 155.635 498.686 177.844 509.784 192.525C520.882 207.207 495.778 226.964 481.302 224.384C461.255 220.814 437.29 247.964 437.29 247.964L369.595 250.473L329.841 222.892L329.848 222.898Z" fill="#0055FC" stroke="white" stroke-width="2.57346" stroke-linecap="round" stroke-linejoin="round"/>
<path d="M469.387 125.519C469.387 125.519 497.212 105.826 474.045 88.1523L469.387 125.519Z" fill="white"/>
<path d="M469.387 125.519C469.387 125.519 497.212 105.826 474.045 88.1523" stroke="#0055FC" stroke-width="2.57346" stroke-miterlimit="10"/>
<path d="M335.417 381.687C335.417 381.687 309.766 433.87 304.195 453.686C298.829 472.794 290.395 513.583 290.395 513.583L407.416 512.946H519.046C519.046 512.946 506.443 439.48 459.014 372.937C411.585 306.394 335.411 381.681 335.411 381.681L335.417 381.687Z" fill="white" stroke="#0055FC" stroke-width="2.57346" stroke-miterlimit="10"/>
<path d="M152.238 322.954C141.237 322.954 131.464 319.969 123.608 317.563C118.397 315.967 113.894 314.59 110.471 314.533C103.638 314.365 89.4844 312.776 82.6841 312.017C80.9534 311.824 79.448 311.657 79.1134 311.631H79.0877C79.0427 311.631 78.9912 311.631 78.9461 311.624C78.0583 311.522 76.7973 311.174 76.0124 310.807V310.788C75.1117 310.421 73.6255 309.347 73.2845 307.893C72.8792 306.149 74.0309 304.612 76.7073 303.325C79.2614 302.026 84.2861 301.446 92.9844 301.446C93.306 301.446 93.6277 301.446 93.9494 301.446C90.2308 301.318 85.7143 301.241 80.2651 301.241C67.8996 301.241 58.0368 301.646 56.4734 301.935C56.319 302.019 56.1518 302.071 55.9652 302.083C55.7915 302.096 55.5985 302.103 55.3926 302.103C54.5434 302.103 53.5654 302 52.9028 301.839C52.8963 301.839 52.8835 301.839 52.877 301.833C51.3265 301.44 47.7044 300.256 47.2219 297.741C46.9452 296.319 47.7108 294.936 49.4929 293.623C52.8256 290.953 62.3281 289.763 80.2908 289.763C84.1638 289.763 87.9983 289.814 91.3759 289.859C94.1102 289.898 96.6966 289.93 98.8004 289.93C98.9612 289.93 99.1092 289.93 99.2636 289.93C95.9889 289.538 90.5203 289.197 81.4167 289.197C68.099 289.197 51.8927 289.995 43.722 291.05C43.5933 291.063 43.5225 291.063 43.4453 291.063C41.8369 291.063 40.5888 289.609 40.3379 287.44C40.0291 284.745 41.4445 281.438 45.2789 280.544C49.7696 279.308 56.3898 278.646 63.5762 278.292C56.7115 278.208 52.7677 277.919 50.7218 277.378C50.6832 277.365 50.6446 277.359 50.6124 277.346C49.7825 277.044 49.2999 276.233 49.3257 275.184C49.3707 273.357 51.0628 270.063 53.0829 269.375C58.8732 266.969 79.4094 266.608 91.1572 266.608C97.6873 266.608 104.584 266.724 110.091 266.924C116.152 267.142 118.121 267.335 118.899 267.58C119.652 267.631 120.707 267.702 121.395 267.741C121.415 267.741 121.575 267.741 121.691 267.741C122.315 267.741 122.734 267.676 122.991 267.606C122.701 267.181 121.865 266.242 119.427 264.601C117.812 263.501 114.659 262.401 111.327 261.236C106.887 259.686 101.856 257.923 97.8418 255.414C92.386 251.985 91.8134 249.276 92.2959 247.603C92.4053 247.23 92.5469 246.96 92.7077 246.761C93.3253 245.969 94.4319 245.461 95.5449 245.461C95.6801 245.461 95.8087 245.467 95.9374 245.487C95.9567 245.487 95.9824 245.487 96.0017 245.487C98.9226 245.487 143.977 256.598 153.975 264.897C161.149 270.346 179.851 288.232 179.774 304.94C179.748 315.993 169.918 322.729 153.486 322.961C153.081 322.967 152.669 322.973 152.257 322.973L152.238 322.954Z" fill="white"/>
<path d="M95.5312 246.735C95.6663 246.735 95.795 246.748 95.9237 246.773C95.9237 246.761 95.9494 246.754 95.9944 246.754C98.021 246.754 143.32 257.711 153.144 265.868C159.186 270.456 178.557 288.367 178.474 304.914C178.454 313.471 171.654 321.404 153.453 321.655C153.048 321.661 152.643 321.667 152.244 321.667C134.094 321.667 119.4 313.407 110.502 313.246C101.579 313.027 79.8203 310.338 79.1061 310.338C79.0933 310.338 79.0868 310.338 79.0868 310.338C78.3469 310.254 77.2082 309.939 76.552 309.63C76.5391 309.63 71.4951 307.25 77.2661 304.477C80.0969 303.036 86.5305 302.72 92.9835 302.72C98.0339 302.72 103.097 302.913 106.462 302.913C108.887 302.913 110.425 302.81 110.419 302.463C110.406 300.533 94.7849 299.941 80.2642 299.941C67.6414 299.941 55.8549 300.385 55.8742 300.784C55.7263 300.797 55.5654 300.797 55.3917 300.797C54.6712 300.797 53.7769 300.707 53.1979 300.571C53.1979 300.571 44.8599 298.577 50.2641 294.627C54.0214 291.577 67.577 291.03 80.277 291.03C87.309 291.03 94.0772 291.198 98.7866 291.198C102.64 291.198 105.104 291.088 105.207 290.683C105.555 288.65 94.5662 287.897 81.4029 287.897C67.6993 287.897 51.6409 288.714 43.541 289.763C43.5024 289.763 43.4702 289.763 43.4316 289.763C41.0769 289.763 40.1633 283.04 45.5611 281.785C53.719 279.546 69.3399 279.18 83.0821 279.18C89.7988 279.18 96.0588 279.27 100.781 279.27C105.844 279.27 109.132 279.167 109.299 278.749C109.692 277.192 101.231 276.883 90.5709 276.883C83.4939 276.883 75.4518 277.018 68.3812 277.018C60.4679 277.018 53.7769 276.844 51.0426 276.117C49.6722 275.615 51.7374 271.112 53.5195 270.565C58.3898 268.5 75.6384 267.876 91.1435 267.876C105.606 267.876 118.564 268.416 118.544 268.821C119.316 268.879 120.577 268.963 121.343 269.008C121.369 269.008 121.491 269.008 121.671 269.008C123.048 269.008 127.822 268.706 120.127 263.514C116.235 260.863 105.568 258.714 98.5036 254.301C91.7482 250.055 93.6976 247.526 93.6976 247.526C94.0708 247.044 94.8299 246.722 95.5183 246.722M95.5183 244.148C94.0772 244.148 92.6747 244.773 91.7997 245.783C91.4844 246.124 91.2078 246.6 91.0277 247.275C90.4551 249.36 91.0534 252.647 97.1396 256.475C101.283 259.068 106.385 260.85 110.888 262.426C114.144 263.565 117.219 264.64 118.686 265.637C119.046 265.881 119.368 266.106 119.657 266.312C119.49 266.299 119.329 266.293 119.175 266.28C118.081 265.984 115.804 265.811 110.123 265.611C104.603 265.412 97.6865 265.296 91.1435 265.296C76.7128 265.296 58.3512 265.791 52.6059 268.146C50.0132 269.066 48.0767 272.913 48.0188 275.126C47.9802 276.741 48.7651 277.777 49.6529 278.292C47.9094 278.575 46.3203 278.903 44.9242 279.283C40.3563 280.376 38.6771 284.333 39.0503 287.563C39.372 290.368 41.1734 292.33 43.4316 292.33C43.541 292.33 43.6503 292.33 43.7597 292.317C43.7983 292.317 43.8305 292.311 43.8691 292.304C45.6255 292.079 47.7614 291.86 50.1612 291.661C49.595 291.944 49.1125 292.253 48.7007 292.581C45.96 294.608 45.6898 296.621 45.9471 297.966C46.5776 301.208 50.7724 302.605 52.548 303.061C52.5609 303.061 52.5802 303.068 52.5931 303.074C53.3458 303.254 54.446 303.377 55.3917 303.377C55.6298 303.377 55.855 303.37 56.0608 303.357C56.3375 303.338 56.6013 303.274 56.8457 303.171C58.4927 302.939 65.9107 302.624 75.4004 302.54C72.0034 304.425 71.6688 306.613 72.0227 308.163C72.4409 309.984 74.1329 311.393 75.4711 311.946V311.965C76.3718 312.39 77.7744 312.783 78.7973 312.898C78.8874 312.911 78.971 312.911 79.0611 312.918C79.46 312.95 80.9654 313.124 82.5481 313.297C89.3678 314.063 103.56 315.652 110.438 315.819C113.693 315.877 118.12 317.228 123.241 318.798C131.18 321.223 141.056 324.241 152.244 324.241C152.662 324.241 153.087 324.241 153.505 324.228C162.538 324.106 169.557 322.156 174.356 318.431C178.718 315.047 181.034 310.376 181.047 304.921C181.131 287.723 162.126 269.478 154.74 263.848C150.275 260.168 139.383 255.774 122.366 250.775C110.779 247.378 97.6865 244.174 95.988 244.174C95.988 244.174 95.9816 244.174 95.9751 244.174C95.8271 244.161 95.6792 244.155 95.5248 244.155L95.5183 244.148Z" fill="#0055FC"/>
<path d="M294.346 214.574C294.346 214.574 238.051 321.829 230.955 341.594C230.955 341.594 215.244 310.673 178.244 293.444C178.244 293.444 176.687 308.113 168.613 317.776C167.275 319.372 162.906 321.958 162.906 321.958C162.906 321.958 194.965 408.819 238.559 419.897C238.559 419.897 291.444 394.883 316.098 313.414L337.58 245.411L294.339 214.581L294.346 214.574Z" fill="white" stroke="#0055FC" stroke-width="2.57346" stroke-miterlimit="10"/>
<path d="M650.859 347.472C649.122 347.472 647.295 347.433 645.423 347.356C625.459 346.558 618.427 332.842 618.568 323.815C618.819 308.117 634.691 292.992 647.964 283.071L648.028 283.02C657.383 276.026 685.382 256.906 685.665 256.713C686.064 256.442 686.501 256.301 686.932 256.301C687.942 256.301 688.753 257.066 688.895 258.16C688.927 258.424 689.712 264.697 686.057 268.821C684.249 270.86 682.152 272.526 680.119 274.141C676.246 277.223 672.244 280.408 669.748 286.487C668.815 288.752 668.661 290.444 669.285 291.377C669.948 292.368 671.537 292.516 672.424 292.516C673.023 292.516 673.454 292.451 673.454 292.451C674.071 292.348 675.094 292.078 675.686 291.86C677.16 291.313 711.927 278.51 727.4 278.51C729.433 278.51 731.041 278.722 732.302 279.166C734.477 279.932 735.217 283.181 735.346 283.824C735.609 285.188 734.773 286.545 733.435 286.918C715.35 291.982 695.573 298.119 689.081 301.053C692.774 300.957 699.414 300.107 707.031 299.136C718.232 297.708 730.926 296.08 739.868 296.08C743.902 296.08 746.797 296.415 748.715 297.096C750.979 297.901 752.253 301.632 752.491 302.372C752.71 303.06 752.62 303.794 752.24 304.373C751.861 304.952 751.23 305.332 750.516 305.409C724.106 308.317 695.727 312.795 691.352 315.561C691.455 315.606 691.584 315.658 691.732 315.715C691.79 315.722 691.963 315.741 692.362 315.741C694.247 315.741 698.481 315.368 703.846 314.892C712.564 314.126 724.498 313.071 733.293 313.071C739.424 313.071 743.169 313.554 745.073 314.596C748.47 316.449 748.174 320.309 747.537 322.091C747.125 323.256 745.884 324.163 744.649 324.195C711.747 325.186 690.374 328.087 688.071 330.391L688.084 330.403C689.191 331.452 695.084 331.973 699.819 332.385C706.169 332.945 712.731 333.517 715.852 335.39C717.454 336.348 717.788 339.372 717.852 340.273C717.904 340.961 717.666 341.637 717.209 342.132C716.752 342.627 716.09 342.91 715.401 342.91C715.234 342.91 703.686 342.685 693.726 342.685C688.245 342.685 684.25 342.75 681.843 342.878C679.109 343.026 676.677 343.676 673.859 344.429C668.809 345.773 662.53 347.453 650.852 347.453L650.859 347.472Z" fill="white"/>
<path d="M686.932 257.588C687.286 257.588 687.556 257.851 687.62 258.328C687.62 258.328 688.405 264.234 685.092 267.965C679.958 273.749 672.52 276.342 668.557 285.999C665.694 292.973 670.133 293.809 672.424 293.809C673.144 293.809 673.659 293.725 673.659 293.725C674.36 293.61 675.473 293.32 676.136 293.069C676.136 293.069 711.984 279.803 727.406 279.803C729.207 279.803 730.726 279.983 731.884 280.389C733.473 280.948 734.09 284.081 734.09 284.081C734.225 284.776 733.781 285.503 733.099 285.69C733.099 285.69 686.713 298.679 685.909 301.645C685.774 302.147 686.7 302.359 688.437 302.359C696.904 302.359 724.466 297.373 739.887 297.373C743.483 297.373 746.424 297.644 748.302 298.313C750.078 298.943 751.281 302.765 751.281 302.765C751.493 303.44 751.094 304.058 750.387 304.135C750.387 304.135 677.873 312.119 691.358 316.951C691.519 317.009 691.866 317.035 692.368 317.035C697.509 317.035 719.274 314.365 733.305 314.371C738.497 314.371 742.634 314.738 744.468 315.735C747.8 317.549 746.334 321.673 746.334 321.673C746.095 322.342 745.323 322.902 744.616 322.921C744.616 322.921 680.344 324.851 687.208 331.356C690.161 334.154 709.63 333.177 715.195 336.509C716.346 337.198 716.578 340.382 716.578 340.382C716.629 341.077 716.102 341.643 715.407 341.643C715.401 341.643 715.388 341.643 715.381 341.643C715.381 341.643 703.82 341.418 693.739 341.418C688.965 341.418 684.519 341.47 681.785 341.617C674 342.036 669.091 346.185 650.858 346.185C649.179 346.185 647.391 346.153 645.473 346.076C627.266 345.349 619.707 333.273 619.855 323.835C620.144 305.403 643.234 288.212 648.8 284.056C658.238 276.998 686.391 257.781 686.391 257.781C686.578 257.652 686.764 257.588 686.938 257.588M686.938 255.014C686.243 255.014 685.555 255.233 684.944 255.651C684.661 255.844 656.642 274.984 647.268 281.991L647.204 282.036C644.418 284.114 637.026 289.647 630.38 296.936C621.823 306.329 617.423 315.362 617.288 323.79C617.198 329.632 619.617 335.538 623.934 340.003C627.504 343.696 634.118 348.186 645.37 348.637C647.262 348.714 649.108 348.752 650.858 348.752C662.709 348.752 669.078 347.054 674.2 345.684C677.063 344.918 679.321 344.32 681.92 344.178C684.3 344.049 688.276 343.985 693.732 343.985C703.678 343.985 715.214 344.204 715.33 344.21C715.349 344.21 715.388 344.21 715.407 344.21C716.449 344.21 717.453 343.779 718.154 343.02C718.855 342.267 719.216 341.231 719.139 340.189C719.016 338.504 718.514 335.493 716.514 334.296C713.142 332.276 706.426 331.69 699.934 331.118C697.496 330.905 694.285 330.622 691.924 330.243C695.398 329.323 702.746 328.042 718.193 326.891C731.633 325.887 744.564 325.495 744.693 325.488C746.456 325.437 748.167 324.189 748.759 322.522C749.518 320.38 749.859 315.729 745.697 313.464C743.567 312.299 739.739 311.785 733.299 311.785C724.446 311.785 712.48 312.84 703.736 313.612C703.325 313.65 702.919 313.683 702.52 313.721C712.718 311.605 729.516 309.018 750.657 306.689C751.763 306.567 752.729 305.982 753.32 305.074C753.912 304.174 754.054 303.048 753.719 301.986C753.243 300.474 751.841 296.846 749.151 295.887C747.093 295.154 744.056 294.8 739.874 294.8C730.854 294.8 718.116 296.428 706.876 297.862C703.878 298.248 701.034 298.609 698.467 298.917C707.558 295.823 721.075 291.725 733.781 288.167C735.757 287.614 736.998 285.6 736.606 283.586C736.394 282.512 735.493 278.928 732.726 277.957C731.324 277.468 729.58 277.23 727.399 277.23C711.695 277.23 676.722 290.11 675.235 290.657C674.727 290.843 673.775 291.094 673.241 291.184C673.241 291.184 672.894 291.236 672.424 291.236C671.259 291.236 670.545 290.946 670.352 290.663C670.088 290.264 670.076 289.061 670.938 286.977C673.305 281.206 677.005 278.265 680.916 275.145C682.988 273.498 685.13 271.793 687.015 269.67C691.062 265.109 690.206 258.276 690.168 257.987C689.936 256.237 688.604 255.008 686.932 255.008L686.938 255.014Z" fill="#0055FC"/>
<path d="M507.045 212.623C507.045 212.623 563.34 319.878 570.436 339.642C570.436 339.642 582.846 331.053 619.846 313.824C619.846 313.824 613.676 329.96 623.308 338.066C632.939 346.179 641.084 347.993 641.084 347.993C641.084 347.993 606.426 406.861 562.825 417.94C562.825 417.94 509.94 392.926 485.287 311.457L463.805 243.453L507.045 212.623Z" fill="white" stroke="#0055FC" stroke-width="2.57346" stroke-miterlimit="10"/>
<path d="M377.914 187.32L375.231 188.195L294.348 214.573C294.348 214.573 319.175 281.187 311.3 303.589C303.426 325.997 311.905 402.294 322.804 409.564C333.702 416.828 353.749 412.131 360.164 413.051C366.585 413.971 385.84 422.682 402.349 419.472C418.858 416.261 424.815 410.761 442.701 411.674C460.58 412.594 483.053 412.131 488.097 400.673C493.141 389.214 497.265 369.039 495.894 355.277C494.524 341.515 490.85 324.1 492.684 306.214C494.518 288.335 502.315 242.482 502.315 238.815C502.315 235.148 505.069 211.762 505.069 211.762L441.794 189.295L377.921 187.327L377.914 187.32Z" fill="white" stroke="#0055FC" stroke-width="2.57346" stroke-miterlimit="10"/>
<path d="M387.027 165.704C360.18 164.521 374.218 182.297 374.218 182.297C366.363 185.662 373.517 194.662 373.517 194.662C397.019 216.299 431.297 203.92 441.771 197.403C452.239 190.886 443.553 189.187 446.346 186.858C449.138 184.529 446.616 172.08 446.616 172.08C415.992 192.648 379.455 178.108 378.728 170.71C378.117 164.456 387.027 165.698 387.027 165.698" fill="#0055FC"/>
<path d="M387.027 165.704C360.18 164.521 374.218 182.297 374.218 182.297C366.363 185.662 373.517 194.662 373.517 194.662C397.019 216.299 431.297 203.92 441.771 197.403C452.239 190.886 443.553 189.187 446.346 186.858C449.138 184.529 446.616 172.08 446.616 172.08C415.992 192.648 379.455 178.108 378.728 170.71C378.117 164.456 387.027 165.698 387.027 165.698" stroke="white" stroke-width="2.57346" stroke-miterlimit="10"/>
<path d="M391.031 152.637L387.711 179.183L407.289 182.83C407.289 182.83 435.159 182.168 441.792 174.203C448.425 166.238 431.177 164.578 431.177 164.578L391.031 152.631V152.637Z" fill="white"/>
<path d="M403.035 41.7398C395.469 46.7838 387.568 59.2393 377.828 92.4112C377.828 92.4112 356.571 88.0813 361.429 104.886C366.286 121.691 372.256 125.795 378.233 126.548C378.233 126.548 381.598 150.925 386.822 156.799C390.103 160.486 419.01 174.054 430.886 175.469C436.786 176.171 447.807 174.189 452.272 170.278C463.286 160.627 473.084 117.213 473.084 117.213C473.084 117.213 475.072 100.286 475.201 81.4482C475.317 63.8522 417.086 32.3789 403.035 41.7462V41.7398Z" fill="white" stroke="#0055FC" stroke-width="2.57346" stroke-linecap="round" stroke-linejoin="round"/>
<path d="M319.569 205.785C318.932 211.46 332.494 214.014 334.752 219.257C338.13 227.087 323.455 237.13 326.646 245.03C328.087 248.588 336.856 251.162 339.777 253.651C357.443 268.7 320.559 280.473 336.991 290.979C359.052 305.082 337.152 316.129 335.749 321.822C333.62 330.476 344.57 335.667 345.856 338.337C348.179 343.143 338.927 347.737 338.213 356.262C338.213 356.262 338.278 363.795 347.619 371.136C356.961 378.477 352.29 385.483 346.95 392.489C341.61 399.496 344.499 406.109 351.943 413.064" stroke="#0055FC" stroke-width="2.57346" stroke-miterlimit="10"/>
<path d="M437.699 94.8125L445.348 125.411L433.414 127.856" fill="white"/>
<path d="M437.699 94.8125L445.348 125.411L433.414 127.856" stroke="#0055FC" stroke-width="2.57346" stroke-linecap="round" stroke-linejoin="round"/>
<path d="M413.219 140.09C413.219 140.09 419.337 149.573 432.803 148.351L413.219 140.09Z" fill="white"/>
<path d="M413.219 140.09C413.219 140.09 419.337 149.573 432.803 148.351" stroke="#0055FC" stroke-width="2.57346" stroke-linecap="round" stroke-linejoin="round"/>
<path d="M395.57 88.4488C395.57 88.4488 409.029 81.4103 422.797 86.3063L395.57 88.4488Z" fill="white"/>
<path d="M395.57 88.4488C395.57 88.4488 409.029 81.4103 422.797 86.3063" stroke="#0055FC" stroke-width="2.57346" stroke-linecap="round" stroke-linejoin="round"/>
<path d="M442.969 86.7631C442.969 86.7631 456.737 78.5023 468.974 88.5967L442.969 86.7631Z" fill="white"/>
<path d="M442.969 86.7631C442.969 86.7631 456.737 78.5023 468.974 88.5967" stroke="#0055FC" stroke-width="2.57346" stroke-linecap="round" stroke-linejoin="round"/>
<path d="M455.166 166.965C460.254 166.965 464.379 163.051 464.379 158.222C464.379 153.393 460.254 149.479 455.166 149.479C450.078 149.479 445.953 153.393 445.953 158.222C445.953 163.051 450.078 166.965 455.166 166.965Z" fill="white" stroke="#0055FC" stroke-width="2.57346" stroke-miterlimit="10"/>
<path d="M477.62 117.587C477.62 117.587 511.944 139.538 462.289 155.05V160.1C462.289 160.1 519.439 143.894 480.413 114.1L477.627 117.587H477.62Z" fill="white"/>
<path d="M350.842 196.25C350.205 201.97 363.767 204.543 366.025 209.825C369.403 217.713 354.728 227.826 357.919 235.791C359.36 239.375 368.129 241.974 371.05 244.477C388.717 259.641 351.833 271.498 368.264 282.081C390.325 296.287 368.425 307.423 367.023 313.149C364.893 321.867 375.843 327.097 377.13 329.787C379.452 334.631 370.201 339.257 369.487 347.846C369.487 347.846 369.551 355.438 378.893 362.836C388.234 370.235 383.564 377.293 378.224 384.35C372.884 391.408 375.772 398.073 383.216 405.08C383.216 405.08 392.564 411.764 380.179 418.416" stroke="#0055FC" stroke-width="2.57346" stroke-miterlimit="10"/>
<path d="M386.281 194.945C385.426 200.594 398.878 203.669 400.937 208.996C404.006 216.948 388.958 226.419 391.84 234.435C393.14 238.044 401.806 240.959 404.63 243.558C421.698 259.282 384.39 269.614 400.403 280.751C421.898 295.696 399.592 305.887 397.971 311.516C395.507 320.08 406.251 325.69 407.435 328.405C409.571 333.294 400.146 337.528 399.104 346.02C399.104 346.02 398.872 353.554 407.924 361.248C416.976 368.943 412.035 375.763 406.431 382.557C400.828 389.351 403.459 396.067 410.62 403.312C410.62 403.312 415.554 411.045 407.808 417.06C406.83 417.819 406.554 417.826 406.65 418.823" stroke="#0055FC" stroke-width="2.57346" stroke-miterlimit="10"/>
<path d="M419.063 189.85C418.123 195.421 431.531 198.677 433.506 203.984C436.459 211.898 421.269 221.027 424.036 229.005C425.284 232.595 433.905 235.619 436.691 238.231C453.528 254.051 416.065 263.695 431.917 274.96C453.193 290.079 430.733 299.813 429.028 305.359C426.436 313.794 437.096 319.513 438.241 322.215C440.3 327.092 430.823 331.126 429.652 339.509C429.652 339.509 429.311 346.959 438.248 354.712C447.184 362.471 442.147 369.136 436.44 375.769C430.733 382.402 433.268 389.093 440.326 396.363C440.326 396.363 445.1 404.122 437.218 409.97C436.253 410.684 435.964 410.8 435.681 412.106" stroke="#0055FC" stroke-width="2.57346" stroke-miterlimit="10"/>
<path d="M464.033 196.605C462.637 201.881 475.716 206.217 477.248 211.499C479.531 219.381 463.647 226.805 465.744 234.731C466.69 238.295 475.028 241.976 477.582 244.742C493.042 261.476 454.936 267.395 469.784 279.651C489.716 296.108 466.548 303.462 464.393 308.647C461.112 316.529 471.258 322.988 472.171 325.696C473.818 330.573 464.046 333.603 462.186 341.568C462.186 341.568 461.228 348.703 469.489 356.97C477.743 365.231 472.178 371.202 465.944 377.076C459.716 382.949 462.482 389.055 468.105 397.239C469.965 399.947 471.187 406.67 467.97 410.035C466.362 411.721 465.159 411.534 465.191 412.383" stroke="#0055FC" stroke-width="2.57346" stroke-miterlimit="10"/>
<path d="M343.705 440.871L296.437 457.973C293.253 459.125 291.606 462.64 292.758 465.824L293.997 469.248C295.149 472.433 298.664 474.08 301.848 472.928L349.116 455.827C352.3 454.675 353.947 451.159 352.795 447.975L351.556 444.551C350.404 441.367 346.889 439.719 343.705 440.871Z" fill="#354FFF"/>
<path d="M517.262 460.954L471.636 439.862C468.562 438.441 464.918 439.781 463.498 442.854L461.97 446.16C460.549 449.233 461.889 452.877 464.962 454.298L510.589 475.39C513.663 476.811 517.306 475.471 518.727 472.397L520.255 469.092C521.676 466.018 520.336 462.375 517.262 460.954Z" fill="#354FFF"/>
<path d="M775.49 531.256H307.501C300.113 531.256 294.125 537.244 294.125 544.631C294.125 552.018 300.113 558.007 307.501 558.007H775.49C782.877 558.007 788.866 552.018 788.866 544.631C788.866 537.244 782.877 531.256 775.49 531.256Z" fill="#0055FC"/>
<path d="M492.947 537.072H307.375C303.037 537.072 299.52 540.589 299.52 544.928C299.52 549.266 303.037 552.783 307.375 552.783H492.947C497.285 552.783 500.802 549.266 500.802 544.928C500.802 540.589 497.285 537.072 492.947 537.072Z" fill="white"/>
<path d="M497.219 559.583C505.925 559.583 512.982 552.526 512.982 543.821C512.982 535.116 505.925 528.059 497.219 528.059C488.514 528.059 481.457 535.116 481.457 543.821C481.457 552.526 488.514 559.583 497.219 559.583Z" fill="white" stroke="#0055FC" stroke-width="2.57346" stroke-miterlimit="10"/>
<path d="M206.588 535.29C206.588 533.169 204.868 531.449 202.747 531.449C200.626 531.449 198.906 533.169 198.906 535.29V554.018C198.906 556.14 200.626 557.859 202.747 557.859C204.868 557.859 206.588 556.14 206.588 554.018V535.29Z" fill="#0055FC"/>
<path d="M219.912 535.29C219.912 533.169 218.193 531.449 216.071 531.449C213.95 531.449 212.23 533.169 212.23 535.29V554.018C212.23 556.14 213.95 557.859 216.071 557.859C218.193 557.859 219.912 556.14 219.912 554.018V535.29Z" fill="#0055FC"/>
<path d="M258.837 546.504L239.421 557.158C238.05 558.528 235.715 557.557 235.715 555.62V533.173C235.715 531.237 238.057 530.265 239.427 531.635L258.844 543.428C259.693 544.278 259.693 545.654 258.844 546.504H258.837Z" fill="#0055FC"/>
<path d="M269.272 535.405C269.272 533.284 267.552 531.564 265.431 531.564C263.309 531.564 261.59 533.284 261.59 535.405V554.134C261.59 556.255 263.309 557.975 265.431 557.975C267.552 557.975 269.272 556.255 269.272 554.134V535.405Z" fill="#0055FC"/>
<path d="M793.52 107.73C798.733 107.73 802.958 103.504 802.958 98.2917C802.958 93.0791 798.733 88.8535 793.52 88.8535C788.308 88.8535 784.082 93.0791 784.082 98.2917C784.082 103.504 788.308 107.73 793.52 107.73Z" fill="#0055FC"/>
<path d="M768.207 106.348C772.656 106.348 776.262 102.742 776.262 98.2932C776.262 93.8446 772.656 90.2383 768.207 90.2383C763.759 90.2383 760.152 93.8446 760.152 98.2932C760.152 102.742 763.759 106.348 768.207 106.348Z" fill="white" stroke="#0055FC" stroke-width="2.57346" stroke-miterlimit="10"/>
<path d="M741.723 106.348C746.172 106.348 749.778 102.742 749.778 98.2932C749.778 93.8446 746.172 90.2383 741.723 90.2383C737.274 90.2383 733.668 93.8446 733.668 98.2932C733.668 102.742 737.274 106.348 741.723 106.348Z" fill="white" stroke="#0055FC" stroke-width="2.57346" stroke-miterlimit="10"/>
<path d="M387.94 259.675L337.785 264.381C334.357 264.702 331.839 267.742 332.16 271.17L334.441 295.472C334.762 298.9 337.802 301.419 341.23 301.097L391.385 296.391C394.813 296.07 397.331 293.03 397.01 289.602L394.729 265.299C394.408 261.871 391.368 259.353 387.94 259.675Z" fill="#0055FC"/>
</svg>
