<svg width="937" height="571" viewBox="0 0 937 571" fill="none" xmlns="http://www.w3.org/2000/svg">
<path d="M340.062 344.77H227.402V372.653H340.062V344.77Z" fill="white" stroke="#0055FC" stroke-width="2.64565" stroke-miterlimit="10"/>
<path d="M310.918 372.719H198.258V400.603H310.918V372.719Z" fill="white" stroke="#0055FC" stroke-width="2.64565" stroke-miterlimit="10"/>
<path d="M310.918 400.787H198.258V428.671H310.918V400.787Z" fill="white" stroke="#0055FC" stroke-width="2.64565" stroke-miterlimit="10"/>
<path d="M310.918 428.854H198.258V456.737H310.918V428.854Z" fill="white" stroke="#0055FC" stroke-width="2.64565" stroke-miterlimit="10"/>
<path d="M310.918 456.742H198.258V484.626H310.918V456.742Z" fill="white" stroke="#0055FC" stroke-width="2.64565" stroke-miterlimit="10"/>
<path d="M310.918 484.799H198.258V512.683H310.918V484.799Z" fill="white" stroke="#0055FC" stroke-width="2.64565" stroke-miterlimit="10"/>
<path d="M310.918 512.039H198.258V539.923H310.918V512.039Z" fill="white" stroke="#0055FC" stroke-width="2.64565" stroke-miterlimit="10"/>
<path d="M287.178 545.984H614.612C622.137 545.984 628.643 540.754 630.264 533.405L721.977 117.213C724.18 107.21 716.57 97.7363 706.325 97.7363H378.74C371.215 97.7363 364.703 102.973 363.089 110.322L271.526 526.514C269.323 536.517 276.939 545.984 287.178 545.984Z" fill="white" stroke="white" stroke-width="2.64565" stroke-miterlimit="10"/>
<path d="M402.386 60.0391H371.547V157.133H402.386V60.0391Z" fill="white" stroke="#0055FC" stroke-width="2.64565" stroke-miterlimit="10"/>
<path d="M363.659 81.9277H332.82V157.133H363.659V81.9277Z" fill="white" stroke="#0055FC" stroke-width="2.64565" stroke-miterlimit="10"/>
<path d="M324.773 102.182H293.934V157.132H324.773V102.182Z" fill="white" stroke="#0055FC" stroke-width="2.64565" stroke-miterlimit="10"/>
<path d="M285.636 125.58H254.797V157.204H285.636V125.58Z" fill="white" stroke="#0055FC" stroke-width="2.64565" stroke-miterlimit="10"/>
<path d="M409.92 157.139H240.512V176.968H409.92V157.139Z" fill="white" stroke="#0055FC" stroke-width="2.64565" stroke-miterlimit="10"/>
<path d="M453.961 2.31641H212.375C204.144 2.31641 197.469 8.99155 197.469 17.2162V23.7801H468.861V17.2162C468.861 8.99155 462.186 2.31641 453.961 2.31641ZM214.546 17.7457C212.042 17.9549 209.845 16.0786 209.649 13.5746C209.446 11.064 211.316 8.86732 213.82 8.67119C216.33 8.47505 218.527 10.3383 218.723 12.8489C218.919 15.3529 217.056 17.5496 214.546 17.7457ZM231.642 17.7457C229.138 17.9549 226.941 16.0786 226.739 13.5746C226.542 11.064 228.412 8.86732 230.916 8.67119C233.42 8.47505 235.617 10.3383 235.82 12.8489C236.016 15.3529 234.146 17.5496 231.642 17.7457ZM248.314 17.7457C245.81 17.9549 243.613 16.0786 243.41 13.5746C243.214 11.064 245.084 8.86732 247.588 8.67119C250.092 8.47505 252.289 10.3383 252.491 12.8489C252.687 15.3529 250.818 17.5496 248.314 17.7457Z" fill="white" stroke="white" stroke-width="2.64565" stroke-linecap="round" stroke-linejoin="round"/>
<path d="M214.541 17.7469C212.037 17.9561 209.84 16.0797 209.644 13.5758C209.441 11.0652 211.311 8.8685 213.815 8.67237C216.326 8.47623 218.522 10.3395 218.718 12.85C218.915 15.354 217.051 17.5508 214.541 17.7469Z" stroke="black" stroke-width="2.64565" stroke-linecap="round" stroke-linejoin="round"/>
<path d="M231.644 17.7469C229.14 17.9561 226.943 16.0797 226.741 13.5758C226.545 11.0652 228.414 8.8685 230.918 8.67237C233.422 8.47623 235.619 10.3395 235.822 12.85C236.018 15.354 234.148 17.5508 231.644 17.7469Z" stroke="black" stroke-width="2.64565" stroke-linecap="round" stroke-linejoin="round"/>
<path d="M248.32 17.7469C245.816 17.9561 243.619 16.0797 243.416 13.5758C243.22 11.0652 245.09 8.8685 247.594 8.67237C250.098 8.47623 252.295 10.3395 252.498 12.85C252.694 15.354 250.824 17.5508 248.32 17.7469Z" stroke="black" stroke-width="2.64565" stroke-linecap="round" stroke-linejoin="round"/>
<path d="M468.861 23.7793V183.695C468.861 191.926 462.186 198.601 453.961 198.601H212.375C204.144 198.601 197.469 191.926 197.469 183.695V23.7793H468.861Z" stroke="white" stroke-width="2.64565" stroke-linecap="round" stroke-linejoin="round"/>
<path d="M214.541 17.7469C212.037 17.9561 209.84 16.0797 209.644 13.5758C209.441 11.0652 211.311 8.8685 213.815 8.67237C216.326 8.47623 218.522 10.3395 218.718 12.85C218.915 15.354 217.051 17.5508 214.541 17.7469Z" fill="#354FFF" stroke="#354FFF" stroke-width="2.64565" stroke-linecap="round" stroke-linejoin="round"/>
<path d="M231.644 17.7469C229.14 17.9561 226.943 16.0797 226.741 13.5758C226.545 11.0652 228.414 8.8685 230.918 8.67237C233.422 8.47623 235.619 10.3395 235.822 12.85C236.018 15.354 234.148 17.5508 231.644 17.7469Z" fill="#354FFF" stroke="#354FFF" stroke-width="2.64565" stroke-linecap="round" stroke-linejoin="round"/>
<path d="M248.32 17.7469C245.816 17.9561 243.619 16.0797 243.416 13.5758C243.22 11.0652 245.09 8.8685 247.594 8.67237C250.098 8.47623 252.295 10.3395 252.498 12.85C252.694 15.354 250.824 17.5508 248.32 17.7469Z" fill="#354FFF" stroke="#354FFF" stroke-width="2.64565" stroke-linecap="round" stroke-linejoin="round"/>
<path d="M315.685 76.2527L308.506 65.4849L248.881 105.248L242.082 95.0555L301.707 55.2859L294.823 44.9626L326.27 44.7207L315.685 76.2527Z" fill="white" stroke="white" stroke-width="2.64565" stroke-linecap="round" stroke-linejoin="round"/>
<path d="M761.28 219.732L777.264 240.477L799.519 223.328C806.077 229.029 813.608 233.233 821.585 235.9L817.936 264.026L843.898 267.393L847.566 239.091C855.647 238.463 863.675 236.332 871.194 232.625L888.342 254.88L909.074 238.908L891.925 216.653C897.443 210.298 901.562 203.048 904.242 195.353L932.636 199.034L936.003 173.072L907.74 169.411C907.191 161.042 905.04 152.752 901.222 144.985L923.477 127.836L907.492 107.092L885.237 124.241C878.921 118.755 871.717 114.637 864.067 111.969L867.65 84.3533L841.688 80.9863L838.132 108.419C829.737 108.949 821.388 111.106 813.582 114.957L796.427 92.6891L775.695 108.661L792.851 130.929C787.156 137.467 782.966 144.946 780.305 152.89L752.957 149.346L749.59 175.308L777.081 178.864C777.696 186.978 779.834 195.039 783.547 202.59L761.293 219.739L761.28 219.732ZM809.215 182.8C806.861 174.144 807.992 164.867 812.36 157.048C812.438 156.891 812.523 156.74 812.608 156.59C814.798 152.818 817.734 149.392 821.395 146.567C825.069 143.737 829.136 141.769 833.346 140.625C833.536 140.559 833.738 140.507 833.948 140.461C842.591 138.271 851.822 139.552 859.55 144.005L859.942 143.704L859.877 144.194C863.538 146.345 866.846 149.235 869.592 152.798C872.423 156.472 874.391 160.539 875.535 164.749C875.594 164.906 875.633 165.056 875.666 165.233C877.895 173.909 876.62 183.192 872.135 190.959L872.318 191.201L872.017 191.175C869.847 194.869 866.957 198.223 863.342 201.008C859.779 203.754 855.843 205.702 851.75 206.846L851.678 207.304L851.404 206.951C842.774 209.285 833.523 208.167 825.723 203.845C825.533 203.754 825.35 203.649 825.187 203.538C821.401 201.361 817.976 198.419 815.145 194.745C812.373 191.142 810.431 187.167 809.274 183.035L808.94 182.99L809.202 182.787L809.215 182.8Z" fill="white"/>
<path d="M668.256 157.492L685.908 166.972L696.075 148.032C702.436 149.96 709.013 150.536 715.414 149.901L721.677 170.679L740.852 164.899L734.55 143.991C739.996 141.023 744.932 137.022 749.018 132.079L767.958 142.246L777.432 124.6L758.491 114.434C760.348 108.269 760.963 101.92 760.42 95.7093L781.394 89.3872L775.614 70.2052L754.739 76.4946C751.738 70.8263 747.639 65.7137 742.539 61.4837L752.705 42.5436L735.053 33.0637L724.887 52.0039C718.761 50.1537 712.445 49.5326 706.267 50.0621L700.122 29.6641L680.94 35.4435L687.046 55.7108C681.351 58.7117 676.2 62.8305 671.957 67.9627L653.01 57.7899L643.537 75.4355L662.483 85.6084C660.555 91.9566 659.973 98.4879 660.6 104.869L640.398 110.956L646.178 130.131L666.484 124.005C669.453 129.477 673.473 134.433 678.429 138.545L668.263 157.485L668.256 157.492ZM690.151 116.702C685.797 111.4 683.685 104.562 684.287 97.7361C684.287 97.5988 684.307 97.468 684.32 97.3373C684.666 94.016 685.647 90.7079 687.314 87.5893C688.994 84.4643 691.211 81.8164 693.8 79.6982C693.911 79.5936 694.035 79.4955 694.166 79.3974C699.514 75.1609 706.359 73.1669 713.145 73.8599L713.322 73.5264L713.433 73.886C716.662 74.2391 719.879 75.2197 722.906 76.8477C726.031 78.5279 728.679 80.7442 730.797 83.3332C730.889 83.4247 730.961 83.5163 731.039 83.6274C735.308 88.9819 737.328 95.8662 736.629 102.692L736.832 102.803L736.609 102.881C736.256 106.137 735.282 109.387 733.635 112.459C732.007 115.493 729.869 118.082 727.371 120.167L727.463 120.507L727.162 120.344C721.866 124.679 715.061 126.79 708.261 126.221C708.098 126.221 707.941 126.202 707.79 126.176C704.463 125.842 701.155 124.862 698.03 123.181C694.904 121.501 692.361 119.37 690.269 116.846L690.021 116.918L690.138 116.696L690.151 116.702Z" fill="white"/>
<path d="M279.42 537.656H606.855C614.38 537.656 620.885 532.425 622.506 525.077L714.219 108.884C716.422 98.8815 708.812 89.4082 698.567 89.4082H370.982C363.457 89.4082 356.946 94.645 355.331 101.994L263.768 518.186C261.565 528.189 269.182 537.656 279.42 537.656Z" fill="#0055FC" stroke="white" stroke-width="2.64565" stroke-linecap="round" stroke-linejoin="round"/>
<path d="M308.696 494.896H590.386C596.152 494.896 601.14 490.888 602.383 485.253L682.896 129.686C684.583 122.017 678.751 114.76 670.899 114.76H389.079C383.313 114.76 378.318 118.774 377.082 124.403L296.706 479.97C295.019 487.632 300.857 494.896 308.703 494.896H308.696Z" fill="white" stroke="#0055FC" stroke-width="2.64565" stroke-linecap="round" stroke-linejoin="round"/>
<path d="M457 134.5H583.638C585.005 134.5 586.188 133.663 586.482 132.487L597.864 80.2755C598.263 78.6737 596.884 77.1504 595.021 77.1504H468.356C466.99 77.1504 465.807 77.9872 465.512 79.1706L454.163 131.382C453.764 132.984 455.143 134.507 457.007 134.507L457 134.5Z" fill="white" stroke="#0055FC" stroke-width="2.64565" stroke-linecap="round" stroke-linejoin="round"/>
<path d="M454.289 131.85H580.927C582.294 131.85 583.477 131.013 583.771 129.836L595.154 77.6251C595.552 76.0233 594.173 74.5 592.31 74.5H465.646C464.279 74.5 463.096 75.3368 462.802 76.5202L451.452 128.731C451.053 130.333 452.432 131.856 454.296 131.856L454.289 131.85Z" fill="#0055FC" stroke="white" stroke-width="2.64565" stroke-linecap="round" stroke-linejoin="round"/>
<path d="M503.449 206.499C503.449 237.946 477.736 263.444 446.021 263.444C414.306 263.444 388.586 237.946 388.586 206.499C388.586 175.052 414.299 149.555 446.021 149.555C463.052 149.555 478.35 156.903 488.857 168.58L446.021 206.499H503.449Z" fill="#0055FC" stroke="white" stroke-width="2.64565" stroke-linecap="round" stroke-linejoin="round"/>
<path d="M520.655 199.74H463.227L506.062 161.82C515.144 171.889 520.655 185.173 520.655 199.74Z" fill="white" stroke="#0055FC" stroke-width="2.64565" stroke-linecap="round" stroke-linejoin="round"/>
<path d="M462.342 260.078L446.023 206.5" stroke="white" stroke-width="2.64565" stroke-linecap="round" stroke-linejoin="round"/>
<path d="M554.263 177.297C559.394 177.297 563.553 173.138 563.553 168.007C563.553 162.876 559.394 158.717 554.263 158.717C549.132 158.717 544.973 162.876 544.973 168.007C544.973 173.138 549.132 177.297 554.263 177.297Z" fill="white" stroke="#0055FC" stroke-width="2.64565" stroke-linecap="round" stroke-linejoin="round"/>
<path d="M578.642 204.54C583.773 204.54 587.932 200.38 587.932 195.249C587.932 190.118 583.773 185.959 578.642 185.959C573.511 185.959 569.352 190.118 569.352 195.249C569.352 200.38 573.511 204.54 578.642 204.54Z" fill="white" stroke="#0055FC" stroke-width="2.64565" stroke-linecap="round" stroke-linejoin="round"/>
<path d="M588.602 161.998L544.184 200.879" stroke="#0055FC" stroke-width="2.64565" stroke-linecap="round" stroke-linejoin="round"/>
<path d="M629.326 221.053H527.499C525.903 221.053 524.609 222.346 524.609 223.942C524.609 225.538 525.903 226.832 527.499 226.832H629.326C630.922 226.832 632.216 225.538 632.216 223.942C632.216 222.346 630.922 221.053 629.326 221.053Z" fill="#0055FC" stroke="white" stroke-width="2.64565" stroke-miterlimit="10"/>
<path d="M623.963 239.205H522.136C520.54 239.205 519.246 240.499 519.246 242.095C519.246 243.691 520.54 244.985 522.136 244.985H623.963C625.559 244.985 626.852 243.691 626.852 242.095C626.852 240.499 625.559 239.205 623.963 239.205Z" fill="#0055FC" stroke="white" stroke-width="2.64565" stroke-miterlimit="10"/>
<path d="M619.248 256.451H517.421C515.825 256.451 514.531 257.745 514.531 259.341C514.531 260.937 515.825 262.231 517.421 262.231H619.248C620.844 262.231 622.138 260.937 622.138 259.341C622.138 257.745 620.844 256.451 619.248 256.451Z" fill="#0055FC" stroke="white" stroke-width="2.64565" stroke-miterlimit="10"/>
<path d="M613.947 276.639H512.12C510.524 276.639 509.23 277.932 509.23 279.528C509.23 281.124 510.524 282.418 512.12 282.418H613.947C615.543 282.418 616.837 281.124 616.837 279.528C616.837 277.932 615.543 276.639 613.947 276.639Z" fill="#0055FC" stroke="white" stroke-width="2.64565" stroke-miterlimit="10"/>
<path d="M635.83 285.407L618.027 267.604L452.392 433.239L470.195 451.042L635.83 285.407Z" fill="white" stroke="#0055FC" stroke-width="2.64565" stroke-miterlimit="10"/>
<path d="M509.147 310.275L518.365 352.666C518.365 352.666 587.522 361.721 580.037 380.426C572.551 399.131 548.786 396.699 548.786 396.699C548.786 396.699 527.126 387.324 503.747 405.231L498.68 420.032L551.447 427.015L616.635 411.344C616.635 411.344 675.568 411.657 692.893 368.9C710.212 326.136 684.381 304.182 684.381 304.182L604.822 292.643L544.941 293.349L509.153 310.288L509.147 310.275Z" fill="white" stroke="#0055FC" stroke-width="2.64565" stroke-miterlimit="10"/>
<path d="M544.863 293.361L503.969 330.28L511.88 353.791L532.506 336.871" fill="white"/>
<path d="M544.863 293.361L503.969 330.28L511.88 353.791L532.506 336.871" stroke="#0055FC" stroke-width="2.64565" stroke-miterlimit="10"/>
<path d="M566.037 305.986L543.082 306.405L497.082 345.9L501.325 363.245L541.794 343.638" fill="white"/>
<path d="M566.037 305.986L543.082 306.405L497.082 345.9L501.325 363.245L541.794 343.638" stroke="#0055FC" stroke-width="2.64565" stroke-miterlimit="10"/>
<path d="M577.404 319.781L546.617 320.409L488.215 362.218L461.848 398.484C461.848 398.484 476.237 420.732 511.47 378.785L557.124 357.086" fill="white"/>
<path d="M577.404 319.781L546.617 320.409L488.215 362.218L461.848 398.484C461.848 398.484 476.237 420.732 511.47 378.785L557.124 357.086" stroke="#0055FC" stroke-width="2.64565" stroke-miterlimit="10"/>
<path d="M480.125 374.314L493.298 384.768C493.298 384.768 485.551 398.132 464.094 397.138L480.125 374.321V374.314Z" fill="white" stroke="#0055FC" stroke-width="2.64565" stroke-miterlimit="10"/>
<path d="M663.997 404.652L807.945 441.799L833.051 344.512L689.103 307.365L663.997 404.652Z" fill="white" stroke="#0055FC" stroke-width="2.64565" stroke-miterlimit="10"/>
<path d="M675.976 423.388L818.531 460.176L848.894 342.518L706.338 305.73L675.976 423.388Z" fill="#0055FC" stroke="white" stroke-width="2.64565" stroke-miterlimit="10"/>
<path d="M453 432.945L618.636 267.309L636.439 285.111L546.89 373.758L528.074 394.365C528.074 394.365 515.482 398.353 511.507 400.641C503.171 405.447 498.686 420.026 498.686 420.026L499.203 422.099L470.201 451.042L453.007 432.945H453Z" fill="white" stroke="#0055FC" stroke-width="2.64565" stroke-miterlimit="10"/>
<path d="M535.104 424.192L536.399 406.853C536.399 406.853 520.819 403.369 506.527 420.367L535.104 424.185V424.192Z" fill="white" stroke="#0055FC" stroke-width="2.64565" stroke-miterlimit="10"/>
<path d="M450.802 433.299L438.184 465.001L470.173 452.742L450.802 433.299Z" fill="#0055FC"/>
<path d="M446.138 448.529L454.141 457.48L440.496 462.71L446.138 448.529Z" fill="white"/>
<path d="M446.57 450.975L451.899 456.938L442.811 460.422L446.564 450.975M445.694 446.078L438.176 464.999L456.371 458.023L445.694 446.085V446.078Z" fill="#0055FC"/>
<path d="M628.649 259.941L620.734 267.855L636.3 283.421L644.214 275.506L628.649 259.941Z" fill="#0055FC"/>
<path d="M637.853 258.739L586.57 310.021L594.956 318.408L646.239 267.125L637.853 258.739Z" fill="#0055FC"/>
<path d="M239.281 449.793H126.621V477.677H239.281V449.793Z" fill="white" stroke="#0055FC" stroke-width="2.64565" stroke-miterlimit="10"/>
<path d="M239.281 477.848H126.621V505.732H239.281V477.848Z" fill="white" stroke="#0055FC" stroke-width="2.64565" stroke-miterlimit="10"/>
<path d="M239.336 505.699H126.676V533.583H239.336V505.699Z" fill="white" stroke="#0055FC" stroke-width="2.64565" stroke-miterlimit="10"/>
<path d="M239.305 533.484H126.645V561.368H239.305V533.484Z" fill="white" stroke="#0055FC" stroke-width="2.64565" stroke-miterlimit="10"/>
<path d="M64.2727 561.289C56.1789 561.289 48.7322 558.916 42.724 554.424C33.3879 547.442 28.223 536.085 28.1838 522.434C28.1446 508.927 33.146 494.773 42.2663 482.573C54.6032 466.072 72.798 455.82 89.7572 455.82C97.851 455.82 105.298 458.194 111.306 462.685C130.468 477.009 130.671 509.241 111.764 534.529C99.4267 551.031 81.2319 561.282 64.2727 561.282V561.289Z" fill="white"/>
<path d="M89.7601 457.135C97.357 457.135 104.536 459.259 110.531 463.738C129.144 477.65 129.229 508.999 110.72 533.752C98.1677 550.541 80.2933 559.981 64.2821 559.981C56.6851 559.981 49.5066 557.857 43.5114 553.378C24.8982 539.466 24.8132 508.117 43.3218 483.364C55.8744 466.575 73.7489 457.135 89.7601 457.135ZM89.7601 454.52C72.4021 454.52 53.802 464.974 41.2232 481.802C31.9329 494.224 26.8399 508.659 26.8791 522.448C26.9184 536.511 32.2663 548.246 41.9423 555.477C48.1794 560.138 55.9006 562.603 64.2756 562.603C81.6336 562.603 100.234 552.149 112.813 535.321C122.103 522.899 127.196 508.463 127.157 494.675C127.117 480.612 121.769 468.877 112.093 461.646C105.856 456.984 98.135 454.52 89.7601 454.52Z" fill="#0055FC"/>
<path d="M100.911 525.862C119.417 501.107 119.331 469.759 100.718 455.845C82.1049 441.931 52.0141 450.72 33.5081 475.475C15.0021 500.231 15.0887 531.578 33.7016 545.493C52.3145 559.407 82.4053 550.618 100.911 525.862Z" fill="#0055FC" stroke="white" stroke-width="2.64565" stroke-miterlimit="10"/>
<path d="M92.9542 519.27C108.064 499.058 108.651 473.955 94.2666 463.202C79.8819 452.448 55.9719 460.116 40.8623 480.328C25.7527 500.541 25.1651 525.643 39.5499 536.396C53.9346 547.15 77.8446 539.482 92.9542 519.27Z" fill="white" stroke="#0055FC" stroke-width="2.64565" stroke-miterlimit="10"/>
<path d="M255.151 226.271L224.292 219.701L178.324 190.81L154.684 164.541L165.85 112.01L223.135 106.158L254.843 114.239L297.189 124.268L289.755 200.408L255.151 226.271Z" fill="white" stroke="#0055FC" stroke-width="2.64565" stroke-miterlimit="10"/>
<path d="M191.09 109.31L272.885 102.184L348.377 121.483L438.358 194.204L423.543 201.912L395.234 195.498L335.217 151.525L278.305 146.778" fill="white"/>
<path d="M191.09 109.31L272.885 102.184L348.377 121.483L438.358 194.204L423.543 201.912L395.234 195.498L335.217 151.525L278.305 146.778" stroke="#0055FC" stroke-width="2.64565" stroke-miterlimit="10"/>
<path d="M255.517 209.756C221.847 213.162 253.628 229.049 253.628 229.049L289.181 240.836L300.007 234.083L307.559 207.049L255.524 209.756H255.517Z" fill="white" stroke="#0055FC" stroke-width="2.64565" stroke-miterlimit="10"/>
<path d="M320.995 210.802L312.894 228.703L300.838 239.261L245.992 206.317C245.992 206.317 224.829 185.331 267.96 183.82" fill="white"/>
<path d="M320.995 210.802L312.894 228.703L300.838 239.261L245.992 206.317C245.992 206.317 224.829 185.331 267.96 183.82" stroke="#0055FC" stroke-width="2.64565" stroke-miterlimit="10"/>
<path d="M331.66 188.869L332.15 211.412L319.349 220.702L261.411 188.876C261.411 188.876 230.193 164.829 266.89 166.346C303.586 167.856 331.653 188.869 331.653 188.869H331.66Z" fill="white" stroke="#0055FC" stroke-width="2.64565" stroke-miterlimit="10"/>
<path d="M278.703 129.053L332.843 161.01L366.075 183.99L355.614 199.805L316.819 190.404L280.383 168.136L245.112 173.458L211.684 165.142" fill="white"/>
<path d="M278.703 129.053L332.843 161.01L366.075 183.99L355.614 199.805L316.819 190.404L280.383 168.136L245.112 173.458L211.684 165.142" stroke="#0055FC" stroke-width="2.64565" stroke-miterlimit="10"/>
<path d="M412.196 174.318L403.285 185.799C403.285 185.799 412.53 195.423 430.345 190.179L412.203 174.318H412.196Z" fill="white" stroke="#0055FC" stroke-width="2.64565" stroke-miterlimit="10"/>
<path d="M337.092 171.588L327.945 186.076C327.945 186.076 353.802 198.256 356.47 187.233C358.013 180.859 337.092 171.588 337.092 171.588Z" fill="white" stroke="#0055FC" stroke-width="2.64565" stroke-miterlimit="10"/>
<path d="M165.456 111.224L24.6992 122.697L32.4535 217.828L173.211 206.354L165.456 111.224Z" fill="#0055FC" stroke="white" stroke-width="2.64565" stroke-miterlimit="10"/>
<path d="M149.491 106.292L6.57031 117.941L16.4285 238.883L159.349 227.233L149.491 106.292Z" fill="white" stroke="#0055FC" stroke-width="2.64565" stroke-linejoin="round"/>
</svg>
