<svg width="936" height="579" viewBox="0 0 936 579" fill="none" xmlns="http://www.w3.org/2000/svg">
<path d="M676.96 360.999L453.18 347.246L616.566 507.529C576.174 550.306 518.931 576.999 455.453 576.999C333.077 576.999 233.875 477.798 233.875 355.422C233.875 233.045 333.077 133.844 455.453 133.844C577.829 133.844 677.031 233.051 677.031 355.422C677.031 357.291 677.007 359.148 676.96 361.005V360.999Z" fill="white" stroke="#0055FD" stroke-width="2.37324" stroke-miterlimit="10"/>
<path d="M451.297 346.915L631.936 222.688" stroke="#0055FD" stroke-width="2.37324" stroke-miterlimit="10"/>
<path d="M712.631 376.235C711.23 432.932 688.53 484.337 652.238 522.759L488.852 362.477L712.631 376.23V376.235Z" fill="#0055FC" stroke="white" stroke-width="2.37324" stroke-miterlimit="10"/>
<path d="M455.528 424.292C485.337 424.292 509.502 419.702 509.502 414.04C509.502 408.377 485.337 403.787 455.528 403.787C425.719 403.787 401.555 408.377 401.555 414.04C401.555 419.702 425.719 424.292 455.528 424.292Z" fill="#0055FC"/>
<path d="M515.592 414.593C515.592 415.091 515.479 415.577 515.259 416.058C512.584 421.979 493.865 426.791 469.355 428.12C464.923 428.363 460.307 428.488 455.561 428.488C450.814 428.488 446.358 428.363 441.997 428.132C415.37 426.708 395.523 421.184 395.523 414.593C395.523 406.921 422.4 400.703 455.561 400.703C488.721 400.703 515.598 406.921 515.598 414.593H515.592Z" stroke="#0055FC" stroke-width="2.37324" stroke-miterlimit="10"/>
<path d="M466.216 537.158C497.958 537.158 523.69 532.27 523.69 526.241C523.69 520.212 497.958 515.324 466.216 515.324C434.474 515.324 408.742 520.212 408.742 526.241C408.742 532.27 434.474 537.158 466.216 537.158Z" fill="#0055FC"/>
<path d="M515.578 415.357V415.144C515.578 414.924 515.614 415.085 515.578 415.357Z" fill="white" stroke="#0055FC" stroke-width="2.37324" stroke-miterlimit="10"/>
<path d="M515.792 443.492C515.062 444.72 513.62 445.895 511.567 447.004C502.312 452.006 480.638 455.554 455.796 455.554C430.954 455.554 409.951 452.196 400.327 447.372C397.96 446.18 396.311 444.91 395.516 443.575V414.592C395.516 421.189 415.368 426.713 441.99 428.131C446.351 428.363 450.889 428.487 455.553 428.487C460.216 428.487 464.915 428.357 469.347 428.119C492.997 426.832 511.253 422.311 514.908 416.674C514.967 416.585 515.335 416.188 515.465 415.784C515.519 415.636 515.548 415.482 515.56 415.357C515.625 420.513 515.78 443.492 515.78 443.492H515.792Z" fill="white" stroke="#0055FC" stroke-width="2.37324" stroke-miterlimit="10"/>
<path d="M454.48 278.997C437.114 280.611 431.478 261.862 445.948 244.312C451.988 236.979 473.015 218.26 469.592 207.58C469.592 207.58 502.455 224.335 491.924 247.439C483.861 265.119 469.449 277.609 454.48 278.997Z" fill="white" stroke="#0055FC" stroke-width="2.37324" stroke-linecap="round" stroke-linejoin="round"/>
<path d="M502.373 323.301C490.495 315.641 499.685 287.595 513.135 277.811C526.586 268.028 562.297 269.25 562.297 269.25C570.859 285.637 543.709 349.958 502.373 323.301Z" fill="white" stroke="#0055FC" stroke-width="2.37324" stroke-miterlimit="10"/>
<path d="M503.451 525.499C503.451 531.159 482.158 535.751 455.886 535.751C429.614 535.751 408.32 531.159 408.32 525.499C408.32 524.799 400.328 447.372 400.328 447.372C409.946 452.189 431.435 455.554 455.797 455.554C480.158 455.554 502.306 452.006 511.568 447.004C511.568 447.004 503.457 524.775 503.457 525.499H503.451Z" fill="white" stroke="#0055FC" stroke-width="2.37324" stroke-miterlimit="10"/>
<path d="M366.72 281.092C366.72 281.092 363.207 346.131 394.504 335.718C425.807 325.305 396.759 288.093 366.72 281.092Z" fill="white" stroke="#0055FC" stroke-width="2.37324" stroke-miterlimit="10"/>
<path d="M431.974 336.928C392.774 350.39 382.367 301.062 382.367 301.062C402.878 348.966 431.375 332.348 431.375 332.348C431.375 332.348 439.058 327.364 447.851 332.959L447.631 337.759C447.631 337.759 445.436 332.3 431.98 336.922L431.974 336.928Z" fill="white" stroke="#0055FD" stroke-width="2.37324" stroke-linecap="round" stroke-linejoin="round"/>
<path d="M442.532 422.716C442.532 422.716 444.039 412.279 449.978 384.388C455.911 356.496 446.121 340.471 446.121 340.471C446.121 340.471 432.179 309.316 449.385 281.425C466.597 253.533 473.123 238.694 473.716 229.498C474.31 220.302 477.537 235.84 455.614 274.898C436.783 308.45 457.133 329.643 464.603 344.404C482.58 379.932 469.806 404.287 472.524 411.686C473.461 414.231 473.295 422.514 473.295 422.514C467.712 423.226 453.188 423.327 442.526 422.716H442.532Z" fill="white" stroke="#0055FC" stroke-width="2.37324" stroke-miterlimit="10"/>
<path d="M454.751 391.501C454.751 391.501 434.875 380.056 438.69 358.174C441.318 343.11 462.41 334.483 469.156 331.665C500.874 318.417 521.397 316.82 537.861 294.334C537.861 294.334 535.453 305.376 509.151 319.229C497.303 325.471 443.116 341.668 444.83 362.232C445.833 374.277 458.358 376.442 458.358 376.442" fill="white"/>
<path d="M454.751 391.501C454.751 391.501 434.875 380.056 438.69 358.174C441.318 343.11 462.41 334.483 469.156 331.665C500.874 318.416 521.397 316.82 537.861 294.334C537.861 294.334 535.453 305.376 509.151 319.229C497.303 325.471 443.116 341.668 444.83 362.232C445.833 374.277 458.358 376.442 458.358 376.442" stroke="#0055FD" stroke-width="2.37324" stroke-linecap="round" stroke-linejoin="round"/>
<path d="M551.852 104.57L576.865 149.276C576.865 149.276 633.212 136.828 632.655 153.483C632.103 170.143 613.734 189.473 613.734 189.473C613.734 189.473 594.244 188.286 581.108 208.803L581.339 221.743L624.348 212.303L669.837 167.212C669.837 167.212 715.765 150.848 717.184 112.704C718.602 74.5604 692.318 64.7649 692.318 64.7649L621.293 63.8809L574.914 81.3064L551.852 104.57Z" fill="white" stroke="#0055FC" stroke-width="2.37324" stroke-miterlimit="10"/>
<path d="M574.916 81.3066L553.516 121.551L566.296 137.606L577.568 118.632" fill="white"/>
<path d="M574.916 81.3066L553.516 121.551L566.296 137.606L577.568 118.632" stroke="#0055FC" stroke-width="2.37324" stroke-miterlimit="10"/>
<path d="M599.794 90.6914L582.06 97.4848L557.414 141.17L565.596 153.47L591.553 126.812" fill="white"/>
<path d="M599.794 90.6914L582.06 97.4848L557.414 141.17L565.596 153.47L591.553 126.812" stroke="#0055FC" stroke-width="2.37324" stroke-miterlimit="10"/>
<path d="M560.547 246.892C580.325 246.892 596.359 230.858 596.359 211.08C596.359 191.301 580.325 175.268 560.547 175.268C540.768 175.268 524.734 191.301 524.734 211.08C524.734 230.858 540.768 246.892 560.547 246.892Z" fill="#0055FC"/>
<path d="M558.29 240.271C577.59 240.271 593.236 224.625 593.236 205.325C593.236 186.025 577.59 170.379 558.29 170.379C538.99 170.379 523.344 186.025 523.344 205.325C523.344 224.625 538.99 240.271 558.29 240.271Z" fill="white" stroke="#0055FC" stroke-width="2.37324" stroke-linecap="round" stroke-linejoin="round"/>
<path d="M558.379 233.47C573.819 233.47 586.335 220.954 586.335 205.513C586.335 190.073 573.819 177.557 558.379 177.557C542.939 177.557 530.422 190.073 530.422 205.513C530.422 220.954 542.939 233.47 558.379 233.47Z" fill="white" stroke="#0055FC" stroke-width="2.37324" stroke-linecap="round" stroke-linejoin="round"/>
<path d="M610.056 108.307L586.288 117.473L552.647 166.451L542.359 202.091C542.359 202.091 559.82 215.34 575.401 172.788L604.799 143.045" fill="white"/>
<path d="M610.056 108.307L586.288 117.473L552.647 166.451L542.359 202.091C542.359 202.091 559.82 215.34 575.401 172.788L604.799 143.045" stroke="#0055FC" stroke-width="2.37324" stroke-miterlimit="10"/>
<path d="M549.159 178.621L562.354 183.035C562.354 183.035 560.094 195.614 543.125 200.888L549.165 178.621H549.159Z" fill="white" stroke="#0055FC" stroke-width="2.37324" stroke-miterlimit="10"/>
<path d="M704.766 148.683L827.203 137.002L819.308 54.2549L696.871 65.9364L704.766 148.683Z" fill="white" stroke="#0055FC" stroke-width="2.37324" stroke-miterlimit="10"/>
<path d="M719.365 159.882L840.609 148.314L831.062 48.2442L709.818 59.8119L719.365 159.882Z" fill="#0055FC" stroke="white" stroke-width="2.37324" stroke-miterlimit="10"/>
<path d="M350.782 16.3615L293.48 15.875L212.564 49.6225L205.812 96.9509L304.569 76.986L385.704 41.9273L350.782 16.3615Z" fill="white" stroke="#0055FC" stroke-width="2.37324" stroke-miterlimit="10"/>
<path d="M307.102 149.971C305.631 138.14 307.458 126.653 311.849 116.443C311.973 116.158 312.092 115.879 312.228 115.612L314.109 111.749L337.664 63.3649H337.658L333.249 27.8197L331.659 15.0339L342.292 13.7167L341.491 7.27928L368.089 3.98047L368.89 10.4179L379.083 9.15414L385.069 57.3784L384.927 57.3962L422.946 102.405H422.845C429.74 111.31 434.397 122.109 435.88 134.082C440.289 169.585 415.073 201.927 379.581 206.335C372.847 207.172 366.226 206.934 359.889 205.771C358.394 205.504 356.917 205.172 355.457 204.804C355.06 204.709 354.674 204.603 354.282 204.49C329.737 197.762 310.443 176.824 307.108 149.982L307.102 149.971Z" fill="#0055FC"/>
<path d="M332.25 15.6922L379.667 9.8125L385.506 58.0546L338.248 64.0233L332.25 15.6922Z" fill="white"/>
<path d="M338.248 64.0233L332.25 15.6922L379.667 9.8125L385.654 58.0368L385.506 58.0546L338.248 64.0233Z" stroke="#0055FC" stroke-width="2.37324" stroke-miterlimit="10" stroke-linecap="round"/>
<path d="M312.82 116.269C313.402 114.957 314.031 113.67 314.701 112.412L312.82 116.269Z" stroke="white" stroke-width="2.37324" stroke-linecap="round" stroke-linejoin="round"/>
<path d="M377.307 59.3594C377.307 59.3594 383.098 140.785 393.136 140.02C400.244 139.474 396.156 108.082 385.916 103.84C375.806 99.6511 366.301 144.126 376.334 143.23C386.367 142.334 377.509 104.783 369.054 105.341C358.831 106.017 353.871 146.41 360.759 145.556C367.648 144.701 365.019 106.397 355.823 107.376C344.669 108.563 332.72 148.047 345.434 146.671C355.621 145.567 351.753 62.5336 351.753 62.5336" stroke="white" stroke-width="2.37324" stroke-linecap="round" stroke-linejoin="round"/>
<path d="M342.32 12.2407L368.922 8.94141L368.061 1.99946L341.459 5.29876L342.32 12.2407Z" stroke="white" stroke-width="2.37324" stroke-linecap="round" stroke-linejoin="round"/>
<path d="M385.863 46.4961L362.023 49.4508" stroke="#0055FC" stroke-width="2.37324" stroke-miterlimit="10" stroke-linecap="round"/>
<path d="M352.723 50.75L349.258 51.1831" stroke="#0055FC" stroke-width="2.37324" stroke-miterlimit="10" stroke-linecap="round"/>
<path d="M335.43 40.6686L376.356 35.5898" stroke="#0055FC" stroke-width="2.37324" stroke-miterlimit="10" stroke-linecap="round"/>
<path d="M334.195 28.5841L384.947 22.2891" stroke="#0055FC" stroke-width="2.37324" stroke-miterlimit="10" stroke-linecap="round"/>
<path d="M307.701 150.635C306.236 138.798 308.057 127.318 312.448 117.107C312.567 116.828 312.691 116.543 312.822 116.27L314.703 112.414L338.257 64.0293L385.52 58.0547L423.539 103.057L423.439 103.069C430.333 111.963 434.99 122.761 436.474 134.734C440.876 170.238 415.666 202.585 380.168 206.988C373.44 207.824 366.813 207.587 360.476 206.424C358.987 206.157 357.504 205.831 356.044 205.463C355.647 205.368 355.255 205.255 354.87 205.148C330.324 198.426 311.03 177.482 307.701 150.641V150.635Z" stroke="white" stroke-width="2.37324" stroke-linecap="round" stroke-linejoin="round"/>
<path d="M312.414 117.106L312.823 116.264C312.693 116.537 312.568 116.815 312.45 117.1H312.414V117.106Z" stroke="white" stroke-width="2.37324" stroke-linecap="round" stroke-linejoin="round"/>
<path d="M325.263 206.826L307.719 238.218" stroke="#0055FC" stroke-width="2.37324" stroke-linecap="round" stroke-linejoin="round"/>
<path d="M357.58 216.26L352.234 251.823" stroke="#0055FC" stroke-width="2.37324" stroke-linecap="round" stroke-linejoin="round"/>
<path d="M395.156 216.807L403.635 251.759" stroke="#0055FC" stroke-width="2.37324" stroke-linecap="round" stroke-linejoin="round"/>
<path d="M425.203 203.877L446.212 233.068" stroke="#0055FC" stroke-width="2.37324" stroke-linecap="round" stroke-linejoin="round"/>
<path d="M446.609 179.984L478.227 197.119" stroke="#0055FC" stroke-width="2.37324" stroke-linecap="round" stroke-linejoin="round"/>
<path d="M453.781 147.68L489.653 150.207" stroke="#0055FC" stroke-width="2.37324" stroke-linecap="round" stroke-linejoin="round"/>
<path d="M448.695 116.203L483.677 107.867" stroke="white" stroke-width="2.37324" stroke-linecap="round" stroke-linejoin="round"/>
<path d="M268.758 190.665L301.776 176.414" stroke="white" stroke-width="2.37324" stroke-linecap="round" stroke-linejoin="round"/>
<path d="M253.133 146.368L289.093 146.285" stroke="white" stroke-width="2.37324" stroke-linecap="round" stroke-linejoin="round"/>
<path d="M396.247 195.229C362.908 209.284 338.345 188.453 337.906 187.925C358.577 172.546 400.103 155.34 427.461 152.949C427.478 153.08 423.806 183.612 396.241 195.234L396.247 195.229Z" fill="white" stroke="white" stroke-width="2.37324" stroke-linecap="round" stroke-linejoin="round"/>
<path d="M203.336 96.3923C203.336 96.3923 233.5 117.283 256.253 119.193C279.007 121.104 294.67 101.014 316.789 94.3098C338.907 87.6054 335.193 88.5251 362.575 89.5633C389.956 90.6016 397.693 69.7824 397.693 69.7824L348.519 60.7344L289.497 61.1082" fill="white"/>
<path d="M203.336 96.3924C203.336 96.3924 233.5 117.283 256.253 119.193C279.007 121.104 294.67 101.014 316.789 94.3098C338.907 87.6054 335.193 88.5251 362.575 89.5633C389.956 90.6016 397.693 69.7824 397.693 69.7824L348.519 60.7344L289.497 61.1082" stroke="#0055FC" stroke-width="2.37324" stroke-linejoin="round"/>
<path d="M227.441 41.1545L110.992 50.6465L117.407 129.343L233.855 119.851L227.441 41.1545Z" fill="#0055FC" stroke="white" stroke-width="2.37324" stroke-miterlimit="10"/>
<path d="M214.234 37.0812L96 46.7188L104.156 146.775L222.39 137.138L214.234 37.0812Z" fill="white" stroke="#0055FC" stroke-width="2.37324" stroke-linejoin="round"/>
<path d="M367.727 64.3965L366.125 78.1435C366.125 78.1435 378.407 81.4304 390.332 68.3776L367.733 64.3965H367.727Z" fill="white" stroke="#0055FC" stroke-width="2.37324" stroke-miterlimit="10"/>
</svg>
