<svg width="936" height="596" viewBox="0 0 936 596" fill="none" xmlns="http://www.w3.org/2000/svg">
<path d="M744.816 105.468L813.11 360.342C820.928 389.519 803.613 419.51 774.43 427.329L267.566 563.143C238.389 570.961 208.391 553.642 200.575 524.47L132.281 269.596C132.167 269.17 132.058 268.737 131.951 268.315L744.3 104.237L743.49 101.213C743.989 102.597 744.429 104.022 744.816 105.468Z" fill="#0055FC" stroke="white" stroke-width="2.48408" stroke-miterlimit="10"/>
<path d="M481.01 118.069L492.824 67.3078C493.757 63.3031 496.599 60.2334 500.294 59.2433L609.462 29.9917C613.47 28.918 617.799 30.4646 620.597 33.9711L651.896 73.1807C657.249 79.8921 654.568 90.0422 646.896 92.0979L494.616 132.901C486.565 135.058 478.982 126.791 481.01 118.069Z" fill="#0055FC" stroke="white" stroke-width="2.48408" stroke-miterlimit="10"/>
<path d="M494.477 124.272L506.681 72.1139C506.838 71.4545 507.358 70.923 508.036 70.7414L608.165 43.912C608.891 43.7175 609.663 43.9606 610.117 44.5269L642.953 85.5168L494.472 124.28L494.477 124.272Z" fill="white" stroke="white" stroke-width="2.48408" stroke-miterlimit="10"/>
<path d="M746.371 100.644L747.184 103.68L131.836 268.562C124.826 239.644 142.151 210.268 171.035 202.529L680.376 66.0512C708.245 58.5836 736.853 73.9287 746.365 100.646L746.371 100.644Z" fill="white" stroke="#0055FC" stroke-width="2.48408" stroke-miterlimit="10"/>
<path d="M199.951 166.936L149.31 180.505C143.784 181.985 140.505 187.665 141.986 193.191L149.598 221.601C151.079 227.127 156.759 230.406 162.285 228.925L212.925 215.356C218.451 213.876 221.73 208.196 220.25 202.67L212.637 174.26C211.157 168.734 205.477 165.455 199.951 166.936Z" fill="white" stroke="#0055FC" stroke-width="2.48408" stroke-miterlimit="10"/>
<path d="M368.735 296.009L404.349 423.211L532.096 455.904L629.585 360.583L597.479 235.122L464.64 197.918L368.735 296.009Z" fill="white" stroke="white" stroke-width="2.48408" stroke-miterlimit="10"/>
<path d="M768.234 388.071L313.75 509.85L324.559 550.19L779.043 428.412L768.234 388.071Z" fill="white" stroke="#0055FC" stroke-width="2.48408" stroke-miterlimit="10"/>
<path d="M219.566 179.609L140.576 200.774C126.311 204.597 117.845 219.26 121.667 233.525L210.938 566.688C214.76 580.953 229.423 589.419 243.689 585.596L322.678 564.431C336.944 560.609 345.41 545.946 341.587 531.68L252.317 198.518C248.494 184.252 233.831 175.787 219.566 179.609Z" fill="#0055FC" stroke="white" stroke-width="2.48408" stroke-miterlimit="10"/>
<path d="M450.959 151.986C352.762 178.298 294.491 279.234 320.801 377.425C347.111 475.617 448.045 533.901 546.242 507.589C644.439 481.277 702.71 380.341 676.398 282.144C650.086 183.946 549.156 125.674 450.959 151.986ZM640.018 401.504C626.129 428.899 604.347 452.197 576.778 467.794C565.343 474.259 552.917 479.402 539.637 482.96C526.356 486.519 512.714 488.323 499.439 488.401C469.59 488.575 440.789 480.258 416.062 465.191C395.063 452.398 377.002 434.734 363.728 413.268C355.775 400.406 349.54 386.184 345.424 370.821C341.307 355.459 339.674 340.724 340.026 325.938C340.607 301.57 346.833 278.016 357.747 256.936C372.863 227.715 396.983 203.256 427.543 187.976C436.968 183.271 446.992 179.435 457.561 176.603C468.773 173.599 480.031 171.874 491.177 171.337C526.257 169.665 560.209 179.785 588.181 198.927C605.926 211.068 621.272 226.829 632.97 245.509C641.163 258.57 647.566 273.063 651.763 288.725C655.96 304.388 657.561 319.215 657.146 334.178C656.491 357.91 650.488 380.858 640.019 401.485L640.018 401.504Z" fill="white" stroke="#0055FC" stroke-width="2.48408" stroke-miterlimit="10"/>
<path d="M557.093 400.22L528.471 407.973L539.455 454.798L570.672 447.61L579.015 437.165L557.093 400.22Z" fill="#0055FC"/>
<path d="M486.022 419.149L514.686 411.552L528.586 457.596L497.962 466.972L485.508 462.099L486.022 419.149Z" fill="#0055FC"/>
<path d="M588.191 198.946L597.576 235.605L464.739 198.406L427.551 187.99C436.976 183.285 447 179.448 457.57 176.616C468.781 173.612 480.039 171.888 491.185 171.351C526.266 169.679 560.217 179.799 588.189 198.94L588.191 198.946Z" fill="#0055FC" stroke="white" stroke-width="2.48408" stroke-miterlimit="10"/>
<path d="M651.771 288.743C655.844 303.944 657.568 319.233 657.154 334.196L629.68 361.064L597.574 235.603L588.189 198.945C605.934 211.086 621.279 226.847 632.978 245.527C641.171 258.588 647.574 273.081 651.771 288.743Z" fill="#0055FC" stroke="white" stroke-width="2.48408" stroke-miterlimit="10"/>
<path d="M657.151 334.197C656.496 357.93 650.493 380.877 640.024 401.504C626.135 428.898 604.353 452.197 576.784 467.794L532.188 456.386L629.672 361.067L657.145 334.199L657.151 334.197Z" fill="#0055FC" stroke="white" stroke-width="2.48408" stroke-miterlimit="10"/>
<path d="M576.79 467.794C565.355 474.259 552.93 479.401 539.649 482.96C526.368 486.519 512.726 488.322 499.451 488.401C469.602 488.575 440.801 480.257 416.074 465.19L404.453 423.691L532.2 456.384L576.796 467.792L576.79 467.794Z" fill="#0055FC" stroke="white" stroke-width="2.48408" stroke-miterlimit="10"/>
<path d="M416.073 465.189C395.074 452.396 377.013 434.733 363.739 413.267C355.786 400.405 349.551 386.182 345.435 370.82C341.318 355.457 339.685 340.722 340.037 325.937L368.837 296.482L404.456 423.682L416.077 465.181L416.073 465.189Z" fill="#0055FC" stroke="white" stroke-width="2.48408" stroke-miterlimit="10"/>
<path d="M464.735 198.407L368.83 296.498L340.03 325.952C340.612 301.584 346.838 278.03 357.751 256.95C372.867 227.729 396.988 203.27 427.547 187.99L464.735 198.407Z" fill="#0055FC" stroke="white" stroke-width="2.48408" stroke-miterlimit="10"/>
<path d="M500.226 162.112L491.182 171.357" stroke="white" stroke-width="2.48408" stroke-miterlimit="10"/>
<path d="M340.035 325.945L329.927 336.284" stroke="white" stroke-width="2.48408" stroke-miterlimit="10"/>
<path d="M357.752 256.948L354.297 244.604" stroke="white" stroke-width="2.48408" stroke-miterlimit="10"/>
<path d="M419.984 479.172L416.07 465.189" stroke="white" stroke-width="2.48408" stroke-miterlimit="10"/>
<path d="M363.736 413.276L357.82 411.762" stroke="white" stroke-width="2.48408" stroke-miterlimit="10"/>
<path d="M593.811 472.149L576.789 467.793" stroke="white" stroke-width="2.48408" stroke-miterlimit="10"/>
<path d="M427.543 187.989L423.762 186.932" stroke="white" stroke-width="2.48408" stroke-miterlimit="10"/>
<path d="M658.331 252.619L632.977 245.525" stroke="white" stroke-width="2.48408" stroke-miterlimit="10"/>
<path d="M584.121 183.024L588.194 198.945" stroke="white" stroke-width="2.48408" stroke-miterlimit="10"/>
<path d="M640.024 401.505L644.509 419.013" stroke="white" stroke-width="2.48408" stroke-miterlimit="10"/>
<path d="M669.329 322.301L657.151 334.199" stroke="white" stroke-width="2.48408" stroke-miterlimit="10"/>
<path d="M499.451 488.401L495.156 492.599" stroke="white" stroke-width="2.48408" stroke-miterlimit="10"/>
<path d="M546.958 273.571L553.624 300.37L508.867 357.92L508.203 358.779L507.163 358.351L439.632 330.888L432.006 304.347L452.747 271.233L488.739 286.136L488.745 286.135L512.433 255.266L546.958 273.571Z" fill="#0055FC"/>
<path d="M513.237 411.939L493.537 417.217L442.42 389.15L421.041 352.194L419.058 317.39L423.511 313.445L431.913 346.529L450.444 369.692L468.08 380.442L477.925 376.923L462.123 365.051L455.283 354.952L459.622 350.581L498.993 370.776L513.237 411.939Z" stroke="#0055FC" stroke-width="2.48408" stroke-miterlimit="10"/>
<path d="M529.897 407.451L549.591 402.174L579.832 352.306L579.863 309.614L564.178 278.481L558.354 277.283L567.615 310.144L563.148 339.469L553.248 357.59L542.97 359.47L550.719 341.288L551.587 329.123L545.649 327.499L521.646 364.682L529.897 407.451Z" stroke="#0055FC" stroke-width="2.48408" stroke-miterlimit="10"/>
<path d="M177.318 400.763C199.182 399.148 219.809 413.218 225.692 435.172C231.575 457.127 220.065 480.997 199.174 490.009C221.768 487.35 243.493 501.607 249.558 524.24C256.116 548.714 241.901 573.862 217.739 580.985C213.69 577.582 210.617 572.954 209.146 567.465L119.876 234.303C119.244 231.945 118.948 229.569 118.96 227.238C119.805 226.96 120.655 226.7 121.525 226.467C146.377 219.808 171.931 234.557 178.59 259.409C184.246 280.518 174.457 302.121 156.163 312.236C177.066 311.837 196.341 325.658 201.998 346.767C207.654 367.876 197.053 391.226 177.312 400.765L177.318 400.763Z" fill="white" stroke="#0055FC" stroke-width="2.48408" stroke-miterlimit="10"/>
<path d="M685.109 85.2417L603.372 107.143C597.922 108.603 594.688 114.205 596.148 119.655L596.15 119.661C597.61 125.111 603.211 128.345 608.661 126.884L690.398 104.983C695.848 103.523 699.082 97.9212 697.622 92.4714L697.62 92.4654C696.16 87.0156 690.558 83.7815 685.109 85.2417Z" fill="#0055FC" stroke="white" stroke-width="2.48408" stroke-miterlimit="10"/>
<path d="M339.195 177.525L283.204 192.528C277.754 193.988 274.52 199.59 275.98 205.04L275.982 205.046C277.442 210.495 283.044 213.729 288.493 212.269L344.484 197.266C349.934 195.806 353.168 190.205 351.708 184.755L351.706 184.749C350.246 179.299 344.644 176.065 339.195 177.525Z" fill="#0055FC" stroke="white" stroke-width="2.48408" stroke-miterlimit="10"/>
<path d="M778.647 427.196L695.98 118.682" stroke="white" stroke-width="2.48408" stroke-miterlimit="10"/>
<path d="M314.031 226.725L295.903 231.583C290.453 233.043 287.219 238.644 288.679 244.094L288.681 244.1C290.141 249.55 295.743 252.784 301.193 251.324L319.32 246.467C324.77 245.006 328.004 239.405 326.544 233.955L326.542 233.949C325.082 228.499 319.48 225.265 314.031 226.725Z" fill="white" stroke="#0055FC" stroke-width="2.48408" stroke-miterlimit="10"/>
<path d="M614.405 145.879L613.878 146.021C608.796 147.382 605.78 152.606 607.141 157.688C608.503 162.77 613.727 165.786 618.809 164.424L619.337 164.283C624.419 162.921 627.435 157.698 626.073 152.615C624.711 147.533 619.488 144.518 614.405 145.879Z" fill="white" stroke="#0055FC" stroke-width="2.48408" stroke-miterlimit="10"/>
</svg>
