<svg width="169" height="142" viewBox="0 0 169 142" fill="none" xmlns="http://www.w3.org/2000/svg">
<path d="M0.484375 63.2263V59.3054H20.7423V62.6322C20.7423 66.87 22.6632 70.0384 26.5048 72.1374C30.3861 74.2365 35.4952 75.286 41.832 75.286C47.8915 75.286 52.862 74.2761 56.7433 72.2562C60.6641 70.2364 62.6246 66.7908 62.6246 61.9193C62.6246 57.1668 60.5453 53.7607 56.3868 51.7013C52.2679 49.6418 46.446 48.6121 38.921 48.6121H27.99V38.0375H38.5646C44.2281 38.0375 49.2183 37.087 53.5352 35.186C57.8918 33.2453 60.0701 29.9779 60.0701 25.3838C60.0701 21.7005 58.4265 18.9281 55.1393 17.0667C51.8916 15.1657 47.4559 14.2152 41.832 14.2152C35.8516 14.2152 31.1782 15.2449 27.8118 17.3043C24.485 19.3638 22.8216 22.3144 22.8216 26.1561V28.5918H3.0389V25.562C3.0389 17.4034 6.48453 11.126 13.3758 6.72981C20.3067 2.29405 29.8911 0.0761719 42.129 0.0761719C54.4858 0.0761719 63.991 2.13563 70.6446 6.25455C77.3378 10.3735 80.6845 15.9578 80.6845 23.0075C80.6845 27.9581 78.9814 32.0374 75.5754 35.2454C72.1694 38.4138 67.7138 40.7505 62.2087 42.2555V42.4931C68.3079 43.4436 73.4962 45.6417 77.7735 49.0873C82.0508 52.4934 84.1895 57.1866 84.1895 63.1669C84.1895 70.8899 80.4666 77.2069 73.0209 82.1179C65.6148 86.9893 55.4363 89.425 42.4855 89.425C29.2178 89.425 18.9007 87.1081 11.5342 82.4743C4.16764 77.8406 0.484375 71.4245 0.484375 63.2263Z" fill="#D8D8D8"/>
<path fill-rule="evenodd" clip-rule="evenodd" d="M125.871 38.6992H160.86C164.839 38.6992 168.064 41.9244 168.064 45.9028V75.6176C168.064 79.596 164.839 82.8211 160.86 82.8211H152.491C152.287 82.8211 152.09 82.9025 151.946 83.0472L139.139 95.8537C137.518 97.4744 134.747 96.3265 134.747 94.0345V83.593C134.747 83.1667 134.402 82.8211 133.975 82.8211H120.469V78.1903H133.975C136.959 78.1903 139.378 80.6091 139.378 83.593V89.0656L148.671 79.7727C149.684 78.7595 151.058 78.1903 152.491 78.1903H160.86C162.281 78.1903 163.433 77.0384 163.433 75.6176V45.9028C163.433 44.4819 162.281 43.3301 160.86 43.3301H125.871V38.6992Z" fill="#0055FF"/>
<path d="M89.4435 103.691C89.8338 102.52 90.9295 101.73 92.1636 101.73H99.7372C100.98 101.73 102.092 102.501 102.528 103.665C102.805 104.403 102.778 105.221 102.453 105.94L101.548 107.941C100.875 109.428 100.656 111.079 100.917 112.69L103.677 129.686C103.713 129.913 103.699 130.144 103.635 130.365L100.84 139.98C100.648 140.639 100.044 141.093 99.3577 141.093H93.7905C93.1221 141.093 92.5297 140.663 92.3228 140.027L89.1774 130.366C89.1054 130.145 89.0843 129.911 89.1157 129.68L91.4207 112.777C91.6478 111.111 91.3671 109.416 90.6154 107.913L89.5991 105.88C89.259 105.2 89.203 104.412 89.4435 103.691Z" fill="#0055FF"/>
<path d="M74.6261 55.6568C74.6512 55.8085 74.6432 55.9643 74.5999 56.112L74.4954 56.4778C74.3688 56.919 73.9658 57.2235 73.5065 57.2235H73.1046C71.2182 57.2235 69.7721 58.9008 70.0505 60.766L71.1971 68.455C71.5057 70.5242 73.0533 72.1924 75.0944 72.6537L75.2311 72.6849C75.5084 72.7472 75.7205 72.9733 75.7647 73.2537C76.1466 75.6766 76.8541 78.0363 77.8691 80.2693L78.2982 81.213C79.6157 84.1143 81.8357 86.5122 84.6255 88.0498L90.0191 91.0214C93.439 92.9057 97.5443 93.0796 101.112 91.4908L104.471 89.9944C110.443 87.3362 114.484 81.627 115.008 75.1109C115.041 74.6968 115.245 74.3139 115.572 74.0566L118.557 71.707C120.186 70.4247 121.229 68.5384 121.449 66.4762L122.13 60.1077C122.326 58.2777 120.712 56.7713 118.9 57.0908C118.463 57.1672 118.033 56.923 117.877 56.508L117.749 56.1683C117.68 55.9854 117.668 55.7854 117.714 55.5955L119.682 47.4372C121.022 41.8807 119.044 36.0489 114.601 32.4532C109.513 28.3388 103.169 26.0938 96.6257 26.0938H90.9688C87.3107 26.0938 83.8476 27.7459 81.5452 30.589L80.2448 32.1969C79.7856 32.7637 79.2208 33.231 78.5856 33.5757C78.2399 33.7626 77.8741 33.9144 77.4922 34.0259C75.1326 34.7113 73.5106 36.873 73.5106 39.3311V47.6713C73.5106 48.6019 73.5879 49.5315 73.7437 50.449L74.6261 55.6568Z" fill="black"/>
<path d="M43.2812 118.031V132.089C43.2812 137.062 47.3132 141.094 52.2857 141.094H92.5486L78.656 97.615L49.7361 108.658C45.8489 110.141 43.2812 113.87 43.2812 118.031Z" fill="black"/>
<path d="M149.405 118.031V132.089C149.405 137.062 145.373 141.094 140.401 141.094H100.138L114.031 97.615L142.951 108.658C146.838 110.141 149.405 113.87 149.405 118.031Z" fill="black"/>
<path d="M138.211 60.3084C138.211 63.4343 135.676 65.9683 132.551 65.9683C129.425 65.9683 126.891 63.4343 126.891 60.3084C126.891 57.1825 129.425 54.6484 132.551 54.6484C135.676 54.6484 138.211 57.1825 138.211 60.3084Z" fill="#0055FF"/>
<path d="M158.023 60.3084C158.023 63.4343 155.489 65.9683 152.363 65.9683C149.237 65.9683 146.703 63.4343 146.703 60.3084C146.703 57.1825 149.237 54.6484 152.363 54.6484C155.489 54.6484 158.023 57.1825 158.023 60.3084Z" fill="#0055FF"/>
</svg>
