<svg width="162" height="141" viewBox="0 0 162 141" fill="none" xmlns="http://www.w3.org/2000/svg">
<path d="M53.11 86.9992V65.2561L54.3575 64.4244V21.0569H53.8823L21.9804 54.9192H61.5458L63.1498 54.0281H87.3287V70.1869H0.59375V54.8004L55.5457 0.501953H72.2392V86.9992H53.11Z" fill="#D8D8D8"/>
<path d="M154.603 85.1914C158.292 85.1914 161.323 88.1921 160.876 91.853C159.731 101.241 156.178 110.216 150.511 117.883C143.516 127.347 133.67 134.318 122.419 137.771C111.168 141.224 99.1066 140.977 88.0066 137.067C76.9065 133.156 67.3535 125.789 60.7513 116.046C54.1491 106.304 50.846 94.7007 51.3273 82.9419C51.8086 71.1831 56.0491 59.8887 63.4254 50.7186C70.8018 41.5485 80.9251 34.9862 92.3076 31.9962C101.528 29.5741 111.181 29.5995 120.325 32.0145C123.891 32.9563 125.554 36.884 124.188 40.3095V40.3095C122.821 43.735 118.939 45.3462 115.339 44.544C108.888 43.1065 102.155 43.2182 95.7008 44.9135C87.0823 47.1775 79.4173 52.1463 73.8321 59.0896C68.2469 66.033 65.0362 74.5847 64.6717 83.4882C64.3073 92.3916 66.8083 101.177 71.8073 108.554C76.8063 115.93 84.0396 121.509 92.4442 124.47C100.849 127.431 109.982 127.617 118.5 125.003C127.019 122.388 134.474 117.11 139.771 109.944C143.737 104.578 146.336 98.3651 147.391 91.8408C147.98 88.2 150.915 85.1914 154.603 85.1914V85.1914Z" fill="black"/>
<path fill-rule="evenodd" clip-rule="evenodd" d="M158.914 46.5107C162.052 49.6217 162.073 54.687 158.962 57.8243L118.185 98.9471C110.752 106.443 98.6345 106.443 91.2018 98.9471L80.6006 88.2559C77.4896 85.1185 77.511 80.0533 80.6483 76.9423C83.7857 73.8313 88.851 73.8527 91.9619 76.9901L102.563 87.6813C103.737 88.8648 105.65 88.8648 106.824 87.6813L147.601 46.5585C150.712 43.4211 155.777 43.3997 158.914 46.5107Z" fill="#0055FF"/>
</svg>
