<svg width="148" height="135" viewBox="0 0 148 135" fill="none" xmlns="http://www.w3.org/2000/svg">
<path d="M0.265625 87.9992V76.4742L43.5737 44.8694C47.0985 42.0575 50.1283 39.1663 52.663 36.1959C55.1977 33.1859 56.4453 29.9779 56.4057 26.5719C56.4057 22.2946 54.9997 19.2252 52.1878 17.3637C49.4154 15.5023 45.2965 14.5716 39.831 14.5716C34.0487 14.5716 29.5139 15.6211 26.2267 17.7202C22.9395 19.7796 21.2959 23.3837 21.2959 28.5324V30.7898H0.503255V28.5324C0.503255 20.0173 4.0281 13.1458 11.0778 7.91796C18.1671 2.6901 27.8109 0.0761719 40.0092 0.0761719C52.4056 0.0761719 61.7524 2.57129 68.0496 7.56151C74.3467 12.5121 77.5151 18.5915 77.5547 25.7996C77.5944 32.4532 75.7329 38.0375 71.9704 42.5525C68.208 47.0279 63.6534 51.2458 58.3067 55.2063L34.2467 73.9197H80.7628V87.9992H0.265625Z" fill="#D8D8D8"/>
<path fill-rule="evenodd" clip-rule="evenodd" d="M148 62.2218C148 38.4028 128.691 19.0938 104.872 19.0938C81.053 19.0938 61.7439 38.4028 61.7439 62.2218C61.7439 72.7261 65.4992 82.3532 71.7406 89.834L68.9159 92.6586C66.7109 90.8674 63.464 90.9983 61.4112 93.0511L34.6444 119.818C32.4519 122.01 32.4519 125.565 34.6444 127.758L39.3361 132.449C41.5286 134.642 45.0834 134.642 47.2759 132.449L74.0427 105.683C76.0072 103.718 76.2115 100.66 74.6555 98.4678L77.5391 95.5843C84.9794 101.687 94.498 105.35 104.872 105.35C128.691 105.35 148 86.0408 148 62.2218ZM104.872 26.7496C124.463 26.7496 140.344 42.6311 140.344 62.2218C140.344 81.8126 124.463 97.694 104.872 97.694C85.2812 97.694 69.3998 81.8126 69.3998 62.2218C69.3998 42.6311 85.2812 26.7496 104.872 26.7496Z" fill="black"/>
<path d="M105.124 65.2836C97.372 65.2836 91.088 57.0063 91.088 49.0558C91.088 41.1053 97.372 34.6602 105.124 34.6602C112.875 34.6602 119.16 41.1053 119.16 49.0558C119.16 57.0063 112.875 65.2836 105.124 65.2836Z" fill="#0055FF"/>
<path d="M116.717 66.8148C121.096 67.5674 132.43 71.5813 132.43 81.6161C132.43 81.6161 124.263 96.1623 105.124 96.1623C85.9841 96.1623 77.8178 81.6161 77.8178 81.6161C77.8178 71.5813 88.9415 67.5674 93.2393 66.8148C92.6325 68.4204 92.6494 70.6615 92.7337 71.5813C94.7561 68.32 96.273 67.5674 98.0427 66.8148C100.824 70.5779 102.846 72.0831 104.869 72.0831C106.929 72.0831 108.99 70.5779 111.823 66.8148C113.626 67.5674 115.172 68.32 117.232 71.5813C117.318 70.6615 117.335 68.4204 116.717 66.8148Z" fill="#0055FF"/>
</svg>
