<svg width="285" height="38" viewBox="0 0 285 38" fill="none" xmlns="http://www.w3.org/2000/svg">
<path d="M19.407 22.1494C17.1407 23.0622 15.4253 23.8491 14.2607 24.5101C13.096 25.1711 12.1832 25.9107 11.5222 26.7291H30.1717V34.0001H0.804688V31.0256C0.962067 28.3816 1.70175 26.1783 3.02374 24.4156C4.40868 22.59 5.98248 21.1736 7.74513 20.1664C9.60221 19.0962 11.8842 17.9631 14.5911 16.767C16.3223 16.0116 17.6758 15.382 18.6515 14.8784C20.8863 13.7453 22.0037 12.439 22.0037 10.9597C22.0037 10.1728 21.5001 9.55899 20.4929 9.11832C19.5171 8.64618 18.1794 8.41011 16.4797 8.41011C14.6226 8.41011 13.1747 8.75635 12.136 9.44882C11.0973 10.1098 10.578 11.0541 10.578 12.2817H1.27683C1.27683 8.56749 2.63029 5.68745 5.33722 3.64151C8.07563 1.5641 11.8842 0.525391 16.763 0.525391C21.264 0.525391 24.7894 1.42246 27.3389 3.21659C29.9199 4.97924 31.2104 7.41862 31.2104 10.5347C31.2104 12.6122 30.6596 14.3905 29.558 15.8699C28.5507 17.2549 27.213 18.4195 25.5448 19.3637C23.971 20.2136 21.925 21.1421 19.407 22.1494Z" fill="#1A1A1A"/>
<path fill-rule="evenodd" clip-rule="evenodd" d="M69.0708 24.935C69.0708 28.0196 68.0951 30.3016 66.1436 31.781C64.2235 33.2604 61.2648 34.0001 57.2674 34.0001H36.3516V0.950316H57.2674C65.0104 0.950316 68.882 3.83036 68.882 9.59046C68.882 13.2731 67.1351 15.7597 63.6412 17.0503V17.2391C67.261 18.5926 69.0708 21.1579 69.0708 24.935ZM56.3231 8.31569H45.6055V13.9814H55.8982C57.0313 13.9814 57.9283 13.7295 58.5893 13.2259C59.2503 12.7223 59.5808 12.0456 59.5808 11.1957C59.5808 9.2757 58.4949 8.31569 56.3231 8.31569ZM59.8169 23.8018C59.8169 22.7317 59.4549 21.8976 58.731 21.2995C58.0385 20.7015 57.0942 20.4024 55.8982 20.4024H45.5583V26.6819H56.3231C58.6523 26.6819 59.8169 25.7219 59.8169 23.8018Z" fill="#1A1A1A"/>
<path fill-rule="evenodd" clip-rule="evenodd" d="M108.86 34.2833V27.0124C106.342 27.0124 104.925 25.9107 104.61 23.7074C104.39 22.291 103.682 21.1736 102.486 20.3552V20.1192C106.546 18.7342 108.576 15.9171 108.576 11.6679C108.576 8.11109 107.427 5.43564 105.13 3.64151C102.832 1.84738 99.527 0.950316 95.2148 0.950316H74.2518V34.0001H83.5057V22.1494H90.8239C92.9013 22.2123 94.1289 22.4012 94.5066 22.7159C94.9158 22.9992 95.3092 24.0064 95.6869 25.7376C96.0961 28.6334 97.1034 30.8052 98.7086 32.2531C100.314 33.6696 102.612 34.3778 105.602 34.3778C106.704 34.3778 107.789 34.3463 108.86 34.2833ZM83.5057 14.9728V8.22126H95.2148C96.5053 8.22126 97.5125 8.52028 98.2365 9.11832C98.9604 9.71637 99.3224 10.5505 99.3224 11.6207C99.3224 12.6908 98.9604 13.525 98.2365 14.123C97.5125 14.6896 96.5053 14.9728 95.2148 14.9728H83.5057Z" fill="#1A1A1A"/>
<path fill-rule="evenodd" clip-rule="evenodd" d="M143.509 7.59932C142.61 6.79517 141.377 6.39309 139.81 6.39309C138.863 6.39309 138.032 6.542 137.317 6.83984C136.603 7.13768 136.072 7.5755 135.727 8.1533L135.629 8.16224C135.652 7.10789 135.971 6.31565 136.585 5.7855C137.204 5.25535 138.33 4.91284 139.962 4.75796C141.624 4.59117 142.726 4.31121 143.268 3.91806C143.816 3.51896 144.114 2.83989 144.162 1.88086H141.606C141.588 2.0536 141.487 2.18465 141.302 2.274C141.124 2.36335 140.323 2.48249 138.899 2.63141C136.826 2.85181 135.375 3.51003 134.548 4.60606C133.725 5.69615 133.314 7.26873 133.314 9.3238V10.5926C133.314 12.4213 133.836 13.7467 134.878 14.5687C135.926 15.3848 137.338 15.7928 139.113 15.7928C140.823 15.7928 142.208 15.3788 143.268 14.5508C144.328 13.7228 144.859 12.6 144.859 11.1823V10.9142C144.859 9.50846 144.409 8.40348 143.509 7.59932ZM136.156 11.1823V10.9321C136.156 10.1518 136.391 9.54122 136.862 9.10042C137.338 8.65962 138.086 8.43922 139.104 8.43922C140.111 8.43922 140.847 8.6626 141.311 9.10936C141.782 9.55016 142.017 10.1577 142.017 10.9321V11.1823C142.017 11.9686 141.779 12.5881 141.302 13.0408C140.832 13.4935 140.093 13.7199 139.087 13.7199C138.08 13.7199 137.338 13.4965 136.862 13.0497C136.391 12.597 136.156 11.9745 136.156 11.1823Z" fill="#1A1A1A"/>
<path fill-rule="evenodd" clip-rule="evenodd" d="M146.681 6.22332V19.2328H149.442V14.4704C149.758 14.8457 150.22 15.1465 150.827 15.3729C151.441 15.5992 152.144 15.7124 152.936 15.7124C154.354 15.7124 155.497 15.2865 156.367 14.4347C157.243 13.5769 157.68 12.4302 157.68 10.9947V10.7266C157.68 9.29104 157.24 8.15032 156.358 7.30447C155.476 6.45265 154.309 6.02675 152.856 6.02675C152.057 6.02675 151.345 6.16077 150.72 6.42883C150.101 6.69092 149.654 7.01556 149.38 7.40275H149.353L149.29 6.22332H146.681ZM150.416 13.2374C149.928 12.9574 149.591 12.6298 149.407 12.2545V9.44889C149.603 9.09149 149.94 8.77578 150.416 8.50177C150.893 8.22776 151.462 8.09075 152.123 8.09075C153.07 8.09075 153.761 8.31413 154.196 8.76089C154.637 9.20764 154.857 9.82119 154.857 10.6015V11.1287C154.857 11.909 154.634 12.5255 154.187 12.9783C153.746 13.431 153.061 13.6573 152.132 13.6573C151.482 13.6573 150.911 13.5173 150.416 13.2374Z" fill="#1A1A1A"/>
<path fill-rule="evenodd" clip-rule="evenodd" d="M158.985 10.9947V10.7266C158.985 9.28508 159.503 8.1265 160.54 7.25086C161.582 6.37522 162.925 5.9374 164.569 5.9374C166.214 5.9374 167.5 6.35139 168.429 7.17937C169.359 8.0014 169.823 9.13318 169.823 10.5747V11.495H161.709C161.772 12.1606 162.014 12.6908 162.434 13.0855C162.928 13.5441 163.7 13.7735 164.748 13.7735C165.421 13.7735 165.993 13.6603 166.464 13.4339C166.94 13.2076 167.339 12.9068 167.661 12.5315L169.627 13.7824C169.281 14.3662 168.686 14.8487 167.84 15.2299C167 15.6052 165.987 15.7928 164.802 15.7928C162.985 15.7928 161.561 15.358 160.531 14.4883C159.5 13.6126 158.985 12.4481 158.985 10.9947ZM167.089 9.93139H161.744C161.838 9.39654 162.059 8.9617 162.407 8.62686C162.884 8.16224 163.596 7.92992 164.543 7.92992C165.466 7.92992 166.121 8.09671 166.508 8.43029C166.896 8.76387 167.089 9.22253 167.089 9.80629V9.93139Z" fill="#1A1A1A"/>
<path d="M174.21 6.22332H171.449V15.5248H174.21V11.7988H178.678V15.5248H181.448V6.22332H178.678V9.74375H174.21V6.22332Z" fill="#1A1A1A"/>
<path fill-rule="evenodd" clip-rule="evenodd" d="M192.42 17.9372V15.5248H185.299V17.9372H182.69V13.4697H183.816C183.937 13.2278 184.056 12.8763 184.173 12.4153C184.34 11.7839 184.447 10.9113 184.495 9.79736L184.647 6.22332H193.537V13.4697H195.02V17.9372H192.42ZM190.803 13.4697H186.432C186.528 13.2002 186.615 12.8637 186.693 12.46C186.8 11.9299 186.874 11.2419 186.916 10.396L187.005 8.26946H190.803V13.4697Z" fill="#1A1A1A"/>
<path d="M196.325 6.22332V15.5248H199.104L203.098 10.3067C203.247 10.1101 203.366 9.93734 203.455 9.78842C203.544 9.63355 203.625 9.47272 203.696 9.30593H203.759C203.747 9.48463 203.738 9.6812 203.732 9.89565C203.726 10.1041 203.723 10.2947 203.723 10.4675V15.5248H206.484V6.22332H203.705L199.711 11.3967C199.568 11.5874 199.452 11.7601 199.363 11.915C199.273 12.0639 199.19 12.2218 199.113 12.3885H199.05C199.056 12.2098 199.062 12.0162 199.068 11.8078C199.08 11.5993 199.086 11.4057 199.086 11.227V6.22332H196.325Z" fill="#1A1A1A"/>
<path d="M208.834 6.22332H211.595V9.74375H216.062V6.22332H218.832V15.5248H216.062V11.7988H211.595V15.5248H208.834V6.22332Z" fill="#1A1A1A"/>
<path d="M228.983 6.22332H221.164V15.5248H223.925V8.27839H228.983V6.22332Z" fill="#1A1A1A"/>
<path d="M141.052 33.5248L137.41 29.8078H136.558V33.5248H133.797V24.2233H136.558V27.7437H137.326L140.954 24.2233H144.028L139.554 28.4152L144.68 33.5248H141.052Z" fill="#1A1A1A"/>
<path fill-rule="evenodd" clip-rule="evenodd" d="M145.082 28.7266V28.9947C145.082 30.466 145.612 31.6335 146.672 32.4972C147.739 33.361 149.13 33.7928 150.845 33.7928C152.567 33.7928 153.958 33.361 155.018 32.4972C156.078 31.6335 156.608 30.466 156.608 28.9947V28.7266C156.608 27.2613 156.078 26.0967 155.018 25.233C153.958 24.3693 152.567 23.9374 150.845 23.9374C149.13 23.9374 147.739 24.3693 146.672 25.233C145.612 26.0967 145.082 27.2613 145.082 28.7266ZM147.905 29.1376V28.6015C147.905 27.7854 148.162 27.1511 148.674 26.6983C149.192 26.2456 149.916 26.0193 150.845 26.0193C151.774 26.0193 152.495 26.2456 153.007 26.6983C153.52 27.1511 153.776 27.7854 153.776 28.6015V29.1376C153.776 29.9537 153.523 30.5881 153.016 31.0408C152.51 31.4935 151.786 31.7199 150.845 31.7199C149.91 31.7199 149.186 31.4935 148.674 31.0408C148.162 30.5881 147.905 29.9537 147.905 29.1376Z" fill="#1A1A1A"/>
<path d="M158.565 33.5248V24.2233H162.3L164.534 29.0304C164.706 29.4295 164.823 29.7184 164.882 29.8971C164.948 30.0758 164.995 30.2337 165.025 30.3707H165.097C165.132 30.2337 165.183 30.0788 165.249 29.906C165.314 29.7333 165.433 29.4384 165.606 29.0215L167.831 24.2233H171.539V33.5248H168.742V28.2799C168.742 27.8391 168.751 27.5174 168.769 27.3149C168.793 27.1064 168.817 26.9187 168.84 26.752H168.76C168.724 26.883 168.68 27.0349 168.626 27.2076C168.572 27.3744 168.468 27.6395 168.313 28.0029L165.802 33.5248H163.828L161.308 27.985C161.207 27.7408 161.12 27.5085 161.049 27.2881C160.978 27.0677 160.924 26.889 160.888 26.752H160.808C160.814 26.889 160.829 27.0706 160.852 27.297C160.876 27.5174 160.888 27.8361 160.888 28.253V33.5248H158.565Z" fill="#1A1A1A"/>
<path d="M174.023 24.2233V33.5248H176.346V28.253C176.346 27.8361 176.334 27.5174 176.31 27.297C176.286 27.0706 176.271 26.889 176.265 26.752H176.346C176.382 26.889 176.435 27.0677 176.507 27.2881C176.578 27.5085 176.665 27.7408 176.766 27.985L179.286 33.5248H181.26L183.771 28.0029C183.926 27.6395 184.03 27.3744 184.084 27.2076C184.137 27.0349 184.182 26.883 184.218 26.752H184.298C184.274 26.9187 184.25 27.1064 184.227 27.3149C184.209 27.5174 184.2 27.8391 184.2 28.2799V33.5248H186.997V24.2233H183.288L181.064 29.0215C180.891 29.4384 180.772 29.7333 180.706 29.906C180.641 30.0788 180.59 30.2337 180.554 30.3707H180.483C180.453 30.2337 180.405 30.0758 180.34 29.8971C180.28 29.7184 180.164 29.4295 179.991 29.0304L177.758 24.2233H174.023Z" fill="#1A1A1A"/>
<path d="M188.685 37.2239L188.721 35.2224C188.918 35.2701 189.141 35.3088 189.391 35.3386C189.647 35.3743 189.88 35.3922 190.088 35.3922C190.678 35.3922 191.166 35.276 191.553 35.0437C191.947 34.8114 192.304 34.2783 192.626 33.4443L192.322 33.4354L188.104 24.2233H190.919L193.251 29.7363C193.346 29.9626 193.43 30.186 193.501 30.4064C193.573 30.6209 193.632 30.8502 193.68 31.0944H193.743C193.796 30.8502 193.853 30.6209 193.912 30.4064C193.978 30.186 194.055 29.9626 194.145 29.7363L196.477 24.2233H199.104L194.556 34.5612C194.121 35.5084 193.537 36.2202 192.804 36.6967C192.078 37.1792 191.241 37.4205 190.294 37.4205C189.972 37.4205 189.68 37.4026 189.418 37.3669C189.156 37.3371 188.912 37.2894 188.685 37.2239Z" fill="#1A1A1A"/>
<path d="M202.91 24.2233H200.149V33.5248H202.91V29.7988H207.378V33.5248H210.147V24.2233H207.378V27.7437H202.91V24.2233Z" fill="#1A1A1A"/>
<path d="M212.479 33.5248V24.2233H215.24V29.227C215.24 29.4057 215.234 29.5993 215.223 29.8078C215.217 30.0162 215.211 30.2098 215.205 30.3885H215.267C215.345 30.2218 215.428 30.0639 215.517 29.915C215.607 29.7601 215.723 29.5874 215.866 29.3967L219.86 24.2233H222.639V33.5248H219.878V28.4675C219.878 28.2947 219.881 28.1041 219.887 27.8956C219.893 27.6812 219.902 27.4846 219.913 27.3059H219.851C219.779 27.4727 219.699 27.6335 219.61 27.7884C219.52 27.9373 219.401 28.1101 219.252 28.3067L215.258 33.5248H212.479Z" fill="#1A1A1A"/>
<path d="M228.602 29.8078L232.244 33.5248H235.872L230.746 28.4152L235.219 24.2233H232.146L228.518 27.7437H227.75V24.2233H224.989V33.5248H227.75V29.8078H228.602Z" fill="#1A1A1A"/>
<path fill-rule="evenodd" clip-rule="evenodd" d="M236.256 30.7727C236.256 29.772 236.676 29.0155 237.516 28.5032C238.361 27.985 239.594 27.7259 241.215 27.7259L243.904 27.7348V27.1362C243.904 26.6596 243.731 26.3171 243.386 26.1086C243.04 25.8942 242.492 25.787 241.742 25.787C241.015 25.787 240.467 25.8793 240.098 26.0639C239.729 26.2427 239.544 26.5107 239.544 26.8681V26.9664H236.872V26.8681C236.872 25.8852 237.316 25.1526 238.204 24.6701C239.097 24.1876 240.318 23.9463 241.867 23.9463C243.392 23.9463 244.568 24.2174 245.396 24.7594C246.224 25.2955 246.638 26.1027 246.638 27.1808V31.4339C246.638 31.8092 246.677 32.1696 246.754 32.5151C246.832 32.8546 246.936 33.1435 247.067 33.3818V33.5248H244.36C244.276 33.3878 244.199 33.2091 244.128 32.9887C244.062 32.7683 244.017 32.5449 243.994 32.3185C243.761 32.6878 243.309 33.0095 242.635 33.2835C241.962 33.5516 241.122 33.6856 240.116 33.6856C238.906 33.6856 237.959 33.4384 237.274 32.944C236.595 32.4496 236.256 31.7258 236.256 30.7727ZM239.008 30.5672C239.008 31.0378 239.172 31.3774 239.499 31.5858C239.827 31.7884 240.372 31.8896 241.134 31.8896C241.903 31.8896 242.561 31.7139 243.109 31.3625C243.663 31.011 243.94 30.5851 243.94 30.0847V29.2359L241.679 29.227C240.804 29.227 240.14 29.3402 239.687 29.5665C239.234 29.7929 239.008 30.1264 239.008 30.5672Z" fill="#1A1A1A"/>
<path d="M257.897 33.5248V35.9372H260.506V31.4697H259.013V24.2233H256.244V31.4697H251.803V24.2233H249.042V33.5248H257.897Z" fill="#1A1A1A"/>
<path d="M261.801 33.5248V24.2233H264.562V29.227C264.562 29.4057 264.556 29.5993 264.544 29.8078C264.538 30.0162 264.532 30.2098 264.526 30.3885H264.589C264.666 30.2218 264.75 30.0639 264.839 29.915C264.928 29.7601 265.045 29.5874 265.188 29.3967L269.182 24.2233H271.96V33.5248H269.199V28.4675C269.199 28.2947 269.202 28.1041 269.208 27.8956C269.214 27.6812 269.223 27.4846 269.235 27.3059H269.173C269.101 27.4727 269.021 27.6335 268.931 27.7884C268.842 27.9373 268.723 28.1101 268.574 28.3067L264.58 33.5248H261.801Z" fill="#1A1A1A"/>
<path d="M274.31 24.2233V33.5248H277.089L281.083 28.3067C281.232 28.1101 281.351 27.9373 281.441 27.7884C281.53 27.6335 281.61 27.4727 281.682 27.3059H281.744C281.732 27.4846 281.724 27.6812 281.718 27.8956C281.712 28.1041 281.709 28.2947 281.709 28.4675V33.5248H284.47V24.2233H281.691L277.697 29.3967C277.554 29.5874 277.438 29.7601 277.348 29.915C277.259 30.0639 277.176 30.2218 277.098 30.3885H277.036L277.043 30.173C277.046 30.0568 277.05 29.9351 277.053 29.8078C277.065 29.5993 277.071 29.4057 277.071 29.227V24.2233H274.31Z" fill="#1A1A1A"/>
</svg>
